<svg id="Шар_1" data-name="Шар 1" xmlns="http://www.w3.org/2000/svg" viewBox="0 0 172.41 179.57"><path d="M96.66,49.35v0h0a1.41,1.41,0,0,1,.58-.08h32.36a1,1,0,0,1,.64.12h0a1,1,0,0,1,.13.68v7c0,.14,0,.29,0,.43a.25.25,0,0,0,.27.27h7.44a1,1,0,0,1,.68.13h0a1.13,1.13,0,0,1,.13.76c0,4.87,0,9.74,0,14.61,0,5.84,0,11.68,0,17.52a1.12,1.12,0,0,1-.13.76h0a1,1,0,0,1-.68.13h-7.27c-.41,0-.45,0-.45.46,0,1.34,0,2.68,0,4v3.31a.84.84,0,0,1-.13.6h0a1,1,0,0,1-.68.13h-7.26c-.42,0-.45,0-.46.46V108a.85.85,0,0,1-.13.6h0a1,1,0,0,1-.69.13c-2.3,0-4.6,0-6.9,0h-.36c-.41,0-.45,0-.45.45,0,1.34,0,2.69,0,4,0,1.1,0,2.21,0,3.31a.88.88,0,0,1-.13.61h0a1,1,0,0,1-.68.13h-7.22a3.05,3.05,0,0,0-.52,0,1,1,0,0,1,.1.55V125c0,.21.06.46-.18.61h0a1,1,0,0,1-.68.14H97c-.61,0-.62,0-.62.61,0,2.37,0,4.74,0,7.1,0,.23,0,.48-.14.67h0c-.2.19-.44.14-.68.14H88.31c-.42,0-.46,0-.46.46,0,1.35,0,2.71,0,4.06v3.28a.75.75,0,0,1-.15.59h0a.64.64,0,0,1-.51.15H79.71a.69.69,0,0,1-.52-.14h0a1,1,0,0,1-.13-.68v-7.26c0-.42,0-.45-.46-.46H71.26a.85.85,0,0,1-.6-.13h0a1,1,0,0,1-.14-.68v-6.9c0-.12,0-.24,0-.36,0-.41,0-.45-.45-.45H62.74a.79.79,0,0,1-.6-.13h0A1,1,0,0,1,62,125V117.7c0-.42,0-.45-.46-.46H54.21a.85.85,0,0,1-.6-.13h0a.91.91,0,0,1-.14-.68v-7.26c0-.41,0-.45-.46-.45H49c-1.11,0-2.21,0-3.32,0a.86.86,0,0,1-.6-.13h0a1,1,0,0,1-.13-.68c0-2.3,0-4.61,0-6.91,0-.12,0-.24,0-.35,0-.42,0-.46-.45-.46H37.16a.84.84,0,0,1-.6-.13h0a1,1,0,0,1-.13-.68V92.12c0-.41,0-.45-.46-.45H32c-1.11,0-2.21,0-3.32,0a.85.85,0,0,1-.6-.13h0a.56.56,0,0,1-.13-.41c0-.13,0-.26,0-.39q0-16,0-32a1.17,1.17,0,0,1,.13-.8h0a1,1,0,0,1,.68-.13H36c.42,0,.46,0,.46-.46V50a.85.85,0,0,1,.13-.6h0a.57.57,0,0,1,.4-.13H70.35a1.15,1.15,0,0,1,.79.13h0a1,1,0,0,1,.13.68v7.26c0,.42,0,.46.46.46h7.34a.85.85,0,0,1,.6.13h0a1,1,0,0,1,.12.68c0,2.27,0,4.55,0,6.82,0,.12,0,.24,0,.36,0,.51,0,.53.53.54h7c.7,0,.71,0,.71-.7V58.38c0-.49.11-.6.61-.6H96c.58,0,.61,0,.61-.59,0-2.45,0-4.89,0-7.34C96.58,49.68,96.53,49.5,96.66,49.35Z" style="fill:#f42222"/><path d="M71.14,49.38H36.56c0-2.62,0-5.24,0-7.85,0-.69,0-.69.67-.69q16.71,0,33.42,0c.41,0,.48.12.48.5,0,2.52,0,5.05,0,7.57C71.13,49.06,71.14,49.22,71.14,49.38Z"/><path d="M28,57.9V91.54c-2.71,0-5.42,0-8.13,0-.32,0-.39-.09-.39-.39q0-16.44,0-32.88c0-.21-.05-.39.3-.39C22.56,57.9,25.3,57.89,28,57.9Z"/><path d="M138.79,91.54V57.89H147c.22,0,.32,0,.28.28a.86.86,0,0,0,0,.16q0,16.4,0,32.78c0,.37-.1.44-.45.44C144.18,91.53,141.49,91.54,138.79,91.54Z"/><path d="M130.27,49.37H97.19a1,1,0,0,1-.5,0q0-4.07,0-8.13c0-.31.09-.35.37-.35h32.87c.25,0,.37,0,.37.33C130.27,43.9,130.28,46.64,130.27,49.37Z"/><path d="M96.66,49.35c0,.7,0,1.4,0,2.09,0,2,0,4,0,6,0,.33-.09.42-.42.42-2.55,0-5.11,0-7.66,0-.34,0-.46.07-.46.45,0,2.55,0,5.1,0,7.65,0,.36-.1.44-.44.43H80c-.21,0-.4,0-.39-.31,0-2.73,0-5.47,0-8.2,2.69,0,5.38,0,8.07,0,.34,0,.44-.06.44-.42,0-2.58,0-5.15,0-7.73,0-.31.08-.38.39-.38C91.25,49.37,94,49.36,96.66,49.35Z"/><path d="M36.56,49.37q0,4.08,0,8.16c0,.31-.1.37-.38.37-2.59,0-5.18,0-7.77,0H28c0-1.25,0-2.49,0-3.74,0-1.49,0-3,0-4.46,0-.24,0-.34.32-.34Z"/><path d="M79.67,57.9h-8c-.62,0-.54.09-.54-.55,0-2.66,0-5.31,0-8h8.2c.29,0,.31.11.31.34v7.73C79.65,57.59,79.66,57.75,79.67,57.9Z"/><path d="M138.8,57.9h-8.08c-.35,0-.46-.08-.46-.45,0-2.7,0-5.39,0-8.08h8.19c.28,0,.35.07.35.34C138.79,52.44,138.8,55.17,138.8,57.9Z"/><path d="M28,91.53c2.71,0,5.42,0,8.13,0,.33,0,.42.08.41.41q0,4.06,0,8.13c-2.7,0-5.41,0-8.12,0-.33,0-.4-.09-.4-.41,0-2.56,0-5.13,0-7.69C28.05,91.82,28,91.67,28,91.53Z"/><path d="M130.27,100.06c0-2.69,0-5.39,0-8.08,0-.35.07-.46.44-.46,2.7,0,5.39,0,8.09,0,0,2.71,0,5.42,0,8.13,0,.34-.1.4-.41.4C135.69,100.05,133,100.06,130.27,100.06Z"/><path d="M36.56,100.06h8.13c.32,0,.41.08.41.41,0,2.71,0,5.42,0,8.13-2.71,0-5.41,0-8.12,0-.33,0-.41-.09-.41-.41C36.57,105.47,36.56,102.76,36.56,100.06Z"/><path d="M121.74,108.59c0-2.67,0-5.33,0-8,0-.61-.09-.53.51-.53h8q0,4.09,0,8.21c0,.27-.09.31-.33.31-2.57,0-5.13,0-7.7,0Z"/><path d="M45.08,108.58c2.71,0,5.42,0,8.13,0,.33,0,.41.09.41.41q0,4.06,0,8.13h-8c-.52,0-.52,0-.52-.52Q45.09,112.59,45.08,108.58Z"/><path d="M113.21,117.12c0-.19,0-.37,0-.55q0-3.79,0-7.57c0-.31,0-.43.4-.43,2.7,0,5.41,0,8.12,0,0,2.75,0,5.5,0,8.25,0,.3-.16.27-.35.27h-7.69Z"/><path d="M53.61,117.11h8.17c.3,0,.37.08.37.37,0,2.72,0,5.45,0,8.17l-4.1,0c-1.32,0-2.65,0-4,0-.34,0-.46-.06-.46-.44C53.62,122.49,53.61,119.8,53.61,117.11Z"/><path d="M62.14,125.63h8.23c.3,0,.29.14.29.35,0,2.73,0,5.46,0,8.19l-.47,0c-2.57,0-5.13,0-7.69,0-.32,0-.38-.1-.38-.4Q62.15,129.7,62.14,125.63Z"/><path d="M70.66,134.16l8.27,0c.31,0,.25.18.25.36v7.76c0,.14,0,.29,0,.43a1.19,1.19,0,0,0-.46,0H71c-.3,0-.39-.07-.39-.38Q70.66,138.21,70.66,134.16Z"/><path d="M87.7,142.68c0-2.72,0-5.43,0-8.15,0-.31.07-.4.38-.39h8.16c0,.14,0,.28,0,.43,0,2.56,0,5.13,0,7.69,0,.32-.09.39-.39.39h-7.7Z"/><path d="M104.72,125.64c0-2.72,0-5.44,0-8.16,0-.3.06-.39.38-.38h8.11c0,1.26,0,2.53,0,3.79,0,1.45,0,2.89,0,4.34,0,.32-.09.39-.4.39-2.56,0-5.13,0-7.69,0Z"/><path d="M96.23,134.15c0-2.73,0-5.46,0-8.19,0-.25,0-.34.32-.34h8.19c0,2.71,0,5.42,0,8.12,0,.31-.07.4-.38.4-2.57,0-5.13,0-7.69,0Z"/><path d="M79.19,142.68l1.29,0h7.23c0,2.67,0,5.34,0,8,0,.43-.13.51-.52.5H79.54c-.2,0-.37.05-.37-.28C79.19,148.15,79.18,145.42,79.19,142.68Z"/><path d="M37.51,74.88c0-2.72,0-5.45,0-8.17,0-.29.06-.37.36-.37,2.61,0,5.21,0,7.82,0,.29,0,.36-.08.36-.37,0-2.59,0-5.18,0-7.77,0-.34.09-.4.41-.4H62.7c.29,0,.39,0,.39.37,0,2.61,0,5.21,0,7.82,0,.28-.07.35-.35.35-2.59,0-5.18,0-7.77,0-.37,0-.42.11-.42.43,0,2.58,0,5.16,0,7.74,0,.29-.06.37-.36.37-2.6,0-5.19,0-7.78,0-.33,0-.4.09-.4.41,0,2.58,0,5.16,0,7.74,0,.29,0,.39-.38.39q-3.88,0-7.77,0c-.32,0-.39-.09-.39-.39Q37.52,78.94,37.51,74.88Z" style="fill:#fefefe"/><path d="M87.64,62.17c0,1.11,0,2.23,0,3.35,0,.27-.07.36-.35.36H80.5c-.3,0-.37-.1-.37-.39q0-3.36,0-6.74c0-.29.08-.38.38-.38,2.25,0,4.49,0,6.74,0,.33,0,.4.11.39.41C87.63,59.91,87.64,61,87.64,62.17Z"/></svg>