<svg width="183" height="123" viewBox="0 0 183 123" fill="none" xmlns="http://www.w3.org/2000/svg">
<path d="M132.277 100.032C132.206 101.006 132.181 101.052 131.309 100.93C130.973 100.889 130.799 100.981 130.759 101.322C130.619 102.405 130.101 103.404 129.296 104.142C128.933 104.411 128.662 104.785 128.521 105.214C128.379 105.643 128.374 106.106 128.506 106.538C128.888 107.833 128.741 109.214 129.016 110.54C129.082 110.851 129.174 110.973 129.48 110.968C130.1 110.984 130.721 110.946 131.335 110.856C132.14 110.703 132.94 111.045 133.75 111.142C133.791 111.142 133.857 111.208 133.857 111.243C133.783 111.699 133.62 112.135 133.378 112.528C133.235 112.809 132.97 112.615 132.756 112.564C132.298 112.505 131.834 112.505 131.375 112.564C131.09 112.564 131.085 112.742 131.238 112.916C131.531 113.275 131.92 113.545 132.359 113.696C133.286 113.997 134.265 114.129 135.116 114.675C135.323 114.79 135.501 114.953 135.634 115.15C135.768 115.346 135.854 115.571 135.885 115.806C136.023 116.627 136.232 117.443 136.395 118.264C136.398 118.33 136.414 118.395 136.444 118.454C136.474 118.513 136.516 118.566 136.568 118.607C136.62 118.649 136.68 118.679 136.744 118.695C136.808 118.711 136.875 118.714 136.94 118.702C137.404 118.702 137.868 118.702 138.332 118.702C138.395 118.693 138.459 118.697 138.521 118.714C138.582 118.732 138.639 118.763 138.687 118.804C138.735 118.846 138.774 118.898 138.801 118.956C138.827 119.014 138.841 119.077 138.841 119.141C138.864 119.514 138.844 119.889 138.78 120.257C138.78 120.471 138.597 120.538 138.423 120.604C137.888 120.798 137.363 121.027 136.818 121.18C136.241 121.294 135.646 121.28 135.075 121.139C134.212 120.984 133.321 121.102 132.527 121.476C130.91 122.2 129.191 122.673 127.431 122.878C127.36 122.888 127.288 122.888 127.217 122.878C126.454 122.748 125.673 122.779 124.924 122.969C124.792 122.989 124.658 122.98 124.53 122.945C124.402 122.91 124.283 122.848 124.179 122.764C124.076 122.681 123.992 122.576 123.931 122.458C123.871 122.34 123.836 122.21 123.828 122.077C123.829 121.943 123.782 121.814 123.696 121.711C123.61 121.608 123.491 121.539 123.359 121.516C122.686 121.338 122.019 121.149 121.32 121.007C120.903 120.9 120.49 120.752 120.444 120.272C120.394 120.026 120.421 119.77 120.522 119.539C120.622 119.309 120.79 119.114 121.005 118.983C121.438 118.733 121.861 118.473 122.294 118.228C122.63 118.039 122.646 117.851 122.335 117.642C122.024 117.433 121.891 117.168 121.57 117.071C121.428 117.03 121.387 116.928 121.346 116.801C121.044 116.022 120.806 115.221 120.633 114.404C120.582 114.083 120.475 113.92 120.123 114.027C119.771 114.134 119.425 113.711 119.012 113.869C118.915 113.91 118.834 113.706 118.828 113.584C118.752 112.156 118.14 110.831 118.018 109.413C117.982 109.051 118.018 108.827 118.39 108.715C118.525 108.668 118.654 108.608 118.777 108.536C119.287 108.271 119.241 108.302 118.813 107.935C117.606 107.001 116.47 105.978 115.414 104.876C115.261 104.702 115.139 104.478 114.848 104.616C114.746 104.662 114.639 104.692 114.588 104.544C114.571 104.493 114.57 104.438 114.587 104.386C114.603 104.335 114.636 104.29 114.68 104.259C114.94 104.045 115.19 103.836 115.47 103.627C115.75 103.418 115.72 103.3 115.501 103.117C114.96 102.607 114.481 102.225 113.59 102.439C112.265 102.765 110.894 102.898 109.543 103.127C109.09 103.204 108.763 103.096 108.656 102.617C108.632 102.523 108.583 102.436 108.514 102.367C108.445 102.298 108.359 102.249 108.264 102.225L105.512 101.205C105.4 101.164 105.237 101.067 105.196 101.246C105.104 101.649 104.748 101.603 104.483 101.7C103.025 102.199 101.521 102.551 99.9929 102.75C99.3201 102.857 99.2896 102.938 99.3915 103.601C99.4221 103.775 99.4628 104.004 99.2692 104.08C98.8513 104.238 98.8207 104.59 98.7596 104.942C98.6266 105.608 98.3347 106.233 97.9085 106.762C97.827 106.859 97.6384 107.012 97.776 107.114C98.2245 107.471 97.8932 107.726 97.7046 108.011C97.7046 108.042 97.6741 108.088 97.6486 108.098C97.2001 108.317 98.1174 108.812 97.4396 109.031C96.9708 109.184 97.2256 109.76 96.9963 110.101C96.8241 110.456 96.7705 110.856 96.8434 111.243C96.8629 111.492 96.8245 111.741 96.7313 111.973C96.6217 112.262 96.5794 112.573 96.6077 112.881C96.6359 113.189 96.7339 113.487 96.8943 113.752C97.0065 114.002 97.1797 114.262 96.7822 114.466C96.609 114.552 96.716 114.741 96.7415 114.899C96.8689 115.781 97.4142 116.469 97.8728 117.173C98.0716 117.484 98.0919 117.835 98.2958 118.126C98.4028 118.289 98.2601 118.35 98.1225 118.361C97.7199 118.391 97.6435 118.636 97.6129 119.003C97.561 119.514 97.3576 119.997 97.0289 120.392C96.7001 120.786 96.2611 121.073 95.7681 121.216C95.2955 121.388 94.7824 121.417 94.2936 121.298C93.8048 121.179 93.362 120.918 93.0212 120.548C92.4708 119.967 91.8848 119.416 91.3344 118.84C90.829 118.312 90.1716 117.956 89.4539 117.82C89.0818 117.744 89.0003 117.601 89.1073 117.234C89.3265 116.5 89.4692 115.745 89.6883 115.011C89.8208 114.552 89.6883 114.384 89.2245 114.435C87.8944 114.573 86.5592 114.501 85.224 114.527C84.9064 114.555 84.587 114.5 84.2965 114.369C83.9628 114.26 83.6012 114.274 83.2773 114.409C82.9294 114.547 82.5517 114.591 82.1816 114.537C81.5751 114.364 80.9432 113.079 81.2235 112.498C81.3107 112.344 81.3459 112.166 81.3238 111.99C81.3018 111.815 81.2237 111.651 81.1012 111.524C80.9228 111.289 80.8209 111.08 81.0196 110.805C81.0616 110.745 81.0866 110.676 81.092 110.603C81.0974 110.53 81.083 110.457 81.0502 110.392C80.6374 109.765 80.8158 109.092 80.8973 108.434C80.9432 108.077 80.8566 107.659 81.407 107.532C81.6312 107.481 81.7025 107.15 81.5802 106.884C81.3917 106.477 81.5802 106.324 81.9624 106.242C82.1137 106.228 82.2606 106.184 82.3944 106.112C82.5283 106.04 82.6462 105.942 82.7414 105.824C82.8365 105.705 82.9068 105.569 82.9481 105.423C82.9893 105.276 83.0008 105.123 82.9817 104.973C82.9817 104.636 82.8798 104.463 82.4721 104.463C82.0641 104.447 81.6583 104.396 81.2592 104.31C80.984 104.264 80.8005 104.167 81.1165 103.882C81.1789 103.845 81.2306 103.793 81.2666 103.731C81.3026 103.668 81.3215 103.597 81.3215 103.525C81.3215 103.453 81.3026 103.382 81.2666 103.319C81.2306 103.256 81.1789 103.204 81.1165 103.168C80.8816 102.95 80.6942 102.686 80.5661 102.393C80.45 102.132 80.2483 101.918 79.9943 101.788C79.7404 101.657 79.4495 101.617 79.1697 101.674C78.446 101.786 77.7275 101.914 77.014 102.041C76.6675 102.102 76.5604 102.255 76.8611 102.52C76.963 102.607 77.065 102.684 77.0089 102.826C76.9529 102.969 76.8153 102.959 76.6929 102.979C76.1833 103.061 75.8521 102.923 75.7603 102.383C75.6686 101.842 75.4342 101.751 74.9806 101.975C74.5271 102.199 74.0582 101.791 73.5843 101.832C73.4874 101.832 73.4161 101.705 73.411 101.587C73.4038 101.515 73.4253 101.442 73.471 101.385C73.5168 101.327 73.583 101.29 73.6556 101.282C74.2468 101.22 74.6341 100.716 75.1845 100.583C75.3985 100.527 75.6227 100.364 75.6431 100.17C75.7043 99.3595 76.0661 98.5387 75.5412 97.7332C75.4722 97.5805 75.3516 97.4569 75.2006 97.3842C75.0497 97.3115 74.878 97.2943 74.7156 97.3355C74.5729 97.361 74.3895 97.4731 74.2926 97.259C74.1958 97.0449 74.3487 96.9633 74.4761 96.8614C74.6035 96.7594 74.7156 96.7237 74.6545 96.5708C74.5933 96.4178 74.4404 96.4892 74.3232 96.4586C73.7168 96.2904 73.0492 95.8978 72.9014 95.439C72.7179 94.8578 72.2745 94.5468 72.0299 94.0624C71.6834 93.3793 71.1075 93.3844 70.6386 93.9808C70.4034 94.3316 70.065 94.6006 69.6704 94.7507C69.1607 94.9291 68.8295 95.444 68.4269 95.8213C68.2434 95.9896 68.0956 96.1629 67.8714 95.8723C67.8483 95.8389 67.8181 95.8111 67.783 95.7908C67.7479 95.7705 67.7087 95.7582 67.6683 95.7547C67.6279 95.7513 67.5872 95.7569 67.5492 95.7711C67.5112 95.7852 67.4768 95.8076 67.4484 95.8366C67.3834 95.8666 67.3233 95.9061 67.27 95.9539C66.3069 97.152 64.9411 97.1723 63.5804 97.2131C62.923 97.2131 62.2707 97.3049 61.6132 97.3202C60.962 97.3207 60.3328 97.084 59.8432 96.6543C59.3536 96.2246 59.0372 95.6313 58.953 94.9852C58.957 94.8701 58.9218 94.7571 58.8533 94.6645C58.7849 94.5719 58.6871 94.5053 58.5759 94.4754C58.1733 94.3428 57.7707 94.1848 57.363 94.0624C57.2921 94.0536 57.2238 94.0299 57.1627 93.993C57.1015 93.956 57.0488 93.9066 57.0079 93.848C56.9671 93.7893 56.939 93.7227 56.9255 93.6525C56.9121 93.5823 56.9135 93.51 56.9298 93.4404C57.0623 92.1302 57.1591 90.82 57.3222 89.5148C57.3926 89.0522 57.3122 88.5793 57.0928 88.166C56.8734 87.7528 56.5268 87.4213 56.1042 87.2206C56.011 87.1947 55.9246 87.1489 55.8508 87.0864C55.7771 87.0238 55.7178 86.9459 55.6771 86.8582C55.6363 86.7704 55.6152 86.6748 55.615 86.5781C55.6149 86.4813 55.6357 86.3857 55.6762 86.2978C55.792 85.7949 55.867 85.2834 55.9004 84.7684C55.9015 84.6264 55.9536 84.4896 56.0471 84.3829C56.1407 84.2762 56.2695 84.2067 56.41 84.1871C57.2533 83.9652 58.1218 83.8538 58.9938 83.8558C60.4921 83.8558 61.9853 83.8558 63.4785 83.8558C63.9764 83.842 64.4724 83.7875 64.9615 83.6926C65.1755 83.6569 65.5475 83.7283 65.522 83.3561C65.4966 82.984 65.3691 82.5863 64.9156 82.5251C64.6197 82.4635 64.3311 82.3712 64.0543 82.2498C63.9667 82.23 63.8886 82.1807 63.8329 82.1102C63.7773 82.0397 63.7475 81.9522 63.7486 81.8623C63.7542 81.7896 63.7808 81.7201 63.8251 81.6622C63.8694 81.6043 63.9296 81.5605 63.9983 81.5361C64.2276 81.4392 64.2429 81.6737 64.3397 81.7808C64.6761 82.158 64.7729 82.1326 65.0481 81.6839C65.2367 81.378 65.3793 81.0262 65.8227 80.9447C66.2661 80.8631 66.6177 81.0364 66.5464 81.5667C66.4986 81.9851 66.5175 82.4084 66.6024 82.8208C66.6687 83.2236 66.8267 83.142 67.056 83.0502C68.2263 82.5687 69.308 81.8949 70.2564 81.0568C71.5967 79.874 72.4937 78.3446 73.5078 76.9069C73.6556 76.6927 73.5894 76.5653 73.411 76.397C72.8759 75.9331 72.3408 75.4641 71.821 74.9797C71.5897 74.7797 71.2906 74.6757 70.9852 74.6891C70.5061 74.7221 70.026 74.6418 69.5837 74.4546C69.2965 74.3145 69.0411 74.1168 68.8333 73.8739C68.6256 73.631 68.4699 73.348 68.3759 73.0424C68.1234 72.3704 67.7084 71.7714 67.1681 71.2988C66.5617 70.6921 66.0724 70.8502 65.4711 71.049C64.8697 71.2478 64.8544 70.7482 64.8188 70.4627C64.7678 70.0752 64.5741 69.9529 64.2633 69.8713C63.9524 69.7897 63.5192 69.6317 63.1523 69.4991C63.0307 69.4436 62.8986 69.4149 62.765 69.4149C62.6313 69.4149 62.4993 69.4436 62.3777 69.4991C62.2159 69.5541 62.0429 69.5675 61.8746 69.5381C61.7063 69.5087 61.5481 69.4375 61.4145 69.3309C60.7316 68.9842 60.0232 69.1728 59.3199 69.1779C59.1365 69.1779 59.0244 69.3615 58.897 69.4889C57.3681 71.0184 55.8749 72.502 54.3715 74.0213C54.0319 74.388 53.6168 74.6768 53.155 74.8678C52.6931 75.0588 52.1954 75.1474 51.696 75.1276C50.5586 75.1616 49.4202 75.1293 48.2866 75.0307C47.5071 74.9207 46.7643 74.6291 46.118 74.1792C45.4718 73.7294 44.9403 73.1339 44.5664 72.4408C44.1179 71.6761 43.7102 70.8807 43.2822 70.1007C42.4973 68.6681 41.0347 68.4642 39.883 69.6164C39.5674 69.9876 39.2269 70.3368 38.8637 70.6615C38.7851 70.7358 38.7283 70.8301 38.6996 70.9344C38.6708 71.0387 38.6712 71.1489 38.7007 71.2529C38.7304 71.6249 38.6555 71.9978 38.4844 72.3294C38.3133 72.6609 38.0528 72.938 37.7324 73.1291C36.8053 73.7635 36.0463 74.6138 35.5206 75.6068C35.2415 76.1992 34.7773 76.6847 34.1982 76.9901C33.619 77.2954 32.9563 77.404 32.31 77.2994C31.6016 77.2179 30.9442 77.5085 30.2715 77.6257C29.7913 77.7595 29.2821 77.7471 28.8089 77.59C28.4624 77.4422 28.3808 77.8347 28.1566 77.9418C27.9324 78.0489 28.1209 78.2477 28.2075 78.3548C28.5949 78.8136 28.3146 79.4101 28.5643 79.9199C28.6611 80.1188 28.3095 80.4297 28.0547 80.6184C27.3514 81.1282 26.5971 81.5666 26.1945 82.3977C26.1227 82.5215 26.0189 82.6237 25.8939 82.6934C25.0632 83.1267 24.8237 83.0859 24.5077 82.2804C24.3701 81.9388 24.416 81.3933 23.8044 81.4341C23.1929 81.4749 23.3661 82 23.254 82.3314C23.0808 82.8412 22.2908 83.091 21.6589 82.7851C21.2698 82.6102 20.8964 82.4021 20.5428 82.1631C20.1932 81.9081 19.7591 81.7968 19.3299 81.8522C17.8418 82.0459 16.6493 81.3423 15.4568 80.6082C15.3294 80.5317 15.1765 80.4552 15.3141 80.287C15.4517 80.1188 15.6352 79.8587 15.9257 79.9607C16.2162 80.0627 16.4812 80.2105 16.7513 80.338C16.8481 80.3788 16.9602 80.4552 17.0468 80.3686C17.1335 80.2819 17.0468 80.1697 17.0061 80.0882L15.2835 77.5798C15.1459 77.3861 15.0033 77.3861 14.8402 77.539L13.877 78.2885C13.7598 78.4006 13.8311 78.5026 13.877 78.625C13.984 78.9462 13.6884 79.094 13.5254 79.2775C13.3623 79.4611 13.2349 79.2776 13.1228 79.1756C13.0106 79.0736 12.8017 79.0838 12.6743 79.2368C12.394 79.5579 12.0984 79.8689 11.8487 80.2156C11.599 80.5623 11.4563 80.5572 11.2372 80.2513C10.7678 79.6252 10.334 78.9733 9.93762 78.2987C9.77964 78.0132 9.8204 77.8653 10.1007 77.7175C10.7428 77.3708 11.3697 76.9884 12.0118 76.6469C12.4042 76.4327 12.4653 76.2135 12.1596 75.8617C11.6761 75.3595 11.2738 74.785 10.967 74.1589C10.6001 73.2769 9.91723 73.1138 9.10184 73.1087C7.89404 73.1087 6.68113 73.1087 5.47333 73.1087C4.76496 73.1087 4.05149 73.0424 3.34312 73.0271C3.27751 73.0321 3.21159 73.0233 3.14955 73.0014C3.08752 72.9795 3.03072 72.9449 2.98278 72.8998C2.93485 72.8547 2.89682 72.8001 2.87111 72.7395C2.84541 72.679 2.8326 72.6137 2.83349 72.5479C2.62285 70.8485 2.41051 69.1491 2.19647 67.4496C2.17339 67.2179 2.2048 66.9839 2.2882 66.7665C2.53791 66.0833 2.75705 65.3849 3.03225 64.7272C3.26667 64.146 3.761 63.7075 3.92408 63.0652C3.99513 62.8967 4.01703 62.7115 3.98727 62.531C3.95751 62.3506 3.8773 62.1823 3.75591 62.0455C3.67319 61.9516 3.61875 61.8361 3.59891 61.7125C3.57907 61.5889 3.59463 61.4622 3.64379 61.3471C4.38274 59.4046 5.14207 57.4724 6.06959 55.6064C6.78306 54.1534 6.727 54.0515 5.23891 53.4091C4.11774 52.9248 3.08321 52.2365 1.95185 51.7675C0.565676 51.1914 0.535101 49.8505 0.0509601 48.7544C-0.0407717 48.5505 0.0509602 48.4179 0.305771 48.3975C0.560582 48.3771 0.815391 48.3262 1.10078 48.316C3.03734 48.2395 4.979 48.1273 6.91556 48.1273C7.98135 48.1661 9.04356 48.2734 10.0956 48.4485C11.0203 48.6348 11.9752 48.6086 12.8883 48.372C14.1522 47.9744 15.411 48.1783 16.6799 48.4536C18.2431 48.7127 19.8372 48.7248 21.4041 48.4893C22.4998 48.3822 23.1623 47.5767 23.784 46.812C24.6538 45.7211 25.7942 44.8774 27.0915 44.3648C27.8045 44.1479 28.5395 44.0111 29.2828 43.957C30.6537 43.7479 32.0246 43.5287 33.4006 43.3656C34.5829 43.2279 35.7703 43.1464 36.9679 43.0801C37.1797 43.0797 37.3892 43.0371 37.5843 42.9548C37.7795 42.8725 37.9562 42.7522 38.1044 42.6008C38.733 41.8546 39.4143 41.1544 40.1429 40.5055C40.3569 40.3423 40.4741 40.1282 40.255 39.8682C40.0359 39.6082 40.1888 39.5062 40.3467 39.3584C41.7635 38.0328 43.17 36.6971 44.5919 35.3817C45.1525 34.8719 45.7946 34.4335 46.3246 33.888C46.7738 33.4126 47.1226 32.8517 47.3502 32.2385C47.5779 31.6253 47.6797 30.9726 47.6496 30.3192C47.5898 29.5397 47.4619 28.7669 47.2674 28.0097C47.227 27.8378 47.2214 27.6596 47.2511 27.4856C47.2807 27.3115 47.345 27.1452 47.44 26.9964C47.535 26.8476 47.6589 26.7194 47.8043 26.6194C47.9498 26.5193 48.1138 26.4495 48.2866 26.4139C48.7963 26.2967 49.3925 26.3222 49.8155 25.8582C49.9188 25.7842 50.0461 25.7515 50.1722 25.7665C50.7787 25.8022 51.4004 26.1132 51.9661 25.6135C51.9967 25.5829 52.1496 25.639 52.2056 25.6951C52.7153 26.2049 53.2249 25.9194 53.6784 25.6951C53.8088 25.6114 53.9553 25.556 54.1084 25.5326C54.2615 25.5092 54.4179 25.5181 54.5673 25.559C54.7167 25.5999 54.8559 25.6717 54.9758 25.7698C55.0957 25.8679 55.1937 25.9901 55.2634 26.1284C55.6192 26.7604 56.0448 27.3504 56.5323 27.8873C57.0105 28.4071 57.6278 28.7787 58.3109 28.958C58.5631 29.0175 58.8246 29.0261 59.0801 28.9832C59.3356 28.9403 59.58 28.8468 59.799 28.7082C60.5893 28.346 61.4211 28.0823 62.2758 27.923C62.8567 27.7599 63.453 28.0913 64.0034 28.2646C65.1034 28.5575 66.1773 28.9412 67.214 29.4117C67.2904 29.4525 67.4076 29.5086 67.4637 29.478C68.2893 29.0701 69.0181 29.6054 69.7876 29.7125C70.4434 29.7659 71.103 29.6737 71.719 29.4423C72.3815 29.2435 72.1267 28.6368 72.1013 28.1627C72.0758 27.6885 71.7394 27.765 71.4388 27.7344C68.8193 27.4642 66.1896 27.3622 63.5906 26.8881C63.244 26.8218 63.1676 26.7759 63.3052 26.3783C63.4988 25.8277 63.2338 25.221 63.3409 24.6347C63.3765 24.446 63.1523 24.4001 63.0045 24.3594C62.4868 24.2324 61.9976 24.0093 61.5623 23.7017C61.1138 23.3805 60.543 23.457 60.0334 23.3754C58.0306 23.0746 56.0176 22.8044 54.0148 22.5138C53.7729 22.4477 53.5162 22.4616 53.2829 22.5535C53.0496 22.6454 52.8522 22.8103 52.7203 23.0236C52.6337 23.1664 52.4299 23.253 52.3993 23.0746C52.3228 22.6871 52.0222 22.5648 51.7674 22.4067C51.6807 22.3507 51.5533 22.3048 51.5737 22.1824C51.5941 22.0601 51.7266 22.0499 51.8234 22.0091C52.1496 21.8816 52.5624 21.8867 52.7764 21.5808C52.9904 21.2749 52.7356 20.9333 52.7102 20.602C52.5216 18.1395 52.3076 15.6771 51.4769 13.3217C51.3036 12.8374 51.0997 12.6436 50.5748 12.6589C49.4639 12.6997 49.469 12.6589 49.5913 11.5628C49.6728 10.8184 49.7238 10.0741 49.7951 9.32977C49.7951 9.13604 49.7951 8.93211 49.5709 8.92701C49.1173 8.92701 49.0613 8.59562 48.9848 8.25404C48.9237 7.82579 48.7453 7.57597 48.2612 7.61676C47.6088 7.66774 47.7515 7.16302 47.6751 6.77555C47.6037 6.26573 47.9554 6.3422 48.2408 6.30651C49.0256 6.20455 49.0103 6.20455 48.781 5.4653C48.674 5.10843 48.3529 4.70567 48.6841 4.36408C49.0154 4.0225 49.3976 4.29781 49.7493 4.36408C50.7233 4.63638 51.677 4.97711 52.6031 5.38373C52.7464 5.4429 52.903 5.4623 53.0564 5.43987C53.2098 5.41743 53.3542 5.35401 53.4746 5.25627C53.6594 5.09779 53.8857 4.99538 54.1267 4.96107C54.3677 4.92675 54.6136 4.96194 54.8353 5.06254C55.9717 5.69472 57.1031 6.32691 58.2396 6.94889C58.474 7.07635 58.7492 7.16812 58.9632 7.29048C59.0957 7.36186 59.1671 7.33125 59.1976 7.1987C59.3709 6.49514 59.9672 6.57163 60.4819 6.50535C60.7988 6.50097 61.1139 6.45643 61.4196 6.37279C62.235 6.07709 62.5611 5.39903 62.8465 4.68528C62.9341 4.3761 63.1293 4.10847 63.3969 3.93075C63.4614 3.90032 63.5187 3.85671 63.5652 3.80275C63.6118 3.74878 63.6465 3.68566 63.6672 3.61744C63.6878 3.54922 63.6939 3.47742 63.6851 3.40669C63.6763 3.33595 63.6528 3.26786 63.6161 3.20679C63.3627 2.80276 63.2431 2.32914 63.2742 1.85323C63.3053 1.37731 63.4856 0.92329 63.7893 0.555702C64.248 -0.0611842 64.1461 -0.147842 64.8799 0.137659C65.6138 0.42316 66.368 0.581194 67.1172 0.79532C67.4029 0.860915 67.6688 0.994271 67.8923 1.18414C68.1158 1.37402 68.2904 1.61485 68.4014 1.88635C68.5339 2.21773 68.8855 2.2789 69.1964 2.37067C69.5073 2.46244 69.6805 2.51344 69.6143 2.9111C69.5633 3.22719 69.8334 3.30366 70.1239 3.24248C70.5038 3.24366 70.8797 3.32044 71.2297 3.46836C71.5797 3.61628 71.8967 3.83239 72.1624 4.10408C72.3051 4.36409 72.1012 4.58332 72.035 4.80254C71.9688 5.02176 71.7649 4.85352 71.6222 4.80254C71.4795 4.75156 71.3674 4.66489 71.2349 4.80254C71.2349 5.00137 71.4184 5.04216 71.5356 5.13903C72.0189 5.50017 72.4801 5.89002 72.9166 6.30651C73.6007 6.9379 74.4843 7.30952 75.4138 7.35674C75.8928 7.41792 76.2394 7.74422 76.7133 7.8003C78.0587 7.96345 79.2614 8.3815 80.0921 9.57958C80.1584 9.68155 80.245 9.8039 80.3928 9.70194C80.5406 9.59997 80.4285 9.54899 80.3928 9.46232C80.2756 9.15642 80.5151 8.3815 80.8209 8.31013C81.4834 8.16228 82.1153 7.86148 82.8594 8.01952C83.2279 8.07106 83.5784 8.21176 83.8803 8.42942C84.1823 8.64707 84.4266 8.93512 84.5921 9.26858C85.173 10.4361 86.3248 11.0275 87.2574 11.8177C87.6498 12.1542 88.0881 12.4295 88.4652 12.7813C88.7506 13.0515 88.9239 12.975 89.1685 12.7405C90.8044 11.16 92.4606 9.59488 94.1067 8.01952C94.9374 7.2242 94.9935 7.2191 95.8343 8.05011C96.6752 8.88113 97.4396 9.61527 98.2041 10.4361C98.5557 10.8185 98.8309 10.8287 99.1723 10.4769C99.2488 10.4004 99.3405 10.3443 99.4119 10.2678C99.4581 10.1963 99.5215 10.1375 99.5962 10.0967C99.671 10.056 99.7548 10.0346 99.84 10.0346C99.9251 10.0346 100.009 10.056 100.084 10.0967C100.158 10.1375 100.222 10.1963 100.268 10.2678C100.379 10.3831 100.496 10.492 100.62 10.5941C101.241 11.1447 101.247 11.1549 100.62 11.7565C100.151 12.2154 99.6463 12.6385 99.1775 13.0974C98.7086 13.5562 98.7901 13.6786 99.1775 14.0762C99.5648 14.4739 99.9979 14.8716 100.365 15.3049C100.553 15.5168 100.784 15.6869 101.042 15.8046C101.3 15.9222 101.58 15.9847 101.863 15.9881C102.026 15.9881 102.184 16.0339 102.307 15.9014C102.597 15.5904 102.816 15.7229 103.066 15.9779C103.733 16.661 104.432 17.3289 105.104 18.0172C105.344 18.2721 105.517 18.2925 105.746 18.0172C105.976 17.7418 106.358 17.3646 106.649 17.0332C106.868 16.7834 107.087 16.7273 107.306 17.0332C107.591 17.4156 107.866 17.3595 108.188 17.0587C108.509 16.7579 108.86 16.5489 109.166 16.2379C109.472 15.9269 109.727 16.0238 110.037 16.3347C110.623 16.9821 111.064 17.7468 111.332 18.578C111.556 19.1592 111.617 19.1541 112.188 18.889C112.963 18.527 113.748 18.1956 114.532 17.8693C114.69 17.803 114.869 17.7418 114.792 18.0477C114.741 18.2415 114.492 18.4607 114.69 18.629C115.037 18.9246 115.2 19.3835 115.669 19.5772C117.437 20.2808 119.19 21.02 120.938 21.7695C122.07 22.2538 123.181 22.7891 124.286 23.2989C124.669 23.4774 124.842 23.4162 124.908 23.0032C124.974 22.5903 125.321 22.1314 124.72 21.8001C124.587 21.7287 124.664 21.5298 124.72 21.4024C124.903 20.9792 124.954 20.5051 125.397 20.1737C125.657 19.9749 125.627 19.5007 125.744 19.1541C126.03 18.4064 126.243 17.633 126.381 16.8446C126.458 16.5695 126.59 16.3129 126.768 16.09C126.798 16.0459 126.838 16.0097 126.886 15.9847C126.933 15.9597 126.985 15.9466 127.038 15.9466C127.092 15.9466 127.144 15.9597 127.191 15.9847C127.238 16.0097 127.279 16.0459 127.309 16.09C127.528 16.5336 127.951 16.5744 128.328 16.6967C128.705 16.8191 128.837 17.0434 128.664 17.4105C128.491 17.7775 128.618 18.0172 128.96 18.2313C129.556 18.6137 130.137 19.0266 130.708 19.4549C130.835 19.5644 130.987 19.6397 131.151 19.6736C131.316 19.7075 131.486 19.6989 131.645 19.6486C131.98 19.5513 132.321 19.473 132.665 19.4141C132.751 19.3956 132.832 19.3549 132.898 19.2959C132.964 19.2369 133.014 19.1616 133.042 19.0776C133.281 18.5984 133.551 18.1293 133.75 17.6399C133.872 17.3799 134.132 17.1301 133.75 16.8191C133.592 16.7069 133.786 16.4928 133.867 16.3449C134.194 15.7688 134.52 15.1978 134.856 14.6319C135.014 14.3719 135.024 14.1884 134.713 14.0354C134.204 13.8009 134.504 13.4033 134.586 13.1025C134.688 12.7201 134.958 13.0158 135.147 13.0617C135.209 13.076 135.274 13.0764 135.336 13.0627C135.398 13.0491 135.457 13.0218 135.508 12.9828C135.558 12.9439 135.6 12.8941 135.629 12.8372C135.658 12.7804 135.674 12.7177 135.677 12.6538C135.657 12.4846 135.647 12.3144 135.646 12.144C135.697 11.6597 135.906 11.5628 136.365 11.7361C136.964 11.9755 137.491 12.3674 137.893 12.873C138.097 13.0742 138.342 13.2275 138.612 13.3217C138.643 13.3393 138.678 13.3497 138.713 13.3521C138.749 13.3545 138.785 13.3489 138.818 13.3357C138.851 13.3225 138.881 13.3021 138.906 13.2758C138.93 13.2496 138.948 13.2182 138.959 13.184C138.976 13.1578 138.989 13.1283 138.995 13.0972C139.001 13.0661 139 13.0341 138.994 13.0031C138.987 12.9721 138.974 12.9428 138.956 12.917C138.938 12.8911 138.914 12.8692 138.887 12.8527L138.581 12.6385C138.036 12.2511 138.072 11.7514 138.627 11.3844C138.78 11.2875 138.897 11.3538 139.025 11.415C140.182 11.9248 140.207 12.0216 139.652 13.1789C139.412 13.6888 139.208 14.1986 138.989 14.7084C138.857 15.0092 138.821 15.3763 138.321 15.4527C138.479 15.5649 138.53 15.6159 138.586 15.6465C139.336 16.0339 139.351 16.039 139.03 16.8446C138.913 17.1301 138.969 17.2728 139.249 17.3544C139.621 17.4717 139.616 17.7164 139.489 18.0274C139.28 18.5372 139.111 19.047 138.887 19.5568C138.756 19.8495 138.689 20.1666 138.689 20.4872C138.689 20.8079 138.756 21.125 138.887 21.4177C139.06 21.8408 139.132 22.1977 138.53 22.3558C138.184 22.4475 138.123 22.8044 138.184 23.1103C138.551 24.9508 138.459 26.8269 138.694 28.6725C138.877 29.998 139.305 31.2726 139.601 32.5726C139.647 32.7664 139.728 32.8938 139.962 32.8632C140.411 32.802 140.442 33.0315 140.391 33.4138C140.287 33.8595 140.336 34.327 140.53 34.7412C140.724 35.1555 141.052 35.4924 141.461 35.6978C141.96 35.851 142.45 36.0331 142.928 36.2433C143.948 36.8194 145.115 36.9877 146.154 37.5485C146.677 37.8636 147.276 38.0302 147.887 38.0302C148.498 38.0302 149.097 37.8636 149.62 37.5485C149.991 37.3013 150.445 37.2081 150.884 37.2885C151.413 37.352 151.951 37.2998 152.458 37.1355C154.578 36.5645 156.673 35.8712 158.936 36.0139C159.804 36.0454 160.665 35.8486 161.433 35.4429C162.527 34.8644 163.784 34.6722 165 34.8974C166.077 35.0904 167.188 34.9106 168.15 34.3876C168.963 34.078 169.851 34.0212 170.698 34.2244C171.151 34.2907 171.615 35.1625 171.503 35.6978C171.448 35.9585 171.489 36.2304 171.62 36.4626C172.013 37.3191 172.385 38.1858 172.802 39.0117C173.001 39.4247 172.991 39.6388 172.481 39.756C171.89 39.8886 171.319 40.0976 170.744 40.2659C170.469 40.3325 170.227 40.4915 170.056 40.7162C169.885 40.9409 169.797 41.2175 169.806 41.4996C169.806 41.7647 169.775 41.9024 169.454 41.8616C169.133 41.8208 169.036 42.0502 169.174 42.2644C169.571 42.9016 169.174 43.3605 168.838 43.7938C168.715 43.9043 168.633 44.0526 168.604 44.2152C168.575 44.3779 168.602 44.5454 168.68 44.6911C168.734 44.7734 168.768 44.8677 168.777 44.9659C168.787 45.0641 168.773 45.1632 168.736 45.2546C168.699 45.346 168.64 45.427 168.564 45.4905C168.489 45.554 168.399 45.5981 168.303 45.619C167.793 45.7923 167.722 45.9657 167.946 46.4806C168.544 47.6938 169.245 48.8536 170.04 49.9474C170.728 51.0027 171.432 52.053 172.13 53.1032C172.252 53.2816 172.329 53.5264 172.639 53.3887C172.739 53.3537 172.845 53.3412 172.95 53.3521C173.054 53.3629 173.155 53.3969 173.246 53.4515C173.336 53.5061 173.413 53.58 173.471 53.6678C173.529 53.7557 173.567 53.8554 173.582 53.9597C173.604 54.1528 173.664 54.3397 173.758 54.5094C173.853 54.6792 173.98 54.8285 174.133 54.9488C174.923 55.7186 175.733 56.4782 176.523 57.2379C177.032 57.7171 177.007 57.921 176.416 58.2575C176.013 58.4768 176.09 58.6705 176.319 58.9458C177.338 60.1796 178.271 61.4949 179.524 62.5145C179.642 62.6039 179.778 62.6654 179.923 62.6945C180.068 62.7237 180.217 62.7197 180.36 62.6828C180.523 62.6828 180.707 62.6318 180.788 62.8051C180.87 62.9785 180.707 63.055 180.59 63.1314C180.319 63.315 180.523 63.4067 180.661 63.5189C181.345 64.0882 181.997 64.6959 182.613 65.339C183.087 65.8488 183.092 65.9304 182.613 66.4198C182.509 66.5416 182.412 66.6693 182.322 66.8022C182.266 66.8888 182.22 67.0316 182.098 66.9857C181.481 66.7461 181.227 67.2151 180.992 67.5975C180.697 68.1073 180.187 67.9748 179.779 68.1073C178.281 68.5407 176.721 68.816 175.244 69.3105C174.28 69.6368 173.353 70.0395 172.41 70.4117C171.9 70.6106 171.834 70.5596 171.773 70.0243C171.773 69.9682 171.773 69.9172 171.773 69.8611C171.773 68.8415 171.63 67.8983 170.453 67.5159C170.193 67.4343 170.112 67.1743 170.107 66.8633C170.112 66.2879 169.962 65.7218 169.672 65.2247C169.382 64.7276 168.964 64.3179 168.46 64.0389C168.395 64.0104 168.336 63.9685 168.288 63.9158C168.24 63.8631 168.203 63.8008 168.18 63.733C168.002 63.0805 167.462 62.7134 167.039 62.2393C167.003 62.2036 166.927 62.1781 166.916 62.1373C166.723 61.4286 166.366 61.8161 166.045 62.0098C165.296 62.4636 164.547 62.9071 163.818 63.3813C163.543 63.5597 163.354 63.5699 163.125 63.3252C162.381 62.5401 161.662 61.7141 160.857 60.9953C159.068 59.4097 157.799 57.4265 156.301 55.5911C155.9 55.0742 155.573 54.5047 155.328 53.8985C155.185 53.5824 155.032 53.4601 154.68 53.6487C153.507 54.2851 152.38 55.0023 151.307 55.7951C151.005 55.9975 150.794 56.3106 150.721 56.6669C150.517 58.3442 149.401 59.3842 148.172 60.3376C147.51 60.8743 147.004 61.5784 146.705 62.3769C146.282 63.3965 145.818 64.4162 145.349 65.4002C145.295 65.485 145.257 65.5799 145.239 65.6793C145.222 65.7787 145.224 65.8806 145.246 65.9792C145.267 66.0778 145.308 66.1711 145.366 66.2537C145.424 66.3363 145.498 66.4067 145.584 66.4606C146.292 67.052 146.965 67.6842 147.622 68.3113C147.785 68.4591 147.877 68.5305 148.081 68.3113C148.155 68.2151 148.253 68.139 148.364 68.0898C148.475 68.0406 148.597 68.0199 148.718 68.0295C148.84 68.0391 148.957 68.0787 149.059 68.1448C149.161 68.2109 149.245 68.3014 149.304 68.4081C149.696 68.9995 150.124 69.5654 150.568 70.1262C150.705 70.2996 150.792 70.4474 150.619 70.687C150.411 70.944 150.274 71.251 150.221 71.5774C150.168 71.9039 150.202 72.2384 150.318 72.5479C150.356 72.6477 150.38 72.7524 150.389 72.8589C150.39 73.1977 150.502 73.527 150.707 73.7967C150.912 74.0663 151.2 74.2615 151.526 74.3526C151.747 74.4427 151.943 74.5854 152.097 74.7685C152.25 74.9515 152.357 75.1693 152.407 75.4029C153.309 78.3293 154.487 81.1588 155.465 84.0699C155.724 84.7365 156.039 85.3795 156.408 85.9919C156.786 86.8186 157.04 87.6964 157.162 88.5971C157.3 89.2956 157.529 89.9685 157.713 90.6364C157.769 90.8236 157.814 91.0143 157.845 91.2074C157.874 91.3176 157.874 91.4332 157.845 91.5433C157.816 91.6534 157.76 91.7543 157.681 91.8366C157.603 91.9188 157.504 91.9795 157.396 92.0131C157.287 92.0466 157.172 92.0518 157.06 92.0282C155.898 91.9467 155.898 91.9517 155.409 93.0071C154.92 94.0624 154.344 95.2605 153.829 96.3923C153.758 96.5719 153.642 96.7308 153.494 96.8546C153.345 96.9783 153.168 97.063 152.978 97.101C150.117 97.8309 147.312 98.7663 144.585 99.8999C142.439 100.782 140.258 100.782 138.036 100.547C137.353 100.432 136.679 100.261 136.023 100.038C135.254 99.8234 135.182 99.8438 134.749 100.496C134.316 101.149 134.295 101.169 133.699 100.66C133.358 100.287 132.746 100.445 132.277 100.032Z" fill="#DCE6E9"/>
</svg>
