<svg width="115" height="158" viewBox="0 0 115 158" fill="none" xmlns="http://www.w3.org/2000/svg">
<path fill-rule="evenodd" clip-rule="evenodd" d="M84.699 53.787C88.593 56.092 92.192 58.882 95.406 62.096C100.432 67.124 104.419 73.092 107.139 79.661C109.86 86.229 111.26 93.269 111.26 100.379C111.26 107.489 109.86 114.529 107.139 121.098C104.419 127.666 100.432 133.635 95.406 138.662C90.379 143.69 84.412 147.678 77.845 150.398C71.277 153.119 64.238 154.52 57.13 154.52C50.022 154.52 42.983 153.119 36.415 150.398C29.848 147.678 23.881 143.69 18.854 138.662C13.828 133.635 9.841 127.666 7.121 121.098C4.4 114.529 3 107.489 3 100.379C3 93.269 4.4 86.229 7.121 79.661C9.841 73.092 13.828 67.124 18.854 62.096C22.057 58.893 25.641 56.112 29.52 53.811L57.117 6.00098L84.699 53.787Z" fill="white"/>
<path d="M84.699 53.787L82.101 55.287L82.494 55.968L83.171 56.369L84.699 53.787ZM29.52 53.811L31.05 56.392L31.725 55.991L32.118 55.311L29.52 53.811ZM57.117 6.00098L59.715 4.502L57.117 0L54.518 4.502L57.117 6.00098ZM97.527 59.975C94.135 56.582 90.337 53.638 86.228 51.206L83.171 56.369C86.849 58.546 90.248 61.181 93.284 64.217L97.527 59.975ZM109.911 78.513C107.04 71.58 102.832 65.281 97.527 59.975L93.284 64.217C98.032 68.966 101.798 74.604 104.368 80.808L109.911 78.513ZM114.26 100.379C114.26 92.875 112.782 85.445 109.911 78.513L104.368 80.808C106.937 87.013 108.26 93.663 108.26 100.379H114.26ZM109.911 122.246C112.782 115.313 114.26 107.883 114.26 100.379H108.26C108.26 107.095 106.937 113.745 104.368 119.95L109.911 122.246ZM97.527 140.783C102.832 135.477 107.04 129.178 109.911 122.246L104.368 119.95C101.798 126.155 98.032 131.792 93.284 136.541L97.527 140.783ZM78.993 153.17C85.924 150.298 92.222 146.089 97.527 140.783L93.284 136.541C88.536 141.29 82.9 145.057 76.696 147.627L78.993 153.17ZM57.13 157.52C64.632 157.52 72.061 156.042 78.993 153.17L76.696 147.627C70.493 150.197 63.844 151.52 57.13 151.52V157.52ZM35.267 153.17C42.199 156.042 49.628 157.52 57.13 157.52V151.52C50.416 151.52 43.767 150.197 37.564 147.627L35.267 153.17ZM16.733 140.783C22.038 146.089 28.336 150.298 35.267 153.17L37.564 147.627C31.36 145.057 25.724 141.29 20.976 136.541L16.733 140.783ZM4.349 122.246C7.22 129.178 11.428 135.477 16.733 140.783L20.976 136.541C16.228 131.792 12.462 126.155 9.892 119.95L4.349 122.246ZM0 100.379C0 107.883 1.478 115.313 4.349 122.246L9.892 119.95C7.323 113.745 6 107.095 6 100.379H0ZM4.349 78.513C1.478 85.445 0 92.875 0 100.379H6C6 93.663 7.323 87.013 9.892 80.808L4.349 78.513ZM16.733 59.975C11.428 65.281 7.22 71.58 4.349 78.513L9.892 80.808C12.462 74.604 16.228 68.966 20.976 64.217L16.733 59.975ZM27.989 51.231C23.896 53.659 20.113 56.594 16.733 59.975L20.976 64.217C24.001 61.192 27.387 58.565 31.05 56.392L27.989 51.231ZM32.118 55.311L59.715 7.50101L54.518 4.502L26.921 52.312L32.118 55.311ZM54.518 7.50101L82.101 55.287L87.298 52.287L59.715 4.502L54.518 7.50101Z" fill="#4BE315"/>
</svg>
