<svg width="925" height="735" viewBox="0 0 925 735" fill="none" xmlns="http://www.w3.org/2000/svg">
<g clip-path="url(#clip0_867_275)">
<path d="M224.697 532.074C225.661 629.42 416.29 706.552 513.093 715.673C573.498 721.358 798.319 741.296 818.385 667.31C829.52 626.233 685.639 577.07 685.639 577.07L282.8 490.5C282.8 490.5 224.531 515.24 224.697 532.06V532.074Z" fill="#937DB3"/>
<path d="M693.026 658.562C707.277 661.887 720.011 605.756 687.252 553.171C654.479 500.586 524.035 400.508 522.63 418.004C521.224 435.5 579.245 503.401 599.559 538.407C619.873 573.413 662.514 651.442 693.026 658.562Z" fill="#937DB3"/>
<path d="M727.329 505.747C736.163 524.25 748.043 558.277 750.083 578.657C752.136 599.037 760.984 607.536 765.146 613.235C769.308 618.934 771.375 634.098 782.332 632.028C793.288 629.958 812.183 580.464 800.248 547.721C800.248 547.721 778.804 501.897 791.125 512.894C803.432 523.891 815.904 551.612 821.127 551.101C826.351 550.591 813.892 513.984 804.024 496.723C794.143 479.461 751.461 422.861 747.823 415.051C744.184 407.241 736.356 409.835 731.147 401.198C725.951 392.56 715.449 375.519 701.42 369.889C687.39 364.26 673.966 353.138 666.869 344.294C659.785 335.463 650.689 331.972 641.469 327.556C632.249 323.141 625.675 418.031 641.221 444.634C656.781 471.237 664.443 636.733 667.654 648.834C670.19 658.41 691.717 662.909 703.335 659.017C714.002 655.444 714.016 673.795 723.015 671.988C734.248 669.725 731.533 651.98 732.111 625.902C732.69 599.823 712.61 529.093 712.61 529.093C712.61 529.093 722.161 542.519 727.246 562.388C732.332 582.258 742.2 583.665 739.691 556.662C737.183 529.659 727.329 505.719 727.329 505.719V505.747Z" fill="#937DB3"/>
<path d="M644.405 630.938C646.031 636.223 655.995 621.734 639.967 591.489C613.52 541.539 514.209 421.536 499.793 397.913C485.364 374.291 449.077 303.409 443.275 283.388C437.486 263.367 429.603 225.449 415.601 238.13C401.585 250.797 397.85 293.24 386.329 308.308C374.821 323.375 367.999 337.367 367.985 343.176V348.971C367.985 348.971 359.096 347.605 347.051 369.158C335.006 390.711 328.211 395.926 302.067 417.81C275.923 439.708 255.513 463.703 253.942 467.87C252.37 472.051 234.606 490.472 227.756 513.805C222.244 532.612 225.813 542.753 225.813 542.753C225.813 542.753 227.949 525.092 237.348 516.468C263.809 492.141 300.524 491.893 327.398 531.287C358.104 576.269 338.01 594.635 367.255 621.652C393.33 645.757 401.985 682.557 401.985 682.557C401.985 682.557 399.283 608.019 424.297 647.192C467.324 714.583 514.429 725.856 525.689 697.528C534.289 675.92 506.739 634.774 521.003 629.034C538.437 622.01 564.112 657.279 582.773 671.311C605.595 688.463 626.406 695.955 642.241 696.466C661.756 697.087 633.572 665.668 633.572 665.668C633.572 665.668 652.012 671.532 667.627 682.985C674.724 688.187 680.651 696.852 680.651 696.852C680.651 696.852 672.588 682.985 656.519 667.807C629.603 642.39 620.507 632.414 628.377 633.573C632.07 634.111 636.604 637.961 637.528 636.747C639.333 634.318 614.553 613.966 622.106 612.931C631.381 611.648 641.993 623.238 644.363 630.938H644.405Z" fill="#937DB3"/>
<path d="M418.619 238.82C410.612 244.063 409.179 264.567 413.837 282.008C418.495 299.435 441.138 330.343 458.297 361.596C463.217 370.552 467.792 387.261 475.937 398.631C484.413 410.442 496.527 416.927 504.672 427.221C516.014 441.557 525.138 452.389 526.764 454.017C530.664 457.95 496.582 395.678 492.696 382.901C488.809 370.138 442.916 222.938 418.619 238.834V238.82Z" fill="#4A2E70"/>
<path d="M544.584 602.458C544.584 602.458 556.367 612.738 553.225 619.527C550.083 626.316 557.359 639.907 563.864 645.412C570.383 650.904 576.902 649.096 575.882 642.294C574.848 635.505 582.924 638.444 587.886 639.451C596.1 641.107 597.437 637.313 595.3 636.844C584.771 634.484 578.707 625.777 587.913 625.929C601.227 626.15 574.628 615.125 570.466 611.193C566.304 607.26 544.584 602.445 544.584 602.445V602.458Z" fill="#4A2E70"/>
<path d="M578.239 639.52C573.47 643.066 565.436 640.307 560.267 633.366C555.099 626.412 554.782 617.912 559.537 614.366C564.292 610.82 572.34 613.58 577.495 620.534C582.649 627.474 582.98 635.988 578.225 639.534L578.239 639.52Z" fill="#937DB3"/>
<path d="M566.442 635.823C566.896 636.692 564.443 636.375 561.067 631.504C558.614 627.958 557.856 621.983 558.669 622.066C559.44 622.162 559.303 624.591 560.557 627.364C563.851 634.595 565.739 634.484 566.442 635.823Z" fill="#BFB8C6"/>
<path d="M453.197 531.522C453.197 531.522 475.386 547.1 496.334 560.346C514.526 571.854 544.308 591.806 575.648 607.536C606.987 623.28 630.458 642.901 640.794 652.284C651.116 661.653 663.162 674.416 663.162 674.416C663.162 674.416 623.195 645.261 603.611 635.809C596.982 632.608 583.269 636.237 580.83 626.95C579.989 623.749 574.173 619.251 570.99 617.595C567.406 615.719 562.252 614.435 558.379 615.456C552.426 617.016 547.919 605.798 542.393 600.168C537.596 595.283 513.52 577.014 491.014 559.38C476.571 548.066 462.004 538.6 453.211 531.536L453.197 531.522Z" fill="#4A2E70"/>
<path d="M460.116 509.803C460.116 509.803 466.207 505.54 492.82 492.818C516.304 481.6 524.476 478.385 523.925 475.639C523.388 472.893 513.603 474.439 508.903 476.784C504.203 479.13 472.836 487.519 463.851 490.596C449.614 495.467 441.524 496.06 427.095 474.37C412.652 452.679 387.569 403.309 378.735 385.136C367.627 362.259 367.985 348.999 367.985 348.999C367.985 348.999 343.164 364.163 364.237 396.865C374.132 412.222 396.775 433.196 402.894 445.214C419.157 477.198 418.219 489.686 426.654 498.958C444.708 518.8 469.97 493.88 460.116 509.817V509.803Z" fill="#4A2E70"/>
<path d="M383.324 528.431C383.324 528.431 392.627 566.197 394.515 590.84C396.389 615.484 396.61 651.18 393.343 645.771C388.478 637.699 382.856 607.647 384.964 585.638C387.073 563.616 383.324 528.445 383.324 528.445V528.431Z" fill="#4A2E70"/>
<path d="M446.251 584.962C442.682 589.929 445.728 620.092 446.155 634.815C446.472 645.757 449.518 665.875 464.237 682.447C465.27 683.606 464.347 676.927 458.917 668.234C452.467 657.913 452.302 647.689 457.139 646.861C462.541 645.936 470.507 666.661 469.363 662.839C466.483 653.332 459.344 638.403 456.036 625.101C451.103 605.218 451.199 578.104 446.265 584.962H446.251Z" fill="#4A2E70"/>
<path d="M484.303 580.974C494.653 583.058 505.085 600.734 504.272 625.75C503.459 650.766 508.71 681.536 492.034 648.489C475.358 615.442 478.501 579.802 484.316 580.974H484.303Z" fill="#4A2E70"/>
<path d="M696.431 655.885C696.431 655.885 694.928 660.19 679.259 645.274C663.603 630.345 639.071 599.726 621.486 567.163C603.9 534.599 564.54 474.549 546.169 450.995C527.798 427.442 514.457 421.177 522.643 412.664C530.816 404.15 515.684 392.711 508.173 393.056C500.675 393.401 501.351 410.925 501.351 410.925C501.351 410.925 517.641 426.641 518.192 441.916C518.729 457.204 528.459 466.159 551.158 484.318C590.739 515.944 608.352 555.765 610.378 572.627C612.404 589.488 621.334 581.899 631.725 597.67C642.117 613.442 642.241 631.504 646.114 633.049C649.972 634.608 653.211 622.852 661.728 636.402C670.232 649.966 666.759 657.003 679.245 658.99C691.745 660.977 701.557 656.741 696.444 655.885H696.431Z" fill="#4A2E70"/>
<path d="M528.473 430.74C524.821 426.628 528.969 423.247 534.441 424.972C539.926 426.683 573.939 456.542 595.397 486.76C616.855 516.978 663.327 569.329 672.685 587.694C682.042 606.074 683.558 632.318 685.901 636.443C688.244 640.583 707.373 667.959 719.942 644.322C732.511 620.686 725.482 613.732 722.009 587.805C718.536 561.878 705.706 517.958 689.333 486.167C672.96 454.39 657.456 415.299 655.265 406.537C653.073 397.776 651.061 388.02 641.331 388.241C631.601 388.462 637.817 371.559 599.876 381.48C561.935 391.428 498.594 383.425 505.954 399.928C513.313 416.431 522.574 438.784 522.574 438.784L528.473 430.74Z" fill="#4A2E70"/>
<path d="M677.963 496.336C677.963 496.336 668.178 484.166 662.528 477.888C656.891 471.596 646.293 459.44 646.32 453.562C646.362 447.684 647.905 428.877 641.262 422.971C632.098 414.816 631.918 430.395 618.826 422.93C605.719 415.451 617.489 401.805 611.659 398.162C605.83 394.519 625.827 369.558 634.165 393.319C642.503 417.093 651.24 438.273 662.087 453.189C672.933 468.105 684.234 490.072 687.748 501.442C691.249 512.811 702.164 530.873 700.992 532.046C699.807 533.219 679.589 498.323 677.963 496.336Z" fill="#937DB3"/>
<path d="M787.059 619.485C783.834 626.978 765.146 616.822 758.931 590.164C752.729 563.506 737.665 524.278 725.193 501.786C712.707 479.281 678.39 416.513 673.718 407.876C669.046 399.238 660.323 379.41 665.215 380.183C670.121 380.955 669.542 403.419 704.961 443.213C740.38 482.993 778.115 550.825 786.632 576.117C794.143 598.443 790.215 612.186 787.059 619.485Z" fill="#4A2E70"/>
<path d="M680.761 227.836C677.15 244.574 672.712 264.305 670.741 273.288C669.17 280.518 669.143 292.619 663.892 308.28C658.641 323.941 643.964 355.277 640.284 363.625C636.618 371.973 620.865 414.789 570.245 414.692C515.435 414.582 490.656 381.259 466.8 352.131C440.628 320.188 436.37 291.612 436.411 271.742C436.453 251.887 430.733 243.001 421.858 240.365C412.996 237.73 412.569 232.542 412.279 224.414C411.935 214.894 401.585 197.991 401.075 189.629C401.075 189.629 395.921 157.741 401.158 150.953C406.395 144.164 411.632 146.937 414.181 147.489C421.72 149.104 418.812 149.476 419.997 125.385C420.741 110.206 427.439 62.1749 458.807 35.5857C490.187 9.01027 524.669 -4.49819 574.242 1.35226C623.815 7.20271 664.485 29.749 685.24 84.1416C706.009 138.534 686.508 200.778 684.978 207.594C684.22 211.03 682.47 219.916 680.761 227.836Z" fill="#DED8E3"/>
<path d="M517.999 178.673C513.961 178.673 519.294 169.139 524.6 162.874C529.92 156.61 536.067 149.407 513.933 141.68C463.01 123.936 464.154 50.2808 531.174 43.3403C597.933 36.4273 565.229 0.469162 532.897 8.07199C504.231 14.8055 477.026 37.7796 471.472 56.3106C463.175 84.0726 461.811 181.35 477.412 192.816C493.013 204.283 515.311 192.899 515.311 192.899L521.816 182.73L517.985 178.66L517.999 178.673Z" fill="#BFB8C6"/>
<path d="M489.994 56.3658C506.312 39.3526 547.547 41.1601 540.367 24.685C533.186 8.20995 551.144 3.75312 576.199 4.66381C586.218 5.03636 596.251 6.85772 604.314 8.78948C614.361 11.1904 614.305 10.5832 602.839 7.29927C591.759 4.13947 576.53 0.855495 559.44 0.165583C505.127 -2.01454 491.662 19.8971 484.62 24.5746C477.563 29.266 490.008 56.3658 490.008 56.3658H489.994Z" fill="#BFB8C6"/>
<path d="M590.78 298.856C583.972 299.532 573.76 292.936 577.122 279.428C580.471 265.906 583.049 251.224 581.505 241.428C579.948 231.617 581.546 221.627 589.567 222.041C597.588 222.441 597.63 231.065 598.071 239.689C598.512 248.313 598.098 260.193 598.856 268.458C599.628 276.724 598.443 282.753 600.979 281.994C603.514 281.236 603.528 274.571 606.078 274.585C608.627 274.585 613.106 280.739 613.299 283.747C613.492 286.755 613.479 292.454 612.5 294.592C611.535 296.717 612.817 299.297 617.434 305.189C622.065 311.081 620.659 326.204 610.846 333.421C601.047 340.623 636.797 371.669 649.021 332.303C655.554 311.261 667.42 297.407 669.06 284.892C670.204 276.227 672.354 266.113 673.594 260.373C675.358 252.177 680.099 231.866 684.192 211.265C686.163 201.358 689.912 190.567 690.863 182.744C693.688 159.494 697.754 120.583 688.368 93.4693C678.983 66.3695 654.741 35.9169 648.222 30.4114C641.717 24.9059 632.483 19.4418 632.483 19.4418C632.483 19.4418 638.795 24.1746 641.676 26.9618C680.444 64.424 689.774 98.7816 681.257 134.823C678.349 147.131 667.227 160.432 656.119 161.508C648.456 162.253 652.508 172.133 658.641 176.838C670.921 186.276 665.16 198.239 651.599 196.266C638.037 194.293 640.89 198.225 625.496 200.281C616.648 201.468 607.166 200.185 604.396 197.122C602.329 194.817 601.874 193.479 601.654 192.416C601.213 190.25 599.614 190.968 599.063 194.431C598.456 198.267 595.824 204.269 587.128 201.758C581.464 200.13 582.704 194.969 582.125 194.321C581.119 193.217 582.663 197.48 575.717 200.102C573.746 200.847 571.555 205.235 569.363 207.332C547.657 228.057 548.098 233.245 557.787 233.811C567.475 234.363 569.804 243.263 567.172 253.446C564.54 263.629 554.162 266.637 548.594 275.62C543.04 284.602 539.126 290.908 539.126 290.908C539.126 290.908 555.265 276.696 561.384 277.096C567.503 277.51 569.005 282.022 569.708 285.844C570.424 289.666 563.961 293.406 558.999 292.081C554.038 290.77 561.08 294.772 570.204 296.979C579.341 299.187 587.679 304.486 595.769 303.92C603.859 303.354 607.098 297.959 607.098 297.959C607.098 297.959 605.182 296.165 600.744 297.035C596.307 297.904 596.858 298.207 590.752 298.801L590.78 298.856Z" fill="#BFB8C6"/>
<path d="M532.828 316.407C524.959 315.828 531.974 303.009 539.126 295.696C546.293 288.383 549.904 289.128 551.681 293.958C553.445 298.773 551.792 293.668 552.825 285.83C553.873 277.993 546.872 282.712 540.725 287.376C531.477 294.413 526.461 298.608 513.988 296.8C504.617 295.434 507.608 307.535 518.04 315.842C528.473 324.148 532.828 316.407 532.828 316.407Z" fill="#937DB3"/>
<path d="M420.011 125.398C418.936 140.549 421.031 148.938 416.014 146.661C413.644 145.585 406.395 144.178 401.158 150.966C395.921 157.755 401.075 189.643 401.075 189.643C401.585 198.005 412.045 214.894 412.279 224.428C412.472 232.224 412.982 239.317 421.844 241.952C430.719 244.587 434.992 251.914 434.84 271.756C434.647 295.186 441.097 325.597 462.858 350.723C489.884 381.935 515.435 414.582 570.245 414.692C620.879 414.802 636.618 371.987 640.284 363.625C643.95 355.277 658.627 323.941 663.892 308.28C669.143 292.619 669.17 280.504 670.741 273.288C670.99 272.17 671.265 270.887 671.582 269.479C670.741 273.288 669.005 277.262 666.993 279.221C653.28 292.523 657.649 299.863 645.424 303.672C635.198 306.859 628.955 295.144 625.813 296.179C622.685 297.214 629.961 310.819 615.311 326.466C601.668 341.051 562.941 304.651 534.992 317.58C532.938 318.518 523.222 318.38 521.568 303.892C520.99 298.746 520.245 297.338 514.898 296.91C503.886 296.027 499.311 285.803 502.136 279.318C504.975 272.832 505.609 267.493 498.319 265.657C483.71 261.973 471.072 242.601 481.891 230.568C483.366 228.926 486.287 228.83 488.961 228.526C491.993 228.181 490.256 224.318 493.109 223.656C497.671 222.579 501.709 225.091 503.418 227.133C509.33 234.253 529.383 241.124 537.238 239.579C545.094 238.033 557.07 231.258 567.489 234.418C577.922 237.578 577.357 262.649 577.357 262.649C577.357 262.649 580.485 254.564 579.686 246.45C579.217 241.773 578.873 231.81 579.396 228.154C579.7 226.056 580.775 221.199 582.952 220.109C585.088 219.047 581.477 218.095 580.113 212.893C578.225 205.676 580.623 196.804 580.623 196.804C580.623 196.804 575.868 200.764 567.503 200.337C556.974 199.798 546.692 194.127 539.347 191.492C532.001 188.87 519.101 181.171 519.101 181.171C519.101 181.171 518.853 186 511.714 185.986C508.159 185.986 505.458 187.297 502.577 188.18C495.976 190.181 492.448 188.346 493.467 184.62C495.039 178.88 520.783 168.338 524.311 159.604C526.13 155.106 527.453 150.249 515.987 145.475C489.54 134.478 473.567 115.491 473.608 91.4547C473.649 72.8409 487.404 49.6185 518.095 42.9539C537.335 38.7731 529.465 26.9894 513.575 22.0358C509.633 20.8078 508.255 15.4679 512.293 10.8041C515.918 6.62319 524.793 3.00806 524.793 3.00806L517.241 4.18091C493.922 9.43803 477.426 19.8281 458.807 35.6133C427.439 62.2025 421.072 110.262 419.997 125.412L420.011 125.398Z" fill="#937DB3"/>
<path d="M436.894 239.786C438.341 235.356 439.65 231.7 441.841 224.47C443.536 218.868 446.513 204.807 447.671 189.767C448.953 173.03 432.359 163.964 422.685 154.858C415.187 147.807 412.638 157.728 417.31 164.999C436.012 194.017 412.955 187.201 419.088 197.522C421.141 200.985 414.884 210.285 419.294 215.294C426.709 223.738 419.804 222.234 417.958 230.389C417.2 233.756 419.625 237.15 423.029 236.736C426.612 236.295 429.093 233.149 430.678 233.88C432.842 234.887 433.076 240.779 433.297 242.38C433.682 245.126 435.543 243.953 436.907 239.786H436.894Z" fill="#4A2E70"/>
<path d="M570.604 354.214C534.964 354.145 506.036 369.02 505.995 387.454C505.995 390.269 506.67 393.001 507.924 395.609C524.201 406.993 543.812 414.623 570.245 414.678C605.265 414.747 623.594 394.284 632.787 378.899C625.331 364.729 600.331 354.27 570.59 354.214H570.604Z" fill="#4A2E70"/>
<path d="M580.237 373.656C574.256 373.325 566.676 363.183 549.449 364.742C530.954 366.426 526.75 379.106 526.737 386.999C526.737 389.358 527.219 391.649 528.101 393.843C539.65 403.391 553.597 409.794 572.368 409.835C597.244 409.89 615.132 388.186 611.397 378.817C606.588 366.729 600.951 374.829 580.237 373.656Z" fill="#937DB3"/>
<path d="M581.601 377.395C587.858 377.795 598.58 371.738 601.957 377.437C605.334 383.135 599.821 399.583 578.17 397.982C556.519 396.368 554.727 378.858 560.212 374.429C565.697 369.999 574.035 376.912 581.601 377.395Z" fill="#BFB8C6"/>
<path d="M517.999 178.673C517.999 178.673 525.152 178.204 532.525 182.192C535.267 183.682 534.647 185.338 537.845 186.662C543.233 188.884 547.051 187.242 547.051 187.242C547.051 187.242 545.866 188.649 547.189 189.864C549.022 191.533 551.75 191.147 551.75 191.147C551.75 191.147 549.283 192.954 555.182 194.293C563.106 196.087 560.695 197.729 564.181 198.598C572.781 200.723 577.439 198.626 577.439 198.626C577.439 198.626 575.799 204.338 540.794 199.053C518.275 195.659 508.062 196.294 503.914 197.894C499.766 199.495 514.319 188.18 516.524 186.042C518.991 183.641 520.121 180.467 518.013 178.673H517.999Z" fill="#937DB3"/>
<path d="M440.008 204.462C440.008 204.462 438.41 187.09 434.523 176.107C430.637 165.123 422.12 152.001 419.777 149.642C417.434 147.282 415.849 146.551 415.821 133.208C415.794 113.09 424.173 77.0769 432.938 62.437C450.662 32.826 468.219 20.6974 499.338 7.71324C511.108 2.80107 530.54 -0.055164 526.557 2.16635C523.332 3.96012 509.771 7.74083 506.877 18.4483C503.983 29.1557 527.302 26.0373 506.312 39.3526C492.916 47.8523 484.44 53.9925 476.778 62.0231C469.06 70.1088 463.093 80.6783 459.482 96.4772C455.871 112.318 456.56 122.073 459.675 131.483C462.789 140.894 465.656 144.302 458.062 150.815C450.482 157.327 448.76 166.2 448.608 176.659C448.36 195.838 440.008 204.462 440.008 204.462Z" fill="#937DB3"/>
<path d="M440.008 204.462C440.008 204.462 438.41 187.09 434.523 176.107C430.637 165.123 422.12 152.001 419.777 149.642C417.434 147.282 418.605 144.343 418.592 131.014C418.564 110.896 429.245 76.2767 437.996 61.6367C455.719 32.0257 468.371 23.0569 499.49 10.059C511.26 5.14678 530.54 -0.0551498 526.557 2.15257C523.332 3.94634 509.771 7.72705 506.877 18.4345C503.983 29.1419 527.302 26.0235 506.312 39.3388C492.916 47.8385 484.44 53.9787 476.778 62.0093C469.06 70.0951 463.093 80.6645 459.482 96.4635C455.871 112.304 456.56 122.059 459.675 131.47C462.789 140.88 465.656 144.288 458.062 150.801C450.482 157.314 448.76 166.186 448.608 176.645C448.36 195.825 440.008 204.448 440.008 204.448V204.462Z" fill="#4A2E70"/>
<path d="M591.4 155.009C574.228 154.071 526.709 134.643 522.354 101.969C517.475 65.4037 565.091 66.1212 598.415 73.2411C631.739 80.3748 662.831 87.6464 656.974 115.436C652.122 138.452 636.273 157.452 591.386 155.009H591.4Z" fill="#E8E6EB"/>
<path d="M627.894 301.671C627.894 301.671 637.252 318.67 638.534 327.556C639.815 336.442 640.821 354.739 638.465 358.119C636.108 361.514 637.583 369.751 637.583 369.751C637.583 369.751 648.663 345.315 652.867 335.518C657.07 325.721 662.638 312.199 663.878 308.266C665.105 304.334 666.938 297.2 666.938 297.2C666.938 297.2 661.521 311.136 652.908 313.468C644.294 315.8 636.99 315 627.88 301.657L627.894 301.671Z" fill="#4A2E70"/>
<path d="M623.994 294.606C623.994 294.606 624.27 288.342 619.584 284.147C614.898 279.952 610.998 272.901 610.998 272.901C610.998 272.901 613.134 277.455 614.016 282.643C614.884 287.762 614.085 291.722 614.085 291.722C614.085 291.722 615.408 284.671 619.046 287.555C622.698 290.439 623.994 294.62 623.994 294.62V294.606Z" fill="#4A2E70"/>
<path d="M600.014 193.893C600.014 193.893 599.917 202.724 604.534 204.821C606.147 205.552 606.753 205.635 610.088 205.483C631.436 204.448 635.97 198.777 647.423 198.501C652.439 198.391 655.499 201.027 660.198 202.13C664.898 203.234 668.275 206.38 665.656 214.466C663.024 222.566 663.547 225.436 657.8 225.946C652.053 226.457 650.744 229.065 646.045 234.542C641.331 240.02 630.099 242.601 624.366 241.814C618.633 241.014 620.976 244.16 623.319 246.768C625.662 249.389 625.124 254.867 617.31 248.065C609.496 241.248 611.025 236.571 605.83 234.749C600.854 232.997 595.948 226.07 600.923 221.131C602.825 219.24 602.467 218.564 601.557 217.267C600.965 216.439 597.698 216.619 598.705 214.411C599.421 212.838 600.041 208.988 600.289 205.111C600.717 198.363 599.655 196.059 600.014 193.865V193.893Z" fill="#937DB3"/>
<path d="M603.404 210.175C601.516 208.684 605.361 213.348 604.603 220.689C604.231 224.318 620.411 228.526 634.633 225.932C648.856 223.338 651.695 215.998 653.239 218.647C654.782 221.296 658.117 227.864 660.474 218.661C662.845 209.457 669.336 207.512 658.365 205.925C647.395 204.338 643.867 206.477 634.868 205.676C625.868 204.876 619.322 204.642 613.823 208.546C608.875 212.051 607.111 213.1 603.404 210.175Z" fill="#4A2E70"/>
<path d="M628.046 232.059C635.846 233.121 652.632 226.208 648.732 218.619C644.832 211.03 633.338 215.046 625.248 213.542C617.172 212.024 609.757 221.958 612.665 224.828C615.573 227.698 619.653 230.913 628.046 232.059Z" fill="#BFB8C6"/>
<path d="M404.327 156.486C408.917 155.892 413.851 162.681 417.089 168.959C420.328 175.238 428.39 183.116 429.906 188.015C431.422 192.913 430.196 199.357 431.726 200.543C433.242 201.716 426.585 195.438 424.669 199.15C422.754 202.875 425.221 208.215 423.512 208.767C421.789 209.333 422.092 199.164 418.109 195.783C413.079 191.506 407.552 183.572 413.23 181.323C419.791 178.729 412.831 167.635 408.917 169.497C406.505 170.643 404.3 173.83 404.286 180.495C404.272 187.159 406.739 194.114 409.592 197.894C412.445 201.675 415.684 206.09 414.154 208.781C412.624 211.472 408.572 208.381 406.533 203.552C404.493 198.722 402.136 193.299 401.24 185.158C400.331 177.018 397.657 157.355 404.341 156.486H404.327Z" fill="#4A2E70"/>
<path d="M410.46 152.926C413.299 152.65 416.965 149.366 410.901 148.593C406.092 147.972 405.513 153.409 410.46 152.926Z" fill="#BFB8C6"/>
<path d="M625.855 408.786C625.855 408.786 629.052 399.652 637.128 401.487C645.204 403.336 662.128 398.244 663.01 377.561C663.837 358.174 655.761 344.307 654.203 343.521C652.632 342.734 642.806 327.556 625.62 319.484C612.831 313.482 607.194 300.512 586.439 299.808C565.684 299.104 549.077 306.942 546.458 310.101C543.826 313.261 537.128 318.049 528.707 315.841C519.253 313.372 503.487 330.688 503.79 354.049C504.093 377.423 523.36 396.796 523.898 390.255C524.435 383.729 519.418 363.597 546.348 360.52C573.277 357.443 611.149 350.461 619.184 368.771C627.233 387.082 617.875 398.921 625.841 408.759L625.855 408.786Z" fill="#EAE8ED"/>
<path d="M625.854 408.786C625.854 408.786 629.052 398.244 637.142 400.08C645.218 401.929 662.142 398.258 663.024 377.561C663.851 358.174 655.775 344.307 654.217 343.521C652.646 342.734 642.82 327.556 625.634 319.484C612.845 313.482 607.208 300.512 586.453 299.808C565.697 299.104 549.09 306.942 546.472 310.101C543.84 313.261 537.142 318.049 528.721 315.841C519.267 313.372 503.501 330.688 503.804 354.049C504.107 377.423 523.374 396.796 523.911 390.255C524.449 383.729 519.432 363.597 546.362 360.52C573.291 357.443 611.163 350.461 619.198 368.771C627.246 387.082 617.889 398.921 625.854 408.759V408.786Z" fill="#937DB3"/>
<path d="M493.481 334.842C503.859 320.229 518.054 315.842 518.054 315.842C518.054 315.842 520.562 321.25 512.817 326.521C505.072 331.779 501.557 340.347 502.467 343.479C503.377 346.612 513.837 334.621 513.837 334.621C513.837 334.621 506.243 343.645 506.243 349.84C506.243 356.036 508.558 377.202 498.112 373.794C487.665 370.372 484.564 356.408 484.578 352.545C484.592 348.681 486.315 344.956 493.481 334.856V334.842Z" fill="#4A2E70"/>
<path d="M623.498 390.269C621.058 401.598 625.482 406.468 625.482 406.468C625.482 406.468 622.781 402.012 629.493 398.962C633.669 397.072 636.094 401.004 642.53 401.018C648.953 401.018 656.422 390.821 656.422 390.821L651.227 392.118C651.227 392.118 653.308 391.346 656.422 387.165C659.537 382.998 657.773 377.492 652.811 385.592C647.836 393.677 641.304 393.153 641.304 393.153C641.304 393.153 644.694 391.856 650.193 384.281C653.9 379.175 655.458 373.974 656.078 371.104C655.306 372.194 653.501 373.56 649.435 374.87C640.56 377.727 649.449 365.198 649.449 365.198C649.449 365.198 646.568 369.117 641.607 373.546C636.632 377.975 634.289 379.534 634.289 379.534C634.289 379.534 635.598 376.926 636.907 374.581C638.217 372.235 643.977 366.233 647.285 359.706C649.352 355.649 647.478 352.931 645.769 351.455C643.343 356.809 641.345 361.183 640.27 363.611C638.437 367.778 634.137 378.555 623.47 390.255L623.498 390.269Z" fill="#4A2E70"/>
<path d="M641.924 358.92C639.567 364.397 634.592 371.448 634.592 371.448L636.205 352.848C636.205 352.848 634.606 364.66 630.43 371.186C626.24 377.713 627.77 371.186 627.77 371.186C627.77 371.186 624.421 370.91 627.77 366.743C631.119 362.576 632.056 358.381 632.056 358.381C632.056 358.381 626.516 363.597 625.965 358.381C625.413 353.152 627.067 348.971 627.825 341.161C628.569 333.338 623.939 328.853 623.939 328.853C623.939 328.853 626.061 332.261 626.02 337.753C625.965 343.231 623.677 352.641 622.368 354.725C621.058 356.808 620.535 355.76 620.645 351.841C620.741 347.922 620.659 344.004 620.659 344.004C620.659 344.004 618.206 345.825 617.393 341.134C616.566 336.442 615.367 335.366 614.829 341.134C614.292 346.901 610.846 350.061 610.846 350.061C610.846 350.061 610.378 346.06 610.874 338.747C611.356 331.433 608.6 328.025 608.6 328.025C608.6 328.025 608.586 329.736 608.6 333.407C608.6 337.077 605.444 343.962 605.444 343.962C605.444 343.962 606.229 341.617 605.471 333.407C604.7 325.197 597.933 324.617 597.933 324.617C597.933 324.617 598.388 328.508 597.905 335.076C597.423 341.63 596.045 346.046 596.045 346.046C596.045 346.046 592.668 339.505 591.373 333.393C590.091 327.266 586.687 326.963 586.149 333.393C585.612 339.809 581.698 340.016 581.712 333.393C581.712 326.756 579.107 330.882 578.06 333.393C577.012 335.904 576.488 339.243 576.488 339.243C576.488 339.243 573.884 336.622 574.104 325.652C574.325 314.682 569.735 321.72 569.983 326.425C570.232 331.13 568.399 336.608 568.399 336.608C568.399 336.608 566.579 332.938 565.808 328.494C565.036 324.051 565.821 321.444 565.821 321.444C565.821 321.444 563.975 326.921 563.975 332.151C563.975 337.381 562.845 344.431 562.845 344.431L561.094 336.58C561.094 336.58 560.047 337.877 559.509 343.107C558.972 348.336 555.83 353.814 555.83 353.814C555.83 353.814 554.286 347.536 554.548 342.845C554.824 338.139 554.562 335.794 554.562 335.794C554.562 335.794 550.372 342.306 550.096 348.06C549.821 353.814 543.812 358.23 543.812 358.23C543.812 358.23 544.598 355.884 544.873 352.683C545.135 349.495 546.403 343.604 546.403 343.604C546.403 343.604 540.697 348.033 540.436 352.683C540.16 357.333 537.031 359.265 537.031 359.265C537.031 359.265 537.845 345.949 540.739 335.242C543.633 324.534 549.118 319.581 546.458 320.878C543.784 322.175 540.229 326.618 537.61 331.309C534.992 336.014 533.669 340.982 533.669 340.982L537.858 335.752C537.858 335.752 534.179 344.887 533.531 349.923C532.883 354.959 527.384 354.546 527.384 351.662C527.384 348.778 528.707 342.527 528.707 342.527C528.707 342.527 534.992 329.998 537.886 323.472C540.766 316.945 546.458 317.483 546.458 317.483C546.458 317.483 546.513 314.876 543.385 314.862C540.256 314.862 535.281 318.505 535.006 322.423C534.73 326.342 532.387 331.571 528.211 332.344C524.035 333.117 531.105 320.588 531.105 320.588C531.105 320.588 526.392 326.59 523.773 332.33C521.155 338.07 518.013 343.811 512.776 347.978C507.552 352.145 509.137 344.321 512.789 338.567C516.455 332.827 516.18 340.927 516.18 340.927C516.18 340.927 522.202 328.398 521.747 326.825C521.293 325.252 517.503 327.86 512.803 333.227C508.09 338.595 503.638 349.771 503.363 358.395C503.087 367.019 502.811 373.021 498.456 371.448C494.101 369.875 491.648 344.804 483.724 335.752C480.003 331.516 463.809 374.636 501.64 397.472C522.616 410.139 546.582 414.664 570.273 414.706C575.028 414.706 579.479 414.347 583.627 413.657C576.282 414.526 567.475 414.485 557.015 412.843C514.746 406.22 526.792 390.573 526.309 381.687C525.827 372.801 536.494 367.336 536.494 367.336C536.494 367.336 534.385 373.339 538.975 383.011C543.564 392.684 553.652 396.63 553.652 396.63C553.652 396.63 552.095 394.271 549.752 391.401C547.409 388.531 546.114 381.728 548.222 371.283C549.6 364.48 558.269 362.452 568.412 361.928C573.829 361.638 576.185 363.238 585.033 363.432C591.235 363.57 594.487 361.886 600.841 362.88C607.139 363.873 611.191 365.074 612.376 366.716C620.59 377.961 612.335 387.882 612.335 387.882C612.335 387.882 622.271 368.247 624.063 384.584C624.325 386.916 623.401 389.814 623.153 392.229C633.82 380.514 638.478 367.806 640.311 363.639C641.386 361.21 643.385 356.836 645.81 351.482C644.763 350.585 643.784 350.144 643.784 350.144C643.784 350.144 644.308 353.469 641.938 358.947L641.924 358.92Z" fill="#4A2E70"/>
<path d="M543.054 339.119C543.054 339.119 548.029 330.771 552.991 325.818C557.966 320.864 554.286 332.482 554.286 332.482C554.286 332.482 557.166 324.783 560.309 321.126C563.451 317.47 562.858 321.126 562.858 321.126L562.886 329.322C562.886 329.322 563.851 320.519 571.389 320.85C578.942 321.168 577.012 321.678 576.998 324.81C576.985 327.942 575.937 329.35 575.937 329.35L580.333 321.733V329.35L585.212 323.72L589.154 327.694C589.154 327.694 589.802 324.3 591.111 321.954C592.42 319.608 593.977 319.553 593.977 319.553C593.977 319.553 596.61 320.671 597.891 326.935C599.173 333.213 604.934 330.868 602.977 324.327C601.02 317.801 597.63 314.655 601.034 314.669C604.424 314.669 607.042 315.979 607.277 320.947C607.525 325.914 607.277 326.949 607.277 326.949C607.277 326.949 611.976 314.682 607.428 312.323C602.88 309.963 602.177 307.149 603.032 305.258C603.886 303.368 605.885 302.167 605.885 302.167C605.885 302.167 589.057 308.625 582.539 305.217C576.02 301.809 577.136 298.332 571.334 296.993C565.532 295.655 551.723 292.605 551.723 292.605C551.723 292.605 552.288 299.394 556.202 302.016C560.116 304.637 550.455 307.383 548.098 313.054C545.728 318.725 545.645 323.568 545.645 323.568C545.645 323.568 549.807 315.607 551.681 317.953C553.556 320.312 544.653 333.351 543.082 339.091L543.054 339.119Z" fill="#4A2E70"/>
<path d="M593.784 292.978C597.326 291.046 596.169 275.426 590.959 273.329C585.75 271.232 582.07 283.678 583.6 289.818C584.716 294.261 590.118 294.979 593.798 292.978H593.784Z" fill="white"/>
<path d="M552.577 401.846C552.577 401.846 541.125 402.867 536.163 391.621C533.82 386.323 534.537 379.92 534.537 379.92C534.537 379.92 535.074 385.605 539.774 391.318C543.302 395.609 548.994 399.928 552.577 401.846Z" fill="#4A2E70"/>
<path d="M535.143 247.582C533.572 247.43 549.339 247.306 553.57 240.572C557.8 233.839 561.783 233.921 565.325 234.68C573.746 236.488 575.758 247.085 574.848 239.041C573.939 231.01 572.368 227.629 576.502 224.028C580.637 220.427 575.786 211.417 575.799 205.814C575.799 202.806 578.611 201.302 578.611 201.302C578.611 201.302 571.072 204.724 566.51 201.275C560.185 196.501 555.416 197.798 542.861 200.005C529.493 202.365 524.476 192.278 521.844 191.63C512.293 189.243 520.783 186.538 512.9 189.422C500.634 193.893 519.074 200.088 505.871 203.979C497.602 206.408 490.752 209.029 489.498 213.1C488.782 215.432 490.146 216.025 488.175 216.135C486.866 216.204 485.736 216.218 484.868 216.218C482.608 216.218 486.577 220.523 492.365 220.841C502.15 221.393 504.658 229.713 507.401 233.369C511.659 239.013 519.942 240.531 529.314 241.138C538.671 241.731 546.637 235.398 546.624 238.599C546.61 245.346 535.157 247.595 535.157 247.595L535.143 247.582Z" fill="#4A2E70"/>
<path d="M505.141 204.6C497.726 204.918 491.497 207.415 491.497 207.415C491.497 207.415 498.539 190.774 509.716 188.58C520.287 186.511 520.108 180.467 520.108 180.467C520.108 180.467 520.879 182.219 518.716 186.994C516.221 192.485 524.311 190.664 526.929 194.376C528.321 196.349 525.744 199.095 521.403 202.696C514.429 208.477 514.181 204.214 505.141 204.6Z" fill="#4A2E70"/>
<path d="M545.383 221.544C548.167 218.054 547.974 209.719 534.206 210.023C520.438 210.34 518.619 222.552 526.612 225.229C534.854 227.988 540.863 227.216 545.383 221.544Z" fill="#BFB8C6"/>
<path d="M566.497 230.596C566.497 230.596 567.489 226.056 570.824 224.028C574.159 222 582.07 207.801 570.08 203.303C558.09 198.805 551.819 199.605 543.33 202.13C534.84 204.655 521.32 210.906 517.406 210.892C513.492 210.892 515.256 206.38 515.256 206.38C515.256 206.38 509.372 214.273 503.101 216.287C502.412 216.508 501.709 216.701 501.006 216.881C495.328 218.288 489.595 218.274 489.595 218.274C489.595 218.274 497.381 218.688 504.052 220.261C510.722 221.848 511.673 225.504 512.845 227.933C514.016 230.361 521.844 238.323 525.193 232.459C527.081 229.147 525.331 227.491 522.63 225.146C518.288 221.393 519.322 215.377 521.362 217.391C523.208 219.226 524.008 221.641 527.77 222.276C532.47 223.062 537.555 221.944 540.105 217.322C542.654 212.7 540.05 210.933 543.316 210.933C546.582 210.933 550.675 218.398 549.104 221.917C547.533 225.435 543.288 226.415 543.288 226.415C543.288 226.415 552.343 225.808 555.609 221.917C558.862 218.026 567.723 213.514 566.51 230.568L566.497 230.596Z" fill="#4A2E70"/>
<path d="M623.263 229.768C623.263 229.768 616.235 226.857 615.477 223.766C615.119 222.345 615.284 221.296 615.877 220.192C616.759 218.578 618.261 218.371 619.239 220.73C620.218 223.076 621.872 226.084 628.06 226.084C634.234 226.084 637.555 221.448 637.776 216.591C637.913 213.555 646.003 215.735 646.775 217.571C647.547 219.406 647.189 220.841 646.555 222.828C645.576 225.919 638.189 229.161 638.189 229.161C638.189 229.161 642.337 228.002 646.058 225.408C647.409 224.456 649.283 222.993 651.061 221.71C654.203 219.433 654.259 220.261 655.237 221.82C656.216 223.393 661.26 215.252 655.582 215.183C649.904 215.115 637.472 213.238 632.346 211.61C627.219 209.968 632.704 205.483 634.854 205.677C637.004 205.883 624.132 203.303 617.641 206.422C611.163 209.54 603.9 218.743 604.479 222.069C605.058 225.394 610.681 229.741 623.25 229.768H623.263Z" fill="#4A2E70"/>
<path d="M533.779 217.998C532.8 217.446 535.171 215.666 535.364 214.397C535.557 213.128 538.258 211.555 538.368 214.397C538.479 217.239 535.488 218.964 533.779 217.985V217.998Z" fill="#937DB3"/>
<path d="M629.465 221.144C628.625 220.758 630.444 219.143 630.513 218.081C630.582 217.032 632.676 215.556 632.966 217.874C633.255 220.206 630.926 221.82 629.465 221.13V221.144Z" fill="#937DB3"/>
<path d="M538.106 213.196C538.106 214.659 537.114 215.86 535.888 215.846C534.661 215.832 533.669 214.645 533.669 213.183C533.669 211.72 534.675 210.533 535.888 210.533C537.1 210.533 538.106 211.72 538.106 213.196Z" fill="#BFB8C6"/>
<path d="M537.514 213.196C537.514 214.273 536.783 215.142 535.874 215.142C534.964 215.142 534.247 214.259 534.247 213.183C534.247 212.106 534.978 211.237 535.888 211.237C536.797 211.237 537.514 212.106 537.514 213.196Z" fill="white"/>
<path d="M632.676 216.729C632.676 217.957 631.767 218.95 630.651 218.95C629.548 218.95 628.638 217.957 628.638 216.729C628.638 215.501 629.548 214.507 630.651 214.507C631.753 214.507 632.663 215.515 632.663 216.743L632.676 216.729Z" fill="#BFB8C6"/>
<path d="M631.987 216.729C631.987 217.543 631.381 218.205 630.651 218.205C629.92 218.205 629.328 217.543 629.328 216.729C629.328 215.915 629.92 215.266 630.664 215.266C631.409 215.266 632.001 215.928 632.001 216.743L631.987 216.729Z" fill="white"/>
<path d="M611.067 236.571C611.067 236.571 612.528 230.886 617.599 231.493C622.671 232.086 629.121 233.577 638.134 231.493C647.147 229.396 648.718 224.897 648.718 224.897C648.718 224.897 647.561 230.762 638.134 233.632C633.614 235.012 636.563 237.399 639.305 236.626C642.048 235.853 639.691 239.965 628.928 239.151C618.164 238.337 615.146 233.825 611.081 236.571H611.067Z" fill="#4A2E70"/>
<path d="M556.725 227.45C556.725 227.45 556.257 226.802 551.861 228.03C546.472 229.52 541.979 232.611 529.906 230.527C516.717 228.25 517.144 220.316 518.647 220.51C520.149 220.717 520.149 225.477 530.499 227.988C541.097 230.555 545.962 228.016 551.612 226.733C552.729 226.484 554.631 225.022 554.631 225.022C554.631 225.022 555.072 226.388 556.725 227.45Z" fill="#937DB3"/>
<path d="M541.924 230.292C539.292 230.762 535.515 230.9 529.603 229.796C520.59 228.112 519.281 223.573 520.452 223.697C521.637 223.821 522.74 226.65 529.686 228.223C536.728 229.823 538.795 229.616 542.296 229.271C543.481 229.147 543.481 230.003 541.924 230.292Z" fill="#DED8E3"/>
<path d="M615.794 229.699C615.794 229.699 618.261 233.425 629.3 233.3C636.921 233.218 642.172 230.044 644.97 228.181C646.486 227.174 649.325 222.993 647.092 224.897C645.686 226.098 642.144 228.236 640.656 228.857C631.532 232.707 623.525 230.141 618.054 227.974C614.195 226.443 615.808 229.685 615.808 229.685L615.794 229.699Z" fill="#BFB8C6"/>
<path d="M621.334 13.7293C621.334 13.7293 632.497 18.9864 642.889 28.9349C658.724 44.0992 661.012 55.6069 664.416 61.3745C672.009 74.2621 677.481 76.7872 684.234 89.3712C692.709 105.129 692.654 127.178 690.436 139.997C687.665 155.989 689.03 171.333 689.14 182.261C689.168 185.434 687.845 196.349 687.845 196.349C687.845 196.349 698.829 159.066 698.939 127.178C699.049 93.7314 691.014 73.7378 675.083 50.8327C665.449 36.9655 641.841 17.9515 621.348 13.7155L621.334 13.7293Z" fill="#937DB3"/>
<path d="M621.334 13.7292C621.334 13.7292 632.497 18.9864 642.889 28.9349C658.724 44.0991 661.012 55.6069 664.416 61.3745C672.009 74.2621 677.481 76.7871 684.234 89.3711C692.709 105.129 692.654 127.178 690.436 139.997C687.665 155.989 689.03 171.333 689.14 182.261C689.168 185.434 687.845 196.349 687.845 196.349C687.845 196.349 697.257 159.066 697.368 127.178C697.478 93.7314 687.872 75.2969 671.954 52.4057C662.307 38.5385 641.841 17.9653 621.348 13.7292H621.334Z" fill="#4A2E70"/>
<path d="M612.514 293.709C612.514 293.709 610.254 297.724 607.125 298.014C603.997 298.304 603.611 297.807 600.965 299.077C598.319 300.346 597.147 301.615 588.63 300.222C580.113 298.828 577.384 297.159 576.213 293.626C575.041 290.094 572.809 284.602 570.452 289.694C568.095 294.785 557.621 293.585 555.967 289.376C554.314 285.154 555.099 280.656 557.649 278.007C560.198 275.371 558.751 268.803 549.338 277.993C539.926 287.183 533.131 297.103 535.047 296.938C536.976 296.772 545.797 284.244 548.732 285.43C551.668 286.617 549.697 295.572 556.739 296.979C563.782 298.4 567.103 298.994 570.631 301.933C574.146 304.886 582.745 309.411 589.802 308.639C596.858 307.866 602.15 304.154 603.9 303.382C605.664 302.595 612.721 297.711 612.528 293.695L612.514 293.709Z" fill="#4A2E70"/>
<path d="M571.444 279.676C570.356 276.861 570.865 273.509 573.319 270.114C576.943 265.119 575.372 270.721 574.917 272.474C573.512 277.952 572.988 283.664 572.988 283.664C572.988 283.664 571.816 280.67 571.431 279.676H571.444Z" fill="#937DB3"/>
<path d="M573.002 283.664C573.002 283.664 568.881 276.696 563.823 275.868C558.751 275.04 558.365 277.717 556.188 280.104C554.686 281.76 552.839 285.844 552.839 285.844C552.839 285.844 549.518 279.883 553.652 274.502C557.042 270.1 564.085 268.1 569.308 272.75C573.636 276.599 573.649 280.394 573.002 283.664Z" fill="#4A2E70"/>
<path d="M646.72 335.863C646.72 335.863 653.046 338.553 656.353 344.556C660.915 352.821 656.078 360.976 656.078 360.976C656.078 360.976 658.641 353.731 655.568 347.343C654.658 345.453 653.004 344.542 653.004 344.542C653.004 344.542 653.487 349.551 651.64 354.049C649.807 358.533 646.665 361.983 646.665 361.983C646.665 361.983 653.997 347.619 646.72 335.863Z" fill="#EAE8ED"/>
<path d="M641.331 393.153C641.331 393.153 647.864 395.885 656.491 380.169C660.943 372.055 661.439 367.488 661.356 362.783C661.287 358.92 660.515 356.67 660.515 356.67C660.515 356.67 663.272 366.453 653.556 381.576C647.437 391.083 641.331 393.153 641.331 393.153Z" fill="#EAE8ED"/>
<path d="M648.222 399.003C648.222 399.003 657.359 399.417 660.24 389.234C663.134 379.051 662.335 371.117 662.335 371.117C662.335 371.117 662.693 384.515 656.905 391.773C652.067 397.831 648.208 399.003 648.208 399.003H648.222Z" fill="#EAE8ED"/>
<path d="M637.293 349.454C637.293 349.454 639.126 347.15 639.402 341.148C639.678 335.132 637.321 333.462 637.321 333.462C637.321 333.462 637.817 346.294 637.293 349.454Z" fill="#EAE8ED"/>
<path d="M630.251 349.44C630.251 349.44 633.669 338.567 631.588 333.448C629.507 328.329 627.949 327.542 627.949 327.542C627.949 327.542 631.574 343.134 630.251 349.44Z" fill="#EAE8ED"/>
<path d="M620.08 345.218C620.08 345.218 623.498 335.628 621.155 327.515C618.826 319.415 615.697 316.007 615.697 316.007C615.697 316.007 615.945 324.369 613.837 332.206C611.728 340.044 613.809 346.584 613.809 346.584C613.809 346.584 613.561 340.83 615.132 336.911C616.703 332.993 617.448 331.296 617.448 331.296C617.448 331.296 621.665 337.049 620.08 345.204V345.218Z" fill="#EAE8ED"/>
<path d="M610.46 324.369C610.46 324.369 612.831 315.234 610.488 311.316C608.145 307.397 605.802 306.334 605.802 306.334C605.802 306.334 611.535 313.661 610.46 324.369Z" fill="#EAE8ED"/>
<path d="M504.493 311.992C495.287 309.149 491.152 300.788 490.642 292.523C490.091 283.568 492.999 275.771 484.082 273.108C473.305 269.893 444.887 257.171 456.546 230.472C464.25 212.838 484.206 212.686 484.22 205.939C484.234 198.833 467.682 205.042 471.899 188.098C474.27 178.577 485.433 174.037 490.752 168.946C504.989 155.313 485.805 141.308 477.674 130.862C470.466 121.604 472.643 114.663 468.564 113.366C464.429 112.056 461.149 121.024 465.146 137.458C469.143 153.892 450.055 151.574 446.858 166.448C443.674 181.336 453.707 181.129 441.056 238.847C437.927 253.142 437.004 272.639 437.776 284.92C439.016 304.665 446.596 330.923 458.558 343.617C483.6 370.193 469.474 354.518 479.52 343.134C483.104 339.092 481.808 356.257 492.723 340.54C500.689 329.06 513.492 314.751 504.479 311.964L504.493 311.992Z" fill="#4A2E70"/>
<path d="M532.663 397.982C532.663 397.982 524.449 387.013 527.274 376.512C530.113 365.998 532.731 364.784 532.731 364.784C532.731 364.784 523.071 363.28 519.666 372.856C516.249 382.432 521.982 393.098 532.663 397.982Z" fill="#4A2E70"/>
<path d="M526.599 392.311C526.599 392.311 521.127 386.861 523.898 375.657C526.654 364.453 525.91 360.134 523.153 359.748C520.397 359.347 523.567 348.378 524.945 344.859C526.309 341.327 528.666 337.091 528.666 337.091C528.666 337.091 516.497 350.461 516.883 357.843C517.255 365.225 524.311 358.975 522.726 369.158C521.141 379.341 519.956 387.234 526.599 392.311Z" fill="#937DB3"/>
<path d="M506.409 368.744C506.409 368.744 503.404 358.037 505.196 352.214C506.987 346.391 508.875 343.466 508.875 343.466C508.875 343.466 499.421 353.235 500.992 362.507C502.563 371.78 506.422 368.744 506.422 368.744H506.409Z" fill="#937DB3"/>
<path d="M623.801 232.5C627.66 232.983 633.903 232.597 633.655 231.396C633.407 230.182 628.06 231.162 623.801 230.789C621.21 230.555 618.55 229.23 618.275 229.796C618.013 230.362 620.232 232.059 623.801 232.5Z" fill="#DED8E3"/>
<path d="M514.87 412.636C514.87 412.636 491.938 397.982 485.447 379.81C479.892 364.259 508.173 367.212 510.502 381.3C512.817 395.388 509.206 406.013 514.87 412.636Z" fill="#4A2E70"/>
<path d="M633.682 287.417C631.505 281.36 628.501 268.251 636.012 270.459C643.523 272.667 653.432 285.83 649.159 291.75C644.873 297.656 636.108 294.123 633.682 287.431V287.417Z" fill="#DED8E3"/>
<path d="M507.359 424.903C507.359 424.903 510.956 410.277 506.009 401.777C498.263 388.448 483.875 372.028 483.903 364.604C483.903 359.748 478.211 344.514 477.109 354.021C474.766 374.098 479.507 386.144 484.564 395.361C495.287 414.954 504.713 413.243 507.373 424.903H507.359Z" fill="#937DB3"/>
<path d="M507.359 424.903C507.359 424.903 516.579 410.29 511.632 401.791C503.886 388.462 489.512 366.412 489.526 358.989C489.526 354.132 478.197 344.528 477.095 354.035C474.752 374.111 483.71 386.157 488.768 395.375C499.49 414.968 504.686 413.257 507.346 424.917L507.359 424.903Z" fill="#4A2E70"/>
<path d="M495.121 202.144C495.121 202.144 502.439 196.956 509.22 197.094C516.001 197.232 532.497 199.481 532.497 199.481C532.497 199.481 528.473 196.28 529.066 191.768C529.438 188.981 532.208 187.863 532.208 187.863C532.208 187.863 526.833 191.381 524.518 189.091C523.401 187.987 524.738 185.586 524.738 185.586C524.738 185.586 522.464 188.373 519.391 188.36C516.318 188.36 519.928 183.668 519.928 183.668C519.928 183.668 514.595 188.153 506.271 190.885C499.573 193.079 495.121 202.158 495.121 202.158V202.144Z" fill="#4A2E70"/>
<path d="M605.347 217.474C605.347 217.474 612.321 207.346 619.281 205.828C625.469 204.476 633.104 205.525 638.272 202.448C645.424 198.17 638.272 204.145 644.336 202.448C650.413 200.764 648.649 199.067 654.314 202.475C659.978 205.884 669.763 205.704 663.479 211.513C657.208 217.322 657.222 216.453 657.8 219.792C658.379 223.131 656.422 221.365 656.422 221.365C656.422 221.365 657.029 215.639 646.265 213.293C635.502 210.947 613.782 210.782 605.347 217.488V217.474Z" fill="#4A2E70"/>
<path d="M551.364 402.398C551.364 402.398 552.15 399.003 546.94 395.595C541.731 392.187 537.307 387.22 536.273 384.074C535.24 380.942 534.454 378.32 534.454 378.32C534.454 378.32 533.255 386.323 536.26 390.338C540.945 396.616 550.331 399.252 551.364 402.384V402.398Z" fill="#EAE8ED"/>
<path d="M595.755 341.52C595.755 341.52 598.112 332.468 595.921 326.19C594.294 321.554 593.288 321.83 593.288 321.83C593.288 321.83 591.069 325.487 593.178 329.447C595.507 333.834 596.651 337.132 595.755 341.52Z" fill="#EAE8ED"/>
<path d="M427.26 210.603C428.445 212.686 427.632 215.211 425.868 216.025C424.104 216.839 420.631 214.438 419.157 212.548C412.28 203.745 417.475 194.762 418.509 196.418C420.232 199.191 422.671 202.531 427.26 210.589V210.603Z" fill="#937DB3"/>
<path d="M906.753 237.633L897.63 298.925L875.496 324.369L826.943 448.456L831.257 552.136C831.257 552.136 817.599 657.32 816.883 658.727C816.166 660.135 787.555 731.32 787.555 731.32L729.3 755.163L694.749 748.678L671.596 731.32L665.504 693.251L682.773 621.914L727.122 540.628L777.343 457.646L860.019 314.848L897.63 237.661H906.753V237.633Z" fill="white"/>
<path d="M742.737 583.513C736.825 580.919 726.02 592.51 718.619 609.399C711.218 626.288 710.005 642.101 715.918 644.695C717.337 645.316 719.032 645.081 720.893 644.198C726.805 641.397 734.399 631.669 740.036 618.809C743.247 611.482 745.218 604.431 746.017 598.498C747.064 590.757 746.072 584.99 742.723 583.513H742.737Z" fill="#B27FAF"/>
<path d="M921.637 231.631C922.45 229.037 923.236 226.125 923.884 223.09C925.978 213.169 925.992 202.241 916.028 198.998C901.378 194.224 894.405 200.129 892.324 205.663C888.906 214.742 892.916 222.841 899.614 225.684L887.638 246.629L885.074 251.114L853.762 315.786L850.937 321.747L795.08 439.805C789.319 446.635 730.554 516.992 690.711 593.627C672.726 628.192 664.181 659.39 661.976 684.792C661.852 686.269 661.77 687.69 661.673 689.125C659.813 707.076 665.215 727.263 664.829 725.235C665.435 727.249 666.249 728.919 666.993 730.699C667.572 732.051 667.999 733.652 668.647 734.866C669.391 736.26 670.287 737.405 671.127 738.633C674.972 744.221 679.741 748.002 685.295 749.796C685.474 749.851 685.667 749.892 685.846 749.934C687.321 750.665 689.016 751.438 690.904 752.21C705.402 758.185 731.105 764.491 758.696 758.765C790.78 752.114 825.358 729.195 847.616 670.442C858.269 642.307 860.378 610.779 858.379 580.864C858.035 575.648 857.594 570.446 857.015 565.355C855.83 554.951 854.19 544.92 852.329 535.385C850.248 524.65 847.891 514.605 845.493 505.595C844.074 500.268 842.668 495.315 841.304 490.775C835.777 472.465 831.091 460.999 831.091 460.999L857.883 391.525L866.331 369.627L880.292 333.407L884.206 323.251C884.206 323.251 889.581 321.388 894.997 315.179C897.368 312.461 899.669 308.846 901.612 304.154C902.88 301.091 904.024 297.738 904.782 293.681C904.865 293.226 904.975 292.743 905.058 292.288C905.83 292.702 906.67 292.95 907.566 292.964C908.214 292.964 908.806 292.757 909.385 292.55C911.866 291.667 913.713 289.1 913.727 285.941C913.727 284.009 913.065 282.256 911.99 280.973C910.97 279.773 909.564 279.041 908.007 278.931C909.192 274.005 910.502 269.052 911.783 264.333C912.652 265.022 913.644 265.533 914.788 265.533C915.256 265.533 915.67 265.367 916.097 265.243C918.426 264.581 920.19 262.304 920.204 259.448C920.204 257.916 919.68 256.564 918.881 255.488C917.916 254.191 916.524 253.335 914.926 253.308C917.958 242.945 920.356 235.508 920.356 235.508C920.741 234.363 921.182 233.038 921.623 231.658L921.637 231.631ZM871.306 296.151L871.899 295.13L875.51 288.811L872.175 296.11L870.893 298.925L871.306 296.151ZM896.072 265.864L893.357 274.005L888.465 288.7L885.887 296.455L877.315 305.989L887.183 284.23L892.696 272.073L893.261 270.832L897.643 261.173L896.072 265.878V265.864ZM891.069 267.258L885.708 279.097L874.325 304.196L861.88 331.64L855.154 346.473L852.618 352.062L806.34 454.155L751.516 575.096C751.116 575.966 751.516 577 752.384 577.401C752.55 577.483 752.743 577.525 752.935 577.552C753.652 577.621 754.369 577.235 754.686 576.545L796.141 485.063L854.796 355.663L817.778 444.22C817.448 445.02 817.31 445.903 817.406 446.773C817.475 447.325 822.078 490.831 814.857 549.487C813.975 556.648 812.955 563.961 811.687 571.523C810.061 581.195 808.117 591.144 805.761 601.285C804.782 605.521 803.638 609.412 802.563 613.414C798.498 628.399 793.826 641.921 788.603 653.843C785.13 661.777 781.436 668.966 777.605 675.658C748.374 726.753 710.612 742.607 691.759 740.785L691.042 740.703C688.093 740.344 685.433 738.992 683.048 736.853C682.332 736.218 681.643 735.528 680.981 734.728C680.678 734.369 680.402 733.969 680.113 733.569C679.327 732.493 678.556 731.375 677.853 730.064C677.37 729.153 677.053 727.898 676.626 726.877C674.587 722.116 673.002 716.473 672.244 709.588C671.775 705.421 671.596 700.867 671.665 696.024C671.692 694.12 671.899 692.022 672.023 690.022C672.078 688.987 672.188 687.911 672.285 686.848C672.478 684.516 672.533 682.322 672.85 679.88C674.173 669.393 676.778 657.789 680.582 645.426C685.102 630.731 691.331 615.001 699.972 598.401C741.138 519.241 802.867 446.718 803.487 446C803.79 445.655 804.038 445.269 804.231 444.855L806.119 440.867L805.058 443.199L791.579 472.727L745.107 574.531C744.708 575.4 745.08 576.435 745.962 576.835C746.141 576.918 746.334 576.959 746.513 576.987C747.23 577.056 747.946 576.669 748.263 575.979L800.634 461.233L854.658 342.872L861.26 328.398L873.622 301.326L881.629 283.774L884.854 276.71L890.229 264.926L894.405 255.764L903.418 239.992L891.028 267.313L891.069 267.258Z" fill="#B27FAF"/>
<path d="M2.27398 158.583L0 152.443L24.0077 147.048L24.4625 153.602L9.34399 156.996L10.9013 163.978L16.3727 162.75C26.3368 160.515 31.3947 163.495 32.6213 168.959C34.1235 175.665 30.1268 182.206 18.8671 184.731L8.62734 187.035L2.2602 158.597L2.27398 158.583ZM12.2519 169.981L14.2916 179.101L17.4476 178.397C24.2558 176.866 26.2404 173.941 25.5788 170.988C25.0551 168.628 22.8501 167.593 17.7095 168.752L12.2381 169.981H12.2519Z" fill="#18151C"/>
<path d="M50.317 151.822C59.5369 151.463 64.5673 157.879 64.8291 164.917C65.1599 173.54 60.1571 180.729 50.882 181.088C41.6069 181.447 36.5766 175.031 36.3148 167.994C35.984 159.37 41.0419 152.181 50.317 151.822ZM43.4261 167.276C43.5777 171.291 45.9757 174.879 50.634 174.699C55.6229 174.506 57.9107 171.002 57.704 165.62C57.5524 161.605 55.1544 158.017 50.5513 158.183C45.5072 158.376 43.2194 161.881 43.4261 167.262V167.276Z" fill="#18151C"/>
<path d="M72.6295 152.636L75.124 153.078L76.8743 155.12C78.8037 154.292 81.6566 153.629 84.8539 154.195C92.2133 155.506 96.7475 161.343 95.328 169.359C93.7707 178.135 85.0193 183.447 74.7244 182.054L73.4702 189.091L66.3864 187.835L72.6433 152.636H72.6295ZM78.4868 160.777L75.7718 176.107C82.6626 176.893 87.3208 173.251 88.2442 168.104C89.0298 163.661 86.1218 160.86 82.9934 160.294C81.2155 159.977 79.5893 160.294 78.5006 160.777H78.4868Z" fill="#18151C"/>
<path d="M102.302 159.728L113.341 162.115L104.038 188.87L97.2437 186.497L104.369 166.034L100.579 164.71L102.315 159.728H102.302ZM111.714 148.041L118.564 151.422L114.898 158.128L107.966 156.472L111.714 148.055V148.041Z" fill="#18151C"/>
<path d="M118.316 164.654L139.664 175.265L135.75 180.191L129.3 176.99L119.818 196.1L113.423 192.927L122.905 173.816L115.573 170.174L118.316 164.654Z" fill="#18151C"/>
<path d="M154.259 183.737C161.218 188.346 160.267 195.369 156.601 200.916C156.119 201.647 155.582 202.351 155.003 203.027L139.085 194.127C137.431 197.522 138.423 201.013 142.406 203.648C145.383 205.621 148.167 206.601 149.683 206.891L146.527 211.665C145.135 211.665 141.924 210.657 138.079 208.105C131.574 203.8 128.983 196.349 133.751 189.146C138.809 181.488 147.657 179.363 154.259 183.737ZM141.979 190.25L151.599 195.231C153.115 192.941 153.377 190.346 150.496 188.429C148.153 186.883 144.956 187.338 141.979 190.236V190.25Z" fill="#18151C"/>
<path d="M165.311 220.675C167.089 222.069 168.426 222.759 170.08 223.228L166.359 227.988C165.063 227.671 163.106 226.705 161.122 225.146C153.377 219.074 153.156 211.154 157.732 205.304C163.12 198.418 173.691 197.839 183.765 205.732L179.975 210.575C173.746 205.69 166.883 205.193 163.354 209.705C161.053 212.644 160.681 217.046 165.311 220.675Z" fill="#18151C"/>
<path d="M179.92 225.905C178.955 223.297 178.9 220.289 180.733 218.109C184.799 213.279 191.731 213.583 199.035 219.737L205.967 225.587L201.295 229.271L187.348 245.843L181.85 241.207L187.155 234.901L183.462 231.783L172.189 234.432L170.19 227.933L179.92 225.932V225.905ZM187.362 227.726L190.766 230.596L195.797 224.621L195.383 224.263C191.483 220.965 188.492 220.33 186.77 222.386C185.212 224.235 185.874 226.443 187.376 227.726H187.362Z" fill="#18151C"/>
<path d="M144.556 248.879L158.641 258.054L165.063 261.38L149.697 285.03L143.66 281.098L155.278 263.215L147.216 257.972L135.598 275.854L129.562 271.922L144.542 248.879H144.556Z" fill="#18151C"/>
<path d="M181.326 270.004C189.526 274.254 190.739 282.312 187.514 288.562C183.558 296.234 175.662 300.015 167.42 295.738C159.179 291.474 157.952 283.402 161.191 277.151C165.146 269.479 173.084 265.726 181.34 269.99L181.326 270.004ZM167.723 280.049C165.877 283.609 166.193 287.928 170.342 290.066C174.779 292.371 178.501 290.453 180.967 285.665C182.814 282.105 182.497 277.786 178.404 275.661C173.911 273.343 170.204 275.261 167.737 280.049H167.723Z" fill="#18151C"/>
<path d="M190.835 291.184C194.308 282.036 198.966 276.751 207.084 276.254C211.301 275.979 217.117 278.131 220.549 277.786L222.836 277.013L220.59 284.451C216.91 284.989 210.736 282.408 207.373 282.588C204.493 282.726 202.632 284.257 201.144 286.631C203.569 286.134 206.271 285.996 208.779 286.948C215.353 289.446 218.84 295.434 216.345 302.002C213.809 308.68 207.277 313.027 198.705 309.757C191.111 306.859 187.445 300.112 190.835 291.17V291.184ZM198.112 292.302C197.947 292.592 197.85 292.854 197.726 293.157C195.604 298.759 197.202 302.719 200.854 304.113C205.168 305.755 208.214 303.147 209.468 299.863C210.805 296.193 209.358 293.64 206.023 292.371C203.349 291.35 200.4 291.695 198.112 292.302Z" fill="#18151C"/>
<path d="M238.478 291.722C247.423 294.013 250.413 301.588 248.677 308.404C246.541 316.766 239.705 322.23 230.706 319.926C221.72 317.621 218.716 310.046 220.452 303.23C222.588 294.868 229.479 289.418 238.478 291.722ZM227.481 304.568C226.488 308.459 227.756 312.585 232.277 313.744C237.114 314.986 240.311 312.281 241.635 307.066C242.627 303.175 241.359 299.049 236.894 297.904C232.001 296.648 228.818 299.352 227.481 304.582V304.568Z" fill="#18151C"/>
<path d="M255.692 296.4L258.186 296.772L259.992 298.773C261.907 297.89 264.733 297.145 267.944 297.628C275.331 298.732 280.03 304.444 278.831 312.489C277.522 321.306 268.908 326.853 258.586 325.749L257.525 332.813L250.413 331.751L255.692 296.4ZM261.783 304.375L259.482 319.774C266.386 320.367 270.948 316.601 271.72 311.426C272.381 306.969 269.405 304.237 266.249 303.768C264.457 303.506 262.845 303.865 261.77 304.375H261.783Z" fill="#18151C"/>
<path d="M297.492 300.65C305.83 301.174 308.49 307.728 308.076 314.379C308.021 315.262 307.911 316.131 307.745 317L289.512 317.235C289.774 321.002 292.365 323.527 297.133 323.831C300.703 324.051 303.597 323.527 305.058 323.003L304.7 328.715C303.501 329.405 300.207 330.136 295.604 329.847C287.817 329.364 281.863 324.189 282.415 315.579C282.993 306.417 289.595 300.167 297.492 300.663V300.65ZM290.091 312.419L300.91 311.937C301.075 309.191 300.014 306.817 296.568 306.597C293.771 306.417 291.221 308.404 290.091 312.419Z" fill="#18151C"/>
<path d="M310.529 302.236L334.372 302.112L333.09 308.28L325.896 308.322L326.006 329.667L318.867 329.709L318.757 308.363L310.571 308.404L310.543 302.25L310.529 302.236Z" fill="#18151C"/>
<path d="M348.594 300.374C356.932 299.863 360.391 306.045 360.791 312.682C360.846 313.565 360.846 314.448 360.791 315.331L342.723 317.815C343.44 321.513 346.334 323.707 351.103 323.417C354.672 323.196 357.47 322.313 358.862 321.623L359.206 327.336C358.104 328.177 354.92 329.309 350.317 329.585C342.53 330.068 335.984 325.666 335.46 317.056C334.895 307.894 340.684 300.871 348.581 300.388L348.594 300.374ZM342.71 312.972L353.377 311.164C353.211 308.418 351.861 306.183 348.401 306.404C345.604 306.569 343.33 308.86 342.696 312.985L342.71 312.972Z" fill="#18151C"/>
<path d="M88.8644 237.205C89.9256 237.661 90.3666 237.164 90.8903 236.929C91.7723 236.529 92.5303 235.136 93.495 235.853C94.3357 236.488 93.5088 237.771 93.4399 238.751C93.2883 240.793 93.0127 242.835 92.8335 244.877C92.7922 245.36 92.7233 246.091 93.3434 246.174C94.2393 246.285 94.1152 245.429 94.1428 244.891C94.2944 241.372 94.8456 237.909 95.5485 234.459C96.2514 231.038 96.2652 231.01 99.3385 232.583C106.436 236.212 113.851 239.068 121.417 241.538C122.216 241.8 123.071 241.911 124.008 242.904C121.017 243.828 118.288 243.884 115.532 243.497C114.305 243.318 113.051 242.628 112.569 244.67C112.293 245.857 111.301 245.098 110.695 244.753C108.462 243.497 106.216 242.242 104.038 240.889C102.508 239.951 101.943 239.965 101.75 242.062C101.461 245.07 100.193 247.761 97.409 249.389C96.3754 249.996 96.3065 251.086 95.9895 252.025C95.5209 253.418 94.9697 253.846 93.6466 252.811C90.9179 250.672 88.3269 248.451 87.5551 244.85C87.376 243.994 87.0865 243.401 86.0667 243.511C84.6058 243.677 84.4405 242.49 84.1924 241.538C83.0485 237.247 85.9013 230.182 89.7326 227.988C91.8412 226.774 93.1505 228.623 94.3082 229.768C95.5347 230.996 94.8319 232.417 93.5777 233.507C92.1444 234.763 90.1185 235.301 88.8919 237.192L88.8644 237.205Z" fill="#171717"/>
<path d="M82.8969 221.199C82.6075 228.802 80.0028 235.274 76.8881 241.593C76.7365 241.897 76.4471 242.283 76.5298 242.532C77.9079 246.754 77.8942 251.569 81.5739 254.826C82.9107 256.012 84.3716 257.089 85.7359 258.234C86.2183 258.634 87.1141 259.007 86.4664 259.821C85.9565 260.455 85.1295 260.607 84.3716 260.166C83.71 259.779 83.1312 259.255 82.4697 258.855C81.7806 258.441 81.2155 257.378 80.4024 259.048C79.8512 260.152 78.6108 259.614 78.1698 258.427C77.9079 257.71 77.8252 256.923 77.6737 256.178C77.4531 255.074 76.9846 254.922 76.1301 255.695C75.2481 256.495 74.3109 257.254 73.3324 257.944C72.6847 258.4 72.0232 258.234 71.5546 257.558C71.1136 256.923 71.403 256.44 71.9129 256.012C72.4366 255.571 72.9603 255.129 73.4702 254.674C76.6538 251.873 76.8054 251.045 75.124 247.113C74.5865 245.843 74.0904 245.471 72.9327 246.533C71.2376 248.106 69.3771 249.5 67.2409 250.438C66.3589 250.824 65.4079 251.252 64.8291 250.038C64.2503 248.824 65.339 248.589 66.0557 248.23C68.1918 247.14 70.1764 245.871 71.9267 243.87C69.9008 242.932 67.9713 243.332 66.0832 243.539C63.7955 243.801 61.5215 244.215 59.2337 244.56C58.2966 244.698 57.4835 244.518 57.0562 243.622C56.6014 242.642 57.5248 242.545 58.0761 242.228C59.1373 241.621 58.5722 241.124 57.9107 240.779C56.312 239.965 54.7133 239.137 53.032 238.502C51.5849 237.964 50.7718 237.109 50.5788 235.274C54.2861 235.922 57.5799 237.33 60.5568 239.289C62.6792 240.696 64.7464 241.4 67.2685 240.959C68.4261 240.752 69.7078 240.683 70.8379 240.959C73.3462 241.566 74.6555 240.434 75.6477 238.323C78.4454 232.279 80.6092 226.084 80.2646 219.295C79.8925 212.106 76.8467 206.311 71.0309 202.02C70.2453 201.44 68.8947 200.875 69.694 199.674C70.5485 198.377 71.6924 199.288 72.5606 199.95C76.8468 203.179 80.1681 207.236 81.505 212.465C82.6764 217.074 85.4879 220.33 88.8506 223.324C89.6362 224.028 91.0005 224.773 89.9118 225.974C88.9746 227.009 88.0788 225.932 87.3208 225.242C85.9564 224.001 84.5921 222.759 82.8694 221.186L82.8969 221.199Z" fill="#171717"/>
<path d="M122.96 240.558C116.869 238.833 110.97 236.584 104.837 233.756C107.111 232.39 109.496 233.645 111.549 232.017C109.275 231.079 107.235 231.548 105.334 231.838C99.6141 232.707 95.7552 229.202 91.8964 226.112C89.9945 224.594 91.6621 222.082 92.0618 220.082C92.365 218.55 93.5915 217.557 95.2178 217.488C98.8148 217.336 102.398 217.639 105.954 218.205C107.084 218.385 107.787 218.895 107.015 220.109C105.981 221.737 107.952 223.876 106.036 225.463C105.678 225.767 106.781 226.387 107.415 226.622C110.447 227.781 113.492 228.94 116.524 230.127C117.599 230.555 118.619 231.051 117.93 232.569C117.434 233.673 118.343 234.321 118.936 234.998C120.397 236.64 121.913 238.24 123.401 239.855L122.96 240.558Z" fill="#171717"/>
<path d="M62.4035 259.241C64.0849 256.84 67.2822 256.206 69.6389 257.82C72.0369 259.462 72.6847 263.05 70.9895 265.326C69.3495 267.534 65.8214 268.114 63.6163 266.541C61.301 264.899 60.7497 261.587 62.4035 259.227V259.241Z" fill="#B27FAF"/>
<path d="M92.5303 269.355C90.9868 271.756 87.7619 272.46 85.3225 270.928C82.9934 269.466 82.2216 266.044 83.6825 263.684C85.1847 261.256 88.7679 260.497 91.1384 262.084C93.4813 263.67 94.1014 266.913 92.5303 269.355Z" fill="#B27FAF"/>
<path d="M56.7392 258.524C54.3412 257.006 53.5281 253.694 54.9752 251.28C56.4223 248.879 60.0744 248.106 62.4587 249.693C64.3605 250.949 65.3528 253.943 64.4294 255.557C62.5827 258.786 59.22 260.083 56.7392 258.51V258.524Z" fill="#B27FAF"/>
<path d="M47.0232 261.311C44.4873 259.697 43.6329 256.826 44.694 254.481C45.7552 252.135 48.4702 250.769 50.882 251.583C54.2723 252.742 52.7977 256.302 53.9967 258.593C54.672 259.904 52.7012 260.952 51.323 261.476C49.7244 262.097 48.1257 261.932 47.0369 261.297L47.0232 261.311Z" fill="#B27FAF"/>
<path d="M39.7189 253.487C37.8721 252.149 36.9487 249.748 37.6103 247.637C38.3407 245.36 40.4631 243.842 42.8473 243.911C45.204 243.98 47.0645 245.471 47.6571 247.775C47.9465 248.906 48.1257 250.121 46.7062 250.548C44.2668 251.293 43.6604 256.33 39.7189 253.474V253.487Z" fill="#B27FAF"/>
<path d="M40.6009 236.723C41.9101 235.094 43.6604 234.211 45.9206 234.556C48.2359 234.915 49.5452 236.405 50.0965 238.572C50.565 240.393 50.0689 241.911 48.4289 243.056C47.5744 243.649 46.8578 243.911 45.8517 243.415C45.0248 243.015 44.0877 242.739 43.1643 242.628C39.8429 242.228 38.6714 239.717 40.6147 236.723H40.6009Z" fill="#B27FAF"/>
<path d="M88.2856 277.11C87.0865 278.71 85.543 279.649 83.4895 279.497C81.5739 279.359 80.0579 278.517 79.2034 276.737C78.5006 275.261 78.1974 273.578 79.6031 272.529C80.9537 271.508 82.511 269.88 84.5232 271.77C85.1158 272.322 85.984 272.639 86.7834 272.901C89.1952 273.702 89.6775 274.985 88.2856 277.124V277.11Z" fill="#B27FAF"/>
<path d="M76.8467 274.543C75.7442 276.268 74.1593 277.124 72.1058 277.027C69.2668 276.889 68.6053 275.606 70.1488 273.205C71.0447 271.798 71.7062 270.349 71.3892 268.638C71.0447 266.72 72.0369 266.402 73.6081 266.706C77.0948 267.368 78.79 271.453 76.833 274.543H76.8467Z" fill="#B27FAF"/>
<path d="M63.0375 267.755C64.2916 268.555 66.1246 269.162 68.1505 268.624C69.9697 268.141 70.2591 269.01 69.9972 270.5C69.5149 273.26 66.7448 275.137 63.8782 274.654C61.0805 274.185 59.1648 271.411 59.6885 268.596C60.102 266.389 60.7911 266.113 63.0375 267.755Z" fill="#B27FAF"/>
<path d="M58.0761 268.307C56.9322 269.59 55.3473 268.886 53.8864 267.934C52.0259 266.734 51.199 264.112 52.1086 262.856C53.79 260.538 57.387 259.545 59.3853 260.856C60.7222 261.725 60.2398 265.147 58.0761 268.307Z" fill="#B27FAF"/>
<path d="M73.5391 262.705C74.5176 261.104 77.3016 260.304 79.355 261.035C81.2569 261.711 82.3181 262.898 81.7944 265.133C81.5739 266.099 81.753 267.161 81.7944 268.183C81.8495 269.411 81.1742 270.128 80.1544 270.514C78.8864 270.997 78.8175 269.811 78.5006 269.107C77.6599 267.286 76.2128 266.113 74.3936 265.478C72.6571 264.871 73.0568 263.822 73.5254 262.718L73.5391 262.705Z" fill="#B27FAF"/>
<path d="M55.4851 244.174C56.2845 245.084 57.8418 246.023 56.9873 247.665C55.8159 249.955 51.4746 251.114 49.8208 249.817C49.0904 249.238 48.2359 245.25 48.7045 244.588C49.876 242.932 53.3076 242.656 55.4713 244.174H55.4851Z" fill="#B27FAF"/>
<rect x="209.551" y="241" width="18" height="6" transform="rotate(36.284 209.551 241)" fill="#18151C"/>
</g>
<defs>
<clipPath id="clip0_867_275">
<rect width="925" height="761" fill="white"/>
</clipPath>
</defs>
</svg>
