<svg width="191" height="735" viewBox="0 0 191 735" fill="none" xmlns="http://www.w3.org/2000/svg">
<g clip-path="url(#clip0_551_150)">
<rect width="191" height="735" fill="white"/>
<rect width="191" height="735" fill="#F9FFF9"/>
<path d="M175.82 629.252C170.44 650.963 148.478 664.201 126.767 658.82C105.056 653.44 91.8182 631.478 97.1987 609.767C102.579 588.056 124.541 574.818 146.252 580.199C167.963 585.579 181.201 607.541 175.82 629.252Z" fill="#4EFA9D"/>
<path d="M145.293 641.381C145.077 641.32 144.851 641.304 144.628 641.336C144.405 641.367 144.191 641.445 144 641.564L142.576 642.269L140.059 643.56C139.74 643.709 139.46 643.932 139.241 644.21C139.022 644.489 138.872 644.815 138.801 645.162C137.883 648.863 136.969 652.553 136.052 656.255C135.951 656.567 135.938 656.901 136.013 657.219C136.088 657.538 136.249 657.829 136.478 658.061L136.601 658.167L137.437 658.374L137.598 658.326C137.904 658.22 138.175 658.034 138.386 657.787C138.596 657.541 138.738 657.242 138.795 656.922C139.26 655.048 139.721 653.185 140.186 651.31L141.453 646.197C141.459 646.131 141.484 646.069 141.523 646.017C141.563 645.964 141.616 645.924 141.677 645.9C142.615 645.44 143.544 644.965 144.52 644.501L145.305 644.104C145.497 644.035 145.672 643.927 145.82 643.786C145.968 643.645 146.086 643.475 146.165 643.286C146.245 643.098 146.285 642.895 146.283 642.69C146.28 642.485 146.236 642.284 146.152 642.098C146.069 641.922 145.949 641.768 145.801 641.644C145.653 641.52 145.48 641.431 145.293 641.381Z" fill="black"/>
<path d="M156.011 618.99C155.303 618.222 154.603 617.47 153.862 616.732C153.782 616.649 153.771 616.646 153.812 616.48C154.312 614.463 154.809 612.458 155.308 610.441C155.552 609.368 155.457 608.247 155.038 607.234C154.618 606.22 153.894 605.366 152.967 604.789C152.04 604.213 150.956 603.943 149.867 604.018C148.778 604.093 147.738 604.509 146.892 605.207C146.479 604.581 145.932 604.056 145.292 603.668C144.652 603.281 143.934 603.042 143.19 602.967C142.447 602.872 141.692 602.942 140.977 603.172C140.263 603.401 139.606 603.785 139.053 604.297C138.605 603.686 138.031 603.179 137.371 602.813C136.71 602.446 135.979 602.228 135.225 602.173C134.472 602.118 133.715 602.227 133.007 602.493C132.298 602.76 131.654 603.177 131.119 603.716C130.556 602.947 129.784 602.358 128.896 602.02C128.008 601.682 127.042 601.608 126.111 601.808C125.069 601.972 124.101 602.459 123.343 603.201C122.584 603.942 122.072 604.901 121.877 605.946L121.733 606.528C121.374 607.975 121.015 609.423 120.651 610.894C120.263 611.975 120.16 613.139 120.351 614.27L117.522 625.683C116.963 627.605 116.6 629.578 116.437 631.573C116.302 634.675 116.811 637.769 117.931 640.657C118.022 640.941 118.033 641.244 117.964 641.534C117.167 644.749 116.37 647.965 115.573 651.18C115.473 651.492 115.459 651.825 115.534 652.144C115.61 652.463 115.771 652.754 116 652.985L116.111 653.089L116.923 653.29L117.085 653.242C117.389 653.135 117.66 652.949 117.871 652.702C118.081 652.456 118.223 652.158 118.282 651.838L118.643 650.379C119.249 647.935 119.875 645.408 120.49 642.928C120.86 641.626 120.796 640.238 120.307 638.979C119.012 635.47 118.836 631.636 119.804 628.012L122.427 617.429C123.257 618.033 124.249 618.372 125.274 618.402C126.299 618.431 127.311 618.15 128.179 617.595C128.531 618.301 129.037 618.916 129.659 619.397C130.28 619.878 131.002 620.211 131.77 620.373C132.538 620.534 133.333 620.519 134.095 620.329C134.858 620.139 135.57 619.779 136.177 619.275C136.56 619.847 137.051 620.337 137.622 620.716C138.194 621.096 138.834 621.358 139.507 621.487C140.18 621.617 140.873 621.611 141.544 621.47C142.216 621.33 142.855 621.057 143.423 620.668L145.372 624.136L144.576 624.228C142.072 624.479 139.681 625.415 137.662 626.935C136.855 627.588 136.092 628.295 135.378 629.051L134.972 629.479C134.836 629.608 134.73 629.765 134.661 629.939C134.592 630.114 134.561 630.301 134.572 630.488C134.584 630.688 134.637 630.882 134.729 631.059C134.821 631.236 134.948 631.391 135.104 631.514C135.375 631.742 135.723 631.856 136.076 631.83C136.429 631.805 136.76 631.643 136.998 631.379L137.236 631.123L137.263 631.016C138.703 629.29 140.636 628.054 142.797 627.477C143.818 627.252 144.851 627.087 145.89 626.984L146.781 626.865C147.138 626.848 147.484 626.739 147.789 626.551C148.093 626.362 148.345 626.098 148.522 625.785C148.663 625.457 148.72 625.099 148.688 624.743C148.656 624.388 148.536 624.046 148.34 623.75L145.846 619.203C145.661 618.868 145.557 618.494 145.543 618.11C145.529 617.727 145.605 617.345 145.764 616.995C145.924 616.646 146.163 616.339 146.461 616.1C146.76 615.86 147.11 615.695 147.484 615.617C147.857 615.569 148.236 615.609 148.591 615.734C148.946 615.859 149.266 616.066 149.527 616.338L151.627 618.545C152.306 619.281 152.989 620.004 153.694 620.733C154.478 621.468 155.025 622.424 155.265 623.478C155.504 624.531 155.425 625.634 155.038 626.644C154.624 627.965 154.206 629.297 153.8 630.632C153.547 631.652 153.192 632.634 152.868 633.637C152.212 635.823 150.807 637.707 148.904 638.951C148.578 639.16 148.234 639.339 147.89 639.519C147.546 639.698 147.402 639.775 147.167 639.919C146.849 640.087 146.608 640.373 146.495 640.716C146.382 641.06 146.406 641.433 146.561 641.758C146.725 642.096 147.015 642.355 147.368 642.477C147.721 642.6 148.108 642.578 148.446 642.414C149.896 641.826 151.217 640.952 152.33 639.844C153.443 638.736 154.326 637.415 154.927 635.961C156.056 633.017 156.929 630.047 157.882 626.757C158.295 625.41 158.339 623.977 158.01 622.609C157.681 621.242 156.99 619.991 156.011 618.99ZM151.645 613.639L151.492 614.256C150.81 613.607 149.977 613.14 149.069 612.899C148.314 612.73 147.53 612.739 146.778 612.924L146.948 612.235C147.242 611.049 147.536 609.863 147.83 608.676C147.909 608.356 148.052 608.056 148.249 607.792C148.446 607.529 148.693 607.308 148.977 607.143C149.26 606.978 149.574 606.872 149.898 606.832C150.223 606.792 150.552 606.818 150.865 606.91C151.175 606.998 151.463 607.147 151.714 607.349C151.966 607.55 152.174 607.801 152.328 608.085C152.482 608.369 152.578 608.682 152.61 609.004C152.643 609.327 152.612 609.653 152.518 609.964C152.247 611.206 151.95 612.405 151.645 613.639ZM142.829 616.869C142.805 617.101 142.749 617.329 142.661 617.545C142.39 618.086 141.93 618.507 141.37 618.727C140.81 618.947 140.19 618.95 139.63 618.736C139.069 618.522 138.608 618.106 138.336 617.568C138.064 617.03 138 616.409 138.156 615.824C138.385 614.899 138.612 613.985 138.838 613.072L140.161 607.733C140.225 607.407 140.354 607.098 140.54 606.824C140.725 606.55 140.965 606.316 141.242 606.138C141.52 605.959 141.831 605.839 142.156 605.785C142.48 605.731 142.812 605.745 143.131 605.824C143.443 605.896 143.738 606.03 143.998 606.218C144.258 606.405 144.478 606.643 144.646 606.917C144.816 607.2 144.927 607.514 144.972 607.841C145.018 608.169 144.997 608.502 144.91 608.821C144.449 610.684 143.984 612.559 143.523 614.421L142.999 616.533C142.876 616.629 142.858 616.75 142.829 616.869ZM130.537 614.578C130.672 614.032 130.808 613.487 130.943 612.941L131.202 611.897C131.272 611.71 131.304 611.511 131.294 611.311C131.284 611.112 131.233 610.917 131.145 610.739C131.056 610.561 130.932 610.403 130.78 610.276C130.628 610.149 130.451 610.056 130.26 610.001C129.925 609.916 129.57 609.963 129.267 610.133C128.889 610.38 128.623 610.766 128.526 611.208C128.446 611.529 128.367 611.849 128.287 612.169C128.158 612.691 128.029 613.213 127.899 613.735C127.793 614.377 127.439 614.951 126.914 615.331C126.389 615.711 125.736 615.866 125.1 615.762C124.464 615.658 123.895 615.303 123.52 614.775C123.145 614.248 122.994 613.591 123.1 612.949C123.12 612.816 123.153 612.685 123.197 612.558L123.55 611.134C123.941 609.556 124.335 607.966 124.726 606.388C124.868 605.801 125.221 605.286 125.716 604.944C126.211 604.601 126.814 604.455 127.408 604.534C127.986 604.626 128.51 604.925 128.885 605.377C129.259 605.828 129.459 606.402 129.446 606.991C129.416 607.11 129.384 607.24 129.355 607.359C129.325 607.478 129.296 607.596 129.267 607.715C129.237 607.89 129.243 608.07 129.283 608.243C129.324 608.416 129.398 608.579 129.503 608.722C129.607 608.865 129.738 608.986 129.89 609.077C130.041 609.167 130.209 609.227 130.384 609.251C130.557 609.291 130.737 609.295 130.912 609.265C131.087 609.234 131.255 609.169 131.405 609.073C131.556 608.976 131.686 608.851 131.788 608.704C131.89 608.557 131.963 608.391 132.001 608.216L132.163 607.564C132.225 607.239 132.304 606.918 132.401 606.603C132.613 605.991 133.057 605.488 133.635 605.204C134.213 604.92 134.879 604.878 135.486 605.088C135.8 605.166 136.095 605.306 136.354 605.501C136.613 605.695 136.83 605.94 136.993 606.221C137.156 606.502 137.262 606.813 137.303 607.137C137.345 607.46 137.322 607.788 137.236 608.103L135.348 615.72C135.287 616.048 135.16 616.361 134.975 616.638C134.79 616.915 134.551 617.152 134.272 617.333C133.993 617.514 133.681 617.636 133.354 617.69C133.027 617.745 132.693 617.732 132.372 617.652C132.044 617.585 131.733 617.45 131.46 617.256C131.187 617.061 130.957 616.812 130.784 616.523C130.612 616.234 130.501 615.912 130.458 615.578C130.416 615.243 130.443 614.902 130.537 614.578Z" fill="black"/>
<path d="M156 220.5C156 253.913 128.913 281 95.5 281C62.0868 281 35 253.913 35 220.5C35 187.087 62.0868 160 95.5 160C128.913 160 156 187.087 156 220.5Z" fill="#4EFA9D"/>
<path d="M61.3454 259.54C61.1508 258.103 61.0053 256.668 60.7918 255.22C59.9995 249.537 59.1732 243.848 58.3659 238.169L56.357 224.097C56.1982 223.096 56.3926 222.068 56.9078 221.185C57.423 220.302 58.2279 219.616 59.1887 219.243C60.0881 218.874 60.9915 218.519 61.9069 218.209C62.4026 218.075 62.542 217.815 62.4445 217.335C62.1494 216.241 62.0686 215.106 61.8677 214.003C61.7823 213.594 61.8352 213.168 62.0182 212.79C62.2012 212.411 62.5043 212.101 62.8812 211.907C68.7054 208.012 75.411 205.603 82.3907 204.898C83.7843 204.807 85.1887 204.935 86.5833 204.908C87.0191 204.893 87.4461 204.778 87.83 204.571C88.978 203.929 90.0791 203.172 91.2311 202.544C91.4555 202.407 91.7054 202.316 91.9657 202.277C92.2259 202.238 92.4911 202.251 92.7452 202.316C92.9992 202.38 93.2368 202.496 93.4436 202.654C93.6505 202.812 93.8221 203.011 93.9483 203.237C94.0849 203.47 94.1709 203.729 94.201 203.997C94.2311 204.266 94.2045 204.538 94.123 204.796C94.0415 205.055 93.9068 205.295 93.7273 205.5C93.5479 205.706 93.3275 205.873 93.0801 205.992C92.2687 206.448 91.4693 206.95 90.6388 207.396C90.1901 207.643 90.1717 207.934 90.2953 208.392C91.6988 213.592 93.0864 218.734 94.5098 224.008C96.0702 229.79 97.6265 235.557 99.1789 241.309C99.2188 241.457 99.2547 241.59 99.3065 241.782C106.426 236.992 114.433 235.671 122.868 235.756C122.349 234.311 121.859 233.033 121.357 231.71C120.317 228.932 119.266 226.172 118.257 223.385C118.039 222.927 118.013 222.402 118.185 221.922C118.357 221.443 118.713 221.048 119.177 220.823C119.434 220.68 119.721 220.595 120.015 220.575C120.31 220.555 120.604 220.6 120.877 220.708C121.151 220.815 121.395 220.981 121.594 221.195C121.792 221.408 121.939 221.663 122.024 221.94C123.212 225.028 124.359 228.142 125.516 231.237C126.211 233.095 126.906 234.952 127.645 236.797C128.385 238.642 127.348 239.936 125.344 239.796C119.446 239.26 113.49 239.955 107.862 241.835C104.744 242.8 101.889 244.46 99.5181 246.686C99.2671 246.946 98.9483 247.133 98.5974 247.226C98.2464 247.319 97.877 247.314 97.5304 247.212C97.1837 247.11 96.8734 246.915 96.634 246.648C96.3946 246.382 96.2355 246.054 96.1745 245.702C92.9369 233.705 89.7006 221.713 86.4656 209.726C86.4346 209.439 86.29 209.176 86.0631 208.994C85.8361 208.812 85.5449 208.726 85.2524 208.754C81.8589 208.67 78.4728 209.192 75.2576 210.294C72.261 211.306 69.3746 212.616 66.6437 214.204C66.437 214.288 66.2691 214.444 66.1735 214.644C66.0779 214.843 66.0616 215.069 66.1279 215.278C66.8111 219.184 67.4643 223.097 68.1285 226.991C68.9986 232.066 69.8496 237.131 70.6136 242.171C71.0223 244.581 71.45 247.002 71.8706 249.456C73.5314 248.564 75.1242 247.658 76.7639 246.867C80.7702 244.854 85.1018 243.556 89.5564 243.034C89.8326 242.975 90.1181 242.975 90.3936 243.033C90.669 243.092 90.928 243.208 91.1531 243.374C91.3782 243.54 91.5641 243.752 91.6982 243.996C91.8324 244.24 91.9118 244.51 91.9309 244.787C91.947 245.051 91.9091 245.316 91.8193 245.567C91.7296 245.817 91.5898 246.047 91.4085 246.244C91.2271 246.441 91.0077 246.6 90.7634 246.712C90.5191 246.824 90.2549 246.887 89.9864 246.897C84.1927 247.746 78.6511 249.848 73.7595 253.051C73.1093 253.449 72.4671 253.876 71.8439 254.313C71.5604 254.565 71.2117 254.734 70.8373 254.802C70.4629 254.869 70.0777 254.832 69.7253 254.694C69.3729 254.557 69.0675 254.325 68.8434 254.024C68.6194 253.723 68.4858 253.366 68.4577 252.992C68.0669 250.768 67.7251 248.546 67.3493 246.317C66.4951 241.301 65.656 236.281 64.7979 231.25L63.3084 222.506C63.2646 222.344 63.2207 222.181 63.1529 221.93C62.3189 222.203 61.5016 222.524 60.7051 222.892C60.5675 223.018 60.4606 223.173 60.3926 223.345C60.3246 223.517 60.2972 223.702 60.3125 223.886C60.5903 226.109 60.9281 228.316 61.2469 230.513C62.0026 235.761 62.7394 240.999 63.4911 246.233C64.0968 250.508 64.7112 254.775 65.3343 259.034C65.3355 259.277 65.4011 259.515 65.5246 259.725C65.6481 259.934 65.8253 260.107 66.0386 260.228C66.2518 260.348 66.4937 260.411 66.7403 260.41C66.9869 260.41 67.2296 260.345 67.4443 260.224C71.819 258.52 76.1858 256.787 80.5646 255.098C84.0169 253.739 87.4803 252.36 90.9596 251.041C91.7038 250.75 92.5041 250.629 93.2996 250.689C94.095 250.749 94.8645 250.988 95.5493 251.387C96.1929 251.778 96.9122 252.034 97.6627 252.14C98.4132 252.245 99.1789 252.197 99.9124 251.999C100.646 251.801 101.332 251.457 101.927 250.989C102.523 250.52 103.016 249.937 103.375 249.275C103.948 248.433 104.717 247.738 105.616 247.247C106.516 246.756 107.52 246.484 108.544 246.454C115.658 245.405 122.752 244.283 129.854 243.191C130.614 243.081 131.408 242.978 132.134 242.861C132.383 242.856 132.626 242.786 132.839 242.658C133.052 242.53 133.227 242.348 133.346 242.132C133.465 241.916 133.524 241.673 133.516 241.428C133.508 241.183 133.434 240.945 133.302 240.739C131.682 236.706 130.036 232.697 128.431 228.66C126.826 224.623 125.016 220.246 123.318 216.044C123.138 215.68 123.081 215.269 123.156 214.869C123.231 214.47 123.433 214.103 123.734 213.823C123.975 213.56 124.287 213.371 124.634 213.277C124.98 213.184 125.345 213.19 125.686 213.296C126.012 213.407 126.307 213.591 126.546 213.835C126.786 214.079 126.963 214.375 127.064 214.7C127.906 216.803 128.743 218.891 129.596 220.975C131.58 225.86 133.563 230.741 135.545 235.616C136.054 236.905 136.62 238.163 137.099 239.461C137.389 240.219 137.497 241.035 137.416 241.845C137.335 242.655 137.066 243.437 136.63 244.13C136.194 244.824 135.603 245.411 134.902 245.846C134.201 246.281 133.41 246.551 132.589 246.637L110.051 250.184L109.69 250.281C108.96 250.276 108.239 250.451 107.593 250.792C106.947 251.132 106.397 251.627 105.994 252.23C104.71 254.037 102.8 255.319 100.628 255.832C98.4566 256.345 96.176 256.053 94.2226 255.01C93.8308 254.786 93.389 254.66 92.935 254.642C92.481 254.623 92.0284 254.714 91.6159 254.905C84.003 257.927 76.3963 260.851 68.8476 263.871C67.6312 264.378 66.2725 264.428 65.0288 264.013C63.7852 263.598 62.743 262.746 62.0998 261.619C62.0211 261.5 61.9364 261.386 61.8459 261.275L61.3454 259.54Z" fill="black"/>
<path d="M110.474 173.29C111.583 173.486 112.677 173.751 113.751 174.086C115.485 174.73 117.019 175.804 118.207 177.204C119.394 178.604 120.195 180.283 120.534 182.082C121.004 183.826 121.084 185.674 121.372 187.578C123.041 187.492 123.516 188.775 123.79 190.207C124.607 194.254 123.947 198.468 121.925 202.106C121.192 203.509 120.272 204.819 119.422 206.206C119.461 206.245 119.503 206.282 119.548 206.314C121.449 207.387 121.556 207.785 121.176 209.901C120.594 212.567 119.419 215.076 117.737 217.249C116.055 219.422 113.907 221.203 111.449 222.464C110.765 222.855 110.015 223.121 109.335 223.526C109.196 223.609 109.076 223.719 108.981 223.848C108.886 223.977 108.817 224.123 108.78 224.278C108.495 226.147 108.288 228.009 108.037 229.884C107.984 230.3 107.795 230.689 107.499 230.992C107.202 231.295 106.815 231.496 106.395 231.563C105.982 231.638 105.557 231.578 105.185 231.392C104.812 231.207 104.511 230.906 104.329 230.536C104.168 230.116 104.112 229.664 104.166 229.217C104.345 227.488 104.561 225.782 104.807 224.067C104.864 223.828 104.85 223.578 104.768 223.348C104.686 223.117 104.538 222.915 104.343 222.765C100.665 219.55 98.3199 215.108 97.7503 210.279C96.8267 203.381 98.2993 196.359 101.929 190.353C103.492 187.664 105.051 184.961 106.439 182.225C107.474 180.192 108.142 178 108.414 175.748C108.469 174.923 108.834 174.146 109.438 173.569L110.474 173.29ZM109.367 219.048C112.849 217.366 115.525 214.399 116.809 210.794C117.22 209.574 117.265 209.498 116.069 208.949C113.697 207.862 113.769 206.4 115.313 204.715C117.916 202.065 119.577 198.656 120.041 195.007C120.128 194.254 120.117 193.496 120.146 192.648L119.47 192.831C119.161 192.934 118.831 192.959 118.511 192.904C118.191 192.849 117.89 192.715 117.637 192.515C117.384 192.315 117.187 192.055 117.063 191.759C116.94 191.463 116.894 191.141 116.93 190.822C116.95 190.42 117.02 190.021 117.04 189.619C117.365 187.017 117.11 184.381 116.293 181.895C115.984 180.927 115.453 180.044 114.742 179.313C114.031 178.581 113.158 178.022 112.19 177.677C112.147 177.815 112.106 177.905 112.085 178.006C111.431 180.908 110.343 183.701 108.859 186.295C107.283 189.114 105.525 191.855 104.12 194.77C102.626 197.675 101.736 200.842 101.503 204.082C101.27 207.322 101.699 210.57 102.765 213.633C103.369 215.355 104.307 216.943 105.525 218.309C105.563 218.03 105.598 217.862 105.629 217.679C106.171 213.713 106.637 209.767 107.129 205.798C107.538 202.597 107.924 199.37 108.348 196.165C108.349 195.881 108.411 195.6 108.532 195.34C108.653 195.081 108.828 194.85 109.047 194.663C109.266 194.477 109.523 194.338 109.8 194.257C110.077 194.177 110.368 194.156 110.653 194.196C110.918 194.236 111.171 194.33 111.397 194.469C111.623 194.609 111.818 194.793 111.97 195.01C112.122 195.226 112.227 195.472 112.28 195.73C112.333 195.989 112.333 196.256 112.278 196.515C111.92 199.169 111.591 201.81 111.29 204.438C110.649 209.287 110.033 214.113 109.412 219.036L109.367 219.048Z" fill="black"/>
</g>
<defs>
<clipPath id="clip0_551_150">
<rect width="191" height="735" fill="white"/>
</clipPath>
</defs>
</svg>
