<svg width="191" height="735" viewBox="0 0 191 735" fill="none" xmlns="http://www.w3.org/2000/svg">
<g clip-path="url(#clip0_551_151)">
<rect width="191" height="735" fill="white"/>
<rect width="191" height="735" fill="#F9FFF9"/>
<path d="M144.97 673.731C137.118 700.493 109.057 715.823 82.2951 707.97C55.5329 700.118 40.2036 672.057 48.056 645.295C55.9085 618.533 83.9691 603.204 110.731 611.056C137.493 618.908 152.823 646.969 144.97 673.731Z" fill="#4EFA9D"/>
<path d="M90.5755 683.305C87.437 682.406 84.5201 680.863 82.0108 678.775C79.5623 676.769 77.5225 674.311 76.0028 671.535C74.4847 668.749 73.5121 665.7 73.137 662.549C72.7515 659.309 73.0332 656.025 73.9645 652.898C74.8712 649.696 76.4402 646.721 78.5699 644.164C82.6874 639.216 88.5957 636.098 95.0043 635.492C98.3457 635.153 101.721 635.48 104.936 636.453C107.956 637.32 110.796 638.724 113.32 640.598C115.691 642.367 117.718 644.554 119.303 647.051C120.856 649.489 121.902 652.214 122.378 655.064C122.873 658.026 122.672 661.061 121.793 663.932C121.353 665.794 120.538 667.547 119.396 669.082C118.253 670.618 116.809 671.903 115.152 672.86C113.485 673.725 111.659 674.241 109.787 674.379C107.914 674.516 106.033 674.271 104.257 673.659L99.8493 672.366C99.5053 672.259 99.1421 672.23 98.7854 672.28C98.4288 672.33 98.0875 672.457 97.7859 672.654C97.1621 672.998 96.6964 673.571 96.4873 674.252C96.1741 675.214 96.1928 676.253 96.5403 677.204C96.8958 678.111 96.9308 679.112 96.6397 680.041C96.5097 680.685 96.2477 681.295 95.8703 681.832C95.4929 682.37 95.0082 682.823 94.4468 683.164C93.8449 683.449 93.1913 683.609 92.5257 683.633C91.86 683.657 91.1965 683.546 90.5755 683.305ZM83.3311 657.306C84.0252 657.528 84.7749 657.501 85.4514 657.23C86.1278 656.959 86.6888 656.461 87.0381 655.822C87.3873 655.182 87.5029 654.441 87.365 653.725C87.2271 653.01 86.8444 652.365 86.2825 651.901C85.7207 651.437 85.0148 651.183 84.2861 651.183C83.5575 651.183 82.8515 651.436 82.2895 651.9C81.7275 652.364 81.3446 653.009 81.2065 653.724C81.0684 654.44 81.1838 655.181 81.5328 655.821C81.7148 656.178 81.9683 656.495 82.2777 656.75C82.587 657.006 82.9456 657.195 83.3311 657.306ZM93.668 649.488C94.2473 649.661 94.8651 649.657 95.4424 649.477C96.0197 649.297 96.5301 648.949 96.9084 648.478C97.2868 648.006 97.5157 647.432 97.566 646.83C97.6164 646.227 97.4857 645.623 97.1909 645.095C97.0156 644.719 96.7649 644.382 96.4543 644.106C96.1438 643.83 95.7799 643.621 95.3853 643.491C94.9907 643.362 94.5736 643.314 94.16 643.352C93.7463 643.39 93.3448 643.512 92.9802 643.711C92.6157 643.911 92.2958 644.182 92.0405 644.51C91.7851 644.838 91.5997 645.214 91.4956 645.616C91.3915 646.019 91.371 646.438 91.4353 646.848C91.4997 647.259 91.6475 647.651 91.8697 648.002C92.0517 648.36 92.3052 648.676 92.6146 648.932C92.924 649.187 93.2825 649.376 93.668 649.488ZM106.245 653.178C106.825 653.351 107.442 653.348 108.02 653.168C108.597 652.988 109.107 652.64 109.486 652.168C109.864 651.696 110.093 651.123 110.143 650.52C110.194 649.918 110.063 649.314 109.768 648.786C109.593 648.409 109.342 648.073 109.032 647.797C108.721 647.521 108.357 647.312 107.963 647.182C107.568 647.052 107.151 647.005 106.737 647.043C106.324 647.08 105.922 647.203 105.557 647.402C105.193 647.601 104.873 647.873 104.618 648.2C104.362 648.528 104.177 648.905 104.073 649.307C103.969 649.709 103.948 650.128 104.013 650.539C104.077 650.949 104.225 651.342 104.447 651.693C104.629 652.05 104.882 652.367 105.192 652.622C105.501 652.878 105.86 653.067 106.245 653.178ZM111.013 665.428C111.707 665.65 112.457 665.623 113.133 665.352C113.81 665.081 114.371 664.584 114.72 663.944C115.069 663.304 115.185 662.563 115.047 661.848C114.909 661.132 114.526 660.487 113.964 660.023C113.402 659.559 112.697 659.305 111.968 659.305C111.239 659.305 110.533 659.559 109.971 660.022C109.409 660.486 109.026 661.131 108.888 661.847C108.75 662.562 108.865 663.303 109.215 663.943C109.397 664.301 109.65 664.617 109.959 664.873C110.269 665.128 110.627 665.317 111.013 665.428ZM91.6102 679.779C91.9249 679.903 92.2747 679.905 92.5912 679.785C92.7251 679.696 92.8401 679.582 92.9297 679.448C93.0193 679.314 93.0817 679.164 93.1133 679.007C93.1866 678.699 93.1878 678.378 93.1167 678.069C93.0457 677.76 92.9043 677.472 92.7036 677.227C92.2773 676.591 92.2987 675.474 92.7713 673.864C93.2614 672.106 94.3877 670.594 95.9312 669.62C96.6645 669.12 97.502 668.792 98.3804 668.663C99.2588 668.534 100.155 668.606 101.002 668.874L105.292 670.133C107.917 671.029 110.79 670.853 113.287 669.644C114.542 668.93 115.634 667.96 116.491 666.798C117.349 665.636 117.954 664.307 118.267 662.897C119.045 660.517 119.251 657.987 118.868 655.512C118.485 653.037 117.524 650.687 116.062 648.654C113.143 644.417 108.825 641.342 103.866 639.969C101.192 639.122 98.3765 638.821 95.5847 639.083C92.793 639.345 90.0823 640.165 87.6132 641.494C85.1516 642.746 82.9793 644.5 81.236 646.642C79.4927 648.785 78.217 651.268 77.4909 653.933C76.6857 656.55 76.4246 659.305 76.7235 662.027C77.0225 664.75 77.8753 667.382 79.2293 669.763C80.5002 672.189 82.2543 674.329 84.3836 676.051C86.5129 677.774 88.9722 679.042 91.6102 679.779Z" fill="black"/>
<circle cx="96.5" cy="65.5" r="28.5" fill="#4EFA9D"/>
<path d="M99.7671 62.0857C99.7883 61.9141 99.867 61.7568 100.003 61.6139C100.14 61.471 100.285 61.3799 100.438 61.3407C101.354 61.1342 102.283 61.0019 103.225 60.9439C104.168 60.8858 105.136 60.9181 106.13 61.0407C106.774 61.12 107.398 61.2333 108.003 61.3806C108.608 61.5278 109.195 61.709 109.762 61.9242C109.93 62.003 110.078 62.1301 110.205 62.3055C110.332 62.4808 110.383 62.6687 110.358 62.8689C110.319 63.1836 110.18 63.4132 109.939 63.5578C109.699 63.7024 109.423 63.712 109.112 63.5865C108.632 63.3821 108.126 63.2109 107.594 63.0726C107.062 62.9344 106.503 62.8292 105.919 62.7571C105.071 62.6526 104.242 62.6303 103.433 62.6902C102.624 62.7502 101.82 62.8907 101.021 63.1116C100.594 63.2041 100.266 63.1564 100.037 62.9684C99.8076 62.7804 99.7177 62.4862 99.7671 62.0857ZM98.603 71.526C98.6242 71.3544 98.7038 71.1899 98.842 71.0327C98.9801 70.8755 99.1258 70.7773 99.2791 70.7381C100.195 70.5316 101.123 70.4065 102.064 70.3627C103.005 70.319 103.972 70.3584 104.966 70.481C105.61 70.5603 106.234 70.6736 106.839 70.8209C107.444 70.9681 108.031 71.1493 108.598 71.3644C108.766 71.4433 108.914 71.5704 109.041 71.7458C109.168 71.9211 109.219 72.1089 109.194 72.3092C109.155 72.6239 109.015 72.8535 108.775 72.9981C108.534 73.1427 108.259 73.1523 107.948 73.0268C107.468 72.8224 106.962 72.6512 106.43 72.5129C105.898 72.3747 105.339 72.2695 104.755 72.1974C103.907 72.0928 103.079 72.0634 102.272 72.1091C101.465 72.1547 100.661 72.288 99.8623 72.509C99.4352 72.6015 99.1063 72.561 98.8753 72.3873C98.6444 72.2136 98.5536 71.9265 98.603 71.526ZM99.1851 66.8059C99.2062 66.6342 99.285 66.4769 99.4214 66.334C99.5577 66.1911 99.7026 66.1001 99.8558 66.0609C100.772 65.8544 101.701 65.7221 102.643 65.664C103.586 65.606 104.554 65.6383 105.548 65.7609C106.192 65.8402 106.816 65.9535 107.421 66.1007C108.026 66.2479 108.613 66.4291 109.18 66.6443C109.348 66.7231 109.496 66.8503 109.623 67.0256C109.75 67.201 109.801 67.3888 109.776 67.589C109.737 67.9037 109.597 68.1334 109.357 68.278C109.116 68.4226 108.841 68.4321 108.53 68.3066C108.05 68.1023 107.544 67.931 107.012 67.7928C106.48 67.6546 105.921 67.5494 105.337 67.4773C104.489 67.3727 103.66 67.3504 102.851 67.4104C102.042 67.4704 101.238 67.6108 100.439 67.8317C100.012 67.9243 99.6839 67.8766 99.4547 67.6886C99.2256 67.5006 99.1357 67.2063 99.1851 66.8059ZM84.4518 73.6146C86.0309 73.8093 87.5368 74.1765 88.9695 74.7162C90.4021 75.2558 91.7908 75.9716 93.1355 76.8635L95.3949 58.5407C94.1848 57.5203 92.8412 56.6794 91.3642 56.018C89.8872 55.3567 88.3591 54.9287 86.78 54.734C85.6688 54.5969 84.5627 54.5985 83.4619 54.7387C82.361 54.8788 81.2449 55.0824 80.1135 55.3495L77.8171 73.9726C78.773 73.6839 79.84 73.5178 81.018 73.4743C82.196 73.4308 83.3406 73.4775 84.4518 73.6146ZM95.7674 77.188C97.3177 76.6531 98.8167 76.2934 100.264 76.1089C101.712 75.9244 103.226 75.9295 104.805 76.1243C105.916 76.2613 107.053 76.4886 108.216 76.8063C109.379 77.124 110.367 77.4782 111.18 77.8688L113.45 59.4602C112.516 58.8513 111.507 58.3639 110.424 57.998C109.341 57.6322 108.244 57.3807 107.133 57.2437C105.554 57.049 103.997 57.0966 102.462 57.3865C100.927 57.6764 99.4485 58.1693 98.0267 58.8653L95.7674 77.188ZM94.0334 80.4157C93.7995 80.3868 93.5901 80.3392 93.4053 80.2729C93.2206 80.2065 93.0621 80.1071 92.93 79.9747C91.6579 78.9756 90.2751 78.1516 88.7817 77.5028C87.2883 76.854 85.7374 76.4304 84.1291 76.2321C83.0471 76.0987 81.9785 76.0976 80.9232 76.2288C79.868 76.3601 78.8057 76.5486 77.7364 76.7943C77.025 77.026 76.3796 76.9029 75.8003 76.4248C75.2209 75.9468 74.9771 75.3359 75.0689 74.5921L77.5187 54.7246C77.5716 54.2955 77.7225 53.9148 77.9713 53.5824C78.2201 53.2501 78.5615 53.009 78.9956 52.8593C80.2943 52.4386 81.6257 52.1744 82.9898 52.0667C84.3538 51.959 85.7231 51.9899 87.0975 52.1593C88.9397 52.3865 90.7009 52.8505 92.3808 53.5514C94.0608 54.2523 95.5994 55.1971 96.9965 56.3858C98.6114 55.5685 100.304 55.0221 102.075 54.7468C103.845 54.4714 105.637 54.4455 107.45 54.669C108.825 54.8385 110.153 55.1403 111.436 55.5743C112.718 56.0083 113.938 56.5872 115.096 57.3107C115.48 57.5615 115.76 57.8792 115.936 58.2638C116.111 58.6484 116.172 59.0553 116.119 59.4844L113.669 79.3519C113.57 80.1529 113.166 80.7202 112.457 81.0539C111.748 81.3876 111.097 81.3145 110.503 80.8347C109.558 80.3116 108.589 79.8653 107.595 79.496C106.602 79.1266 105.564 78.8752 104.482 78.7418C102.903 78.5471 101.325 78.5848 99.7477 78.855C98.1707 79.1252 96.6584 79.5922 95.2109 80.2559C95.0506 80.3523 94.8728 80.4103 94.6774 80.4297C94.482 80.4492 94.2674 80.4445 94.0334 80.4157Z" fill="black"/>
</g>
<defs>
<clipPath id="clip0_551_151">
<rect width="191" height="735" fill="white"/>
</clipPath>
</defs>
</svg>
