<svg width="1161" height="735" viewBox="0 0 1161 735" fill="none" xmlns="http://www.w3.org/2000/svg">
<g clip-path="url(#clip0_457_28)">
<rect width="1161" height="735" fill="white"/>
<rect width="1161" height="735" fill="#F6FDFF"/>
<path d="M109.422 280.818C106.98 263.036 119.415 246.64 137.198 244.198L362.087 213.314C379.869 210.871 396.264 223.307 398.707 241.09C401.149 258.872 388.713 275.267 370.931 277.709L331.798 283.083L338.743 293.233L308.021 286.349L146.041 308.594C128.259 311.036 111.864 298.6 109.422 280.818Z" fill="url(#paint0_linear_457_28)"/>
<rect x="766.362" y="469.403" width="292" height="65" rx="32.5" transform="rotate(4.89779 766.362 469.403)" fill="url(#paint1_linear_457_28)"/>
<rect x="620.814" y="110.093" width="376" height="63" rx="31.5" transform="rotate(5.63548 620.814 110.093)" stroke="#36AEE5" stroke-width="2"/>
<path d="M654.397 159.631L657.253 130.68L660.759 131.026L659.487 143.918L674.923 145.441L676.195 132.549L679.701 132.895L676.844 161.846L673.339 161.5L674.616 148.551L659.18 147.028L657.902 159.976L654.397 159.631ZM683.908 162.543L686.051 140.83L689.387 141.159L687.244 162.872L683.908 162.543ZM688.104 137.378C687.454 137.314 686.915 137.038 686.487 136.548C686.069 136.06 685.891 135.504 685.952 134.882C686.014 134.26 686.297 133.751 686.803 133.353C687.318 132.957 687.9 132.791 688.55 132.855C689.201 132.919 689.735 133.195 690.153 133.684C690.58 134.173 690.763 134.729 690.702 135.351C690.641 135.973 690.353 136.482 689.838 136.879C689.332 137.276 688.754 137.443 688.104 137.378ZM702.628 164.847C700.593 164.646 698.887 163.992 697.512 162.886C696.137 161.78 695.136 160.344 694.511 158.579C693.886 156.814 693.681 154.848 693.894 152.68C694.112 150.475 694.709 148.569 695.686 146.962C696.673 145.347 697.944 144.135 699.499 143.327C701.064 142.511 702.827 142.2 704.787 142.393C706.313 142.544 707.661 142.962 708.831 143.649C710 144.335 710.926 145.226 711.607 146.321C712.289 147.416 712.657 148.651 712.712 150.027L709.376 149.697C709.219 148.683 708.74 147.75 707.939 146.901C707.148 146.042 706.018 145.541 704.548 145.396C703.247 145.267 702.073 145.494 701.026 146.076C699.99 146.649 699.138 147.521 698.47 148.693C697.813 149.855 697.403 151.256 697.242 152.896C697.076 154.574 697.196 156.06 697.601 157.356C698.015 158.653 698.674 159.694 699.577 160.478C700.489 161.262 701.605 161.72 702.924 161.85C703.791 161.935 704.593 161.862 705.329 161.63C706.066 161.399 706.707 161.024 707.253 160.507C707.799 159.99 708.214 159.346 708.5 158.575L711.836 158.904C711.521 160.167 710.941 161.275 710.095 162.229C709.259 163.174 708.204 163.889 706.929 164.372C705.664 164.846 704.23 165.005 702.628 164.847ZM725.644 167.118C723.552 166.911 721.793 166.271 720.367 165.198C718.951 164.116 717.916 162.701 717.26 160.952C716.615 159.195 716.403 157.204 716.622 154.98C716.842 152.756 717.44 150.836 718.418 149.219C719.406 147.595 720.678 146.378 722.232 145.571C723.797 144.754 725.56 144.443 727.52 144.636C728.651 144.748 729.749 145.047 730.815 145.532C731.88 146.018 732.823 146.73 733.644 147.667C734.466 148.595 735.077 149.778 735.478 151.217C735.878 152.655 735.978 154.387 735.779 156.413L735.639 157.827L718.902 156.175L719.187 153.292L732.531 154.609C732.652 153.383 732.515 152.266 732.12 151.256C731.734 150.248 731.121 149.421 730.28 148.777C729.449 148.134 728.431 147.752 727.224 147.633C725.896 147.502 724.713 147.719 723.678 148.282C722.652 148.838 721.829 149.613 721.207 150.608C720.586 151.603 720.216 152.699 720.098 153.896L719.908 155.818C719.746 157.458 719.892 158.876 720.345 160.072C720.808 161.259 721.519 162.2 722.478 162.894C723.439 163.579 724.592 163.988 725.94 164.121C726.816 164.207 727.62 164.163 728.351 163.988C729.092 163.804 729.747 163.488 730.315 163.04C730.883 162.582 731.346 161.99 731.703 161.264L734.837 162.487C734.39 163.546 733.725 164.451 732.842 165.202C731.96 165.942 730.907 166.486 729.683 166.831C728.461 167.167 727.114 167.263 725.644 167.118ZM756.005 157.153L755.698 160.263L743.711 159.08L744.018 155.97L756.005 157.153ZM745.73 146.719L743.588 168.432L740.252 168.102L742.394 146.39L745.73 146.719ZM759.47 148.075L757.328 169.787L753.992 169.458L756.134 147.745L759.47 148.075ZM763.918 170.438L766.061 148.725L769.397 149.054L767.254 170.767L763.918 170.438ZM768.114 145.274C767.464 145.209 766.925 144.933 766.497 144.443C766.079 143.955 765.901 143.399 765.962 142.777C766.024 142.155 766.307 141.646 766.813 141.248C767.327 140.852 767.91 140.686 768.56 140.75C769.211 140.814 769.745 141.091 770.163 141.579C770.59 142.068 770.773 142.624 770.712 143.246C770.651 143.868 770.362 144.377 769.848 144.774C769.342 145.171 768.764 145.338 768.114 145.274ZM774.454 152.693L774.761 149.583L792.402 151.324L792.095 154.434L784.971 153.731L783.135 172.334L779.799 172.005L781.635 153.402L774.454 152.693ZM811.377 162.617L811.07 165.727L799.083 164.544L799.39 161.434L811.377 162.617ZM801.102 152.183L798.96 173.895L795.623 173.566L797.766 151.854L801.102 152.183ZM814.842 153.539L812.7 175.251L809.364 174.922L811.506 153.209L814.842 153.539ZM823.111 171.311L835.229 155.55L839.074 155.93L836.931 177.642L833.595 177.313L835.252 160.52L823.191 176.287L819.29 175.902L821.432 154.189L824.768 154.518L823.111 171.311ZM862.758 158.267L860.922 176.869L863.976 177.171L862.977 187.292L859.641 186.963L860.333 179.951L843.539 178.294L845.682 156.582L849.018 156.911L847.182 175.514L857.586 176.54L859.422 157.937L862.758 158.267ZM881.977 182.087L883.819 163.428L878.051 162.859C876.751 162.73 875.699 162.931 874.895 163.461C874.091 163.99 873.636 164.783 873.532 165.839C873.43 166.875 873.684 167.723 874.295 168.383C874.915 169.044 875.814 169.432 876.992 169.548L884.003 170.24L883.696 173.35L876.685 172.658C875.214 172.513 873.973 172.129 872.959 171.506C871.945 170.882 871.198 170.062 870.718 169.044C870.239 168.016 870.065 166.838 870.196 165.509C870.328 164.171 870.743 163.051 871.441 162.149C872.139 161.248 873.075 160.593 874.247 160.185C875.429 159.779 876.798 159.652 878.353 159.805L887.286 160.687L885.144 182.4L881.977 182.087ZM867.502 180.659L874.731 170.467L878.35 170.824L871.121 181.016L867.502 180.659Z" fill="black"/>
<path d="M941.351 182.017L956.822 169.325L954.754 166.86L941.798 177.489L936.416 170.929L933.956 172.947L941.351 182.017ZM943.216 193.154C940.397 192.876 937.826 192.112 935.504 190.861C933.182 189.61 931.214 188.001 929.6 186.033C927.985 184.065 926.792 181.82 926.019 179.299C925.246 176.777 924.999 174.107 925.277 171.287C925.552 168.501 926.315 165.947 927.565 163.625C928.816 161.303 930.425 159.335 932.393 157.72C934.362 156.106 936.607 154.904 939.13 154.114C941.653 153.325 944.325 153.069 947.144 153.348C949.931 153.623 952.484 154.394 954.804 155.661C957.124 156.928 959.091 158.546 960.706 160.514C962.321 162.482 963.523 164.728 964.312 167.251C965.101 169.774 965.358 172.429 965.084 175.215C964.805 178.035 964.033 180.605 962.765 182.925C961.498 185.245 959.88 187.212 957.912 188.827C955.944 190.441 953.699 191.635 951.178 192.408C948.657 193.18 946.003 193.429 943.216 193.154ZM943.511 190.169C948.321 190.644 952.502 189.423 956.056 186.508C959.609 183.593 961.623 179.73 962.098 174.92C962.573 170.11 961.352 165.929 958.437 162.375C955.522 158.822 951.66 156.808 946.85 156.333C942.04 155.859 937.858 157.079 934.304 159.994C930.751 162.909 928.737 166.772 928.262 171.582C927.788 176.392 929.008 180.573 931.923 184.127C934.838 187.68 938.701 189.694 943.511 190.169Z" fill="black"/>
<path d="M180.252 256.363L184.21 285.183L180.72 285.662L177.187 259.938L162.665 261.932L166.197 287.657L162.707 288.136L158.749 259.316L180.252 256.363ZM197.725 283.843C196.355 284.031 195.077 283.944 193.89 283.581C192.701 283.209 191.711 282.576 190.919 281.681C190.126 280.777 189.632 279.621 189.439 278.214C189.269 276.975 189.375 275.938 189.757 275.102C190.138 274.256 190.706 273.557 191.462 273.004C192.218 272.451 193.073 271.999 194.029 271.647C194.992 271.286 195.967 270.97 196.953 270.701C198.243 270.352 199.29 270.079 200.095 269.882C200.908 269.675 201.487 269.438 201.832 269.171C202.187 268.902 202.328 268.5 202.255 267.966L202.239 267.853C202.049 266.465 201.521 265.438 200.655 264.773C199.799 264.107 198.606 263.879 197.077 264.089C195.491 264.306 194.296 264.824 193.491 265.642C192.685 266.46 192.154 267.288 191.896 268.126L188.589 267.434C188.972 266.043 189.582 264.917 190.42 264.057C191.265 263.185 192.227 262.528 193.303 262.083C194.388 261.629 195.474 261.326 196.562 261.177C197.257 261.082 198.066 261.057 198.989 261.102C199.921 261.136 200.844 261.349 201.758 261.739C202.681 262.129 203.495 262.796 204.198 263.741C204.901 264.687 205.371 266.018 205.607 267.735L207.563 281.976L204.242 282.432L203.84 279.505L203.671 279.528C203.51 280.028 203.204 280.582 202.752 281.189C202.3 281.795 201.663 282.346 200.842 282.842C200.021 283.337 198.982 283.671 197.725 283.843ZM197.822 280.79C199.136 280.61 200.207 280.2 201.037 279.56C201.876 278.919 202.469 278.159 202.817 277.28C203.174 276.399 203.291 275.508 203.167 274.608L202.75 271.568C202.632 271.756 202.344 271.954 201.885 272.16C201.433 272.356 200.905 272.548 200.3 272.736C199.704 272.914 199.119 273.08 198.548 273.235C197.985 273.379 197.528 273.499 197.178 273.595C196.33 273.826 195.549 274.12 194.833 274.476C194.125 274.822 193.576 275.275 193.184 275.835C192.801 276.385 192.667 277.082 192.783 277.926C192.942 279.08 193.488 279.894 194.423 280.368C195.366 280.831 196.499 280.972 197.822 280.79ZM212.206 281.338L211.781 278.242L212.569 278.134C213.216 278.045 213.738 277.845 214.135 277.532C214.53 277.21 214.815 276.707 214.989 276.024C215.171 275.33 215.252 274.391 215.233 273.209C215.222 272.016 215.125 270.509 214.942 268.689L214.022 259.066L228.432 257.087L231.401 278.702L228.08 279.158L225.536 260.639L217.599 261.729L218.321 269.487C218.489 271.271 218.544 272.854 218.486 274.239C218.436 275.613 218.229 276.788 217.866 277.765C217.513 278.741 216.969 279.513 216.234 280.083C215.5 280.652 214.532 281.019 213.332 281.184L212.206 281.338ZM250.992 276.012L248.441 257.436L242.7 258.225C241.405 258.402 240.428 258.842 239.77 259.545C239.111 260.247 238.854 261.123 238.998 262.174C239.14 263.206 239.584 263.972 240.332 264.471C241.088 264.97 242.053 265.138 243.226 264.977L250.206 264.019L250.631 267.114L243.651 268.073C242.187 268.274 240.89 268.189 239.759 267.819C238.628 267.449 237.711 266.824 237.007 265.946C236.302 265.058 235.859 263.953 235.677 262.63C235.494 261.298 235.637 260.112 236.106 259.073C236.575 258.033 237.332 257.179 238.378 256.51C239.433 255.839 240.734 255.397 242.282 255.185L251.176 253.963L254.145 275.579L250.992 276.012ZM236.582 277.991L241.241 266.397L244.844 265.902L240.185 277.496L236.582 277.991ZM273.51 260.359L273.936 263.455L262.002 265.094L261.577 261.998L273.51 260.359ZM261.089 252.602L264.058 274.217L260.737 274.673L257.768 253.058L261.089 252.602ZM274.768 250.724L277.736 272.339L274.415 272.795L271.447 251.18L274.768 250.724ZM286.945 266.085L295.063 247.936L298.891 247.411L301.859 269.026L298.538 269.482L296.242 252.764L288.181 270.904L284.297 271.438L281.328 249.823L284.65 249.366L286.945 266.085ZM322.469 244.173L325.012 262.692L328.052 262.275L329.435 272.35L326.114 272.807L325.156 265.827L308.438 268.123L305.469 246.507L308.79 246.051L311.333 264.57L321.691 263.148L319.147 244.629L322.469 244.173ZM346.703 262.867L344.152 244.292L338.411 245.08C337.116 245.258 336.139 245.698 335.481 246.4C334.822 247.102 334.565 247.979 334.709 249.03C334.851 250.062 335.295 250.827 336.043 251.327C336.799 251.825 337.764 251.994 338.937 251.833L345.917 250.874L346.342 253.97L339.362 254.929C337.898 255.13 336.601 255.045 335.47 254.675C334.339 254.304 333.422 253.68 332.718 252.802C332.013 251.914 331.57 250.809 331.388 249.486C331.205 248.154 331.348 246.968 331.817 245.928C332.286 244.889 333.043 244.035 334.089 243.365C335.144 242.695 336.445 242.253 337.993 242.041L346.887 240.819L349.856 262.434L346.703 262.867ZM332.293 264.846L336.952 253.252L340.555 252.758L335.896 264.352L332.293 264.846Z" fill="white"/>
<path d="M825.882 521.675L828.365 492.69L845.858 494.189L845.591 497.303L831.608 496.105L830.832 505.162L838.192 505.793C840.267 505.971 841.988 506.461 843.355 507.262C844.731 508.064 845.734 509.115 846.364 510.414C847.003 511.714 847.251 513.203 847.107 514.883C846.963 516.562 846.464 518.012 845.608 519.231C844.762 520.451 843.591 521.363 842.095 521.967C840.608 522.571 838.826 522.784 836.751 522.606L825.882 521.675ZM829.653 518.919L837.013 519.549C838.334 519.663 839.474 519.494 840.435 519.044C841.406 518.586 842.163 517.957 842.706 517.158C843.26 516.35 843.578 515.474 843.659 514.53C843.778 513.143 843.347 511.904 842.366 510.813C841.387 509.712 839.906 509.076 837.925 508.907L830.565 508.276L829.653 518.919ZM858.551 524.988C857.174 524.87 855.946 524.503 854.867 523.888C853.79 523.263 852.963 522.427 852.388 521.38C851.813 520.323 851.586 519.087 851.707 517.672C851.814 516.427 852.146 515.438 852.703 514.707C853.261 513.966 853.969 513.408 854.828 513.035C855.687 512.662 856.621 512.41 857.63 512.278C858.65 512.137 859.67 512.044 860.691 511.998C862.026 511.941 863.108 511.906 863.936 511.891C864.774 511.868 865.392 511.764 865.788 511.579C866.193 511.396 866.419 511.035 866.465 510.497L866.475 510.384C866.594 508.987 866.305 507.87 865.607 507.03C864.919 506.192 863.805 505.707 862.268 505.575C860.673 505.438 859.393 505.68 858.427 506.301C857.462 506.922 856.761 507.612 856.325 508.373L853.252 506.97C853.931 505.697 854.774 504.733 855.781 504.078C856.798 503.415 857.88 502.985 859.028 502.788C860.186 502.583 861.312 502.528 862.407 502.622C863.105 502.681 863.899 502.835 864.791 503.083C865.692 503.321 866.546 503.732 867.351 504.314C868.166 504.897 868.813 505.727 869.29 506.804C869.768 507.881 869.933 509.283 869.786 511.01L868.558 525.332L865.218 525.046L865.47 522.102L865.301 522.088C865.034 522.54 864.613 523.012 864.039 523.505C863.464 523.997 862.722 524.395 861.812 524.697C860.902 524.999 859.815 525.096 858.551 524.988ZM859.318 522.031C860.639 522.144 861.774 521.98 862.724 521.539C863.684 521.098 864.43 520.488 864.963 519.706C865.505 518.926 865.815 518.083 865.892 517.177L866.154 514.12C865.998 514.278 865.674 514.407 865.18 514.507C864.697 514.599 864.14 514.67 863.508 514.72C862.887 514.762 862.281 514.795 861.689 514.821C861.108 514.838 860.636 514.854 860.273 514.871C859.396 514.909 858.568 515.024 857.792 515.214C857.025 515.395 856.39 515.716 855.884 516.177C855.39 516.629 855.106 517.279 855.033 518.128C854.934 519.289 855.288 520.203 856.095 520.871C856.913 521.53 857.987 521.917 859.318 522.031ZM875.153 525.897L877.015 504.159L885.903 504.92C888.243 505.121 890.057 505.808 891.344 506.983C892.631 508.158 893.2 509.613 893.051 511.349C892.938 512.67 892.458 513.661 891.613 514.32C890.769 514.97 889.722 515.37 888.474 515.519C889.266 515.701 890.02 516.051 890.736 516.569C891.462 517.087 892.04 517.764 892.472 518.599C892.905 519.425 893.073 520.409 892.975 521.551C892.88 522.664 892.511 523.635 891.87 524.464C891.229 525.293 890.358 525.917 889.258 526.336C888.157 526.755 886.871 526.901 885.399 526.775L875.153 525.897ZM878.585 523.112L885.661 523.718C886.812 523.817 887.737 523.62 888.435 523.129C889.133 522.638 889.522 521.92 889.603 520.977C889.699 519.854 889.449 518.944 888.853 518.246C888.258 517.54 887.385 517.137 886.234 517.038L879.157 516.432L878.585 523.112ZM879.405 513.545L885.122 514.035C886.019 514.111 886.798 514.055 887.461 513.864C888.124 513.665 888.645 513.348 889.025 512.915C889.414 512.473 889.637 511.931 889.692 511.29C889.77 510.374 889.449 509.625 888.73 509.04C888.011 508.446 886.981 508.092 885.641 507.977L879.924 507.487L879.405 513.545ZM906.822 529.067C904.86 528.899 903.178 528.284 901.777 527.223C900.385 526.163 899.346 524.758 898.659 523.007C897.982 521.257 897.74 519.26 897.932 517.014C898.126 514.75 898.706 512.808 899.672 511.19C900.647 509.572 901.91 508.359 903.462 507.551C905.024 506.744 906.786 506.425 908.748 506.593C910.711 506.761 912.388 507.375 913.78 508.435C915.181 509.496 916.22 510.906 916.896 512.666C917.581 514.426 917.827 516.438 917.633 518.702C917.441 520.948 916.857 522.875 915.883 524.483C914.918 526.092 913.655 527.3 912.094 528.108C910.542 528.915 908.785 529.235 906.822 529.067ZM907.079 526.067C908.57 526.195 909.829 525.918 910.857 525.236C911.885 524.554 912.684 523.61 913.253 522.404C913.822 521.199 914.168 519.869 914.293 518.416C914.417 516.963 914.302 515.589 913.948 514.295C913.593 513 912.967 511.925 912.071 511.069C911.175 510.213 909.982 509.721 908.491 509.593C907 509.465 905.741 509.747 904.712 510.438C903.683 511.13 902.884 512.083 902.314 513.298C901.744 514.513 901.397 515.847 901.272 517.3C901.148 518.753 901.264 520.122 901.619 521.407C901.975 522.693 902.601 523.758 903.498 524.605C904.395 525.452 905.589 525.939 907.079 526.067ZM922.308 529.938L924.171 508.199L933.059 508.961C935.399 509.162 937.212 509.849 938.499 511.024C939.786 512.199 940.355 513.654 940.206 515.39C940.093 516.711 939.614 517.701 938.768 518.361C937.924 519.011 936.877 519.41 935.629 519.56C936.421 519.742 937.175 520.092 937.891 520.609C938.617 521.128 939.196 521.805 939.628 522.64C940.061 523.466 940.228 524.45 940.13 525.591C940.035 526.705 939.667 527.676 939.025 528.505C938.384 529.334 937.513 529.958 936.413 530.377C935.313 530.796 934.026 530.942 932.554 530.816L922.308 529.938ZM925.74 527.153L932.816 527.759C933.968 527.858 934.892 527.661 935.59 527.17C936.288 526.678 936.677 525.961 936.758 525.017C936.854 523.895 936.604 522.985 936.008 522.287C935.413 521.58 934.54 521.178 933.389 521.079L926.313 520.473L925.74 527.153ZM926.56 517.585L932.278 518.075C933.174 518.152 933.953 518.095 934.616 517.905C935.279 517.705 935.801 517.389 936.18 516.956C936.57 516.514 936.792 515.972 936.847 515.33C936.925 514.415 936.605 513.665 935.885 513.081C935.166 512.487 934.136 512.133 932.797 512.018L927.079 511.528L926.56 517.585ZM960.796 520.747L960.53 523.861L948.528 522.832L948.795 519.719L960.796 520.747ZM950.388 510.446L948.525 532.185L945.185 531.898L947.048 510.16L950.388 510.446ZM964.144 511.625L962.281 533.363L958.941 533.077L960.804 511.339L964.144 511.625ZM975.233 534.986C973.855 534.868 972.627 534.502 971.549 533.887C970.472 533.262 969.645 532.426 969.069 531.379C968.495 530.322 968.268 529.086 968.389 527.671C968.496 526.425 968.828 525.437 969.385 524.705C969.942 523.964 970.651 523.407 971.51 523.034C972.368 522.661 973.303 522.408 974.312 522.276C975.331 522.135 976.352 522.042 977.372 521.997C978.708 521.94 979.79 521.904 980.618 521.89C981.456 521.867 982.073 521.763 982.469 521.578C982.875 521.394 983.101 521.033 983.147 520.496L983.156 520.382C983.276 518.986 982.987 517.868 982.289 517.029C981.6 516.191 980.487 515.706 978.949 515.574C977.355 515.437 976.075 515.679 975.109 516.3C974.143 516.92 973.443 517.611 973.007 518.372L969.934 516.968C970.613 515.696 971.456 514.732 972.462 514.077C973.479 513.413 974.562 512.983 975.709 512.787C976.868 512.582 977.994 512.526 979.088 512.62C979.786 512.68 980.581 512.834 981.472 513.081C982.374 513.32 983.227 513.731 984.033 514.313C984.848 514.896 985.494 515.726 985.972 516.803C986.45 517.88 986.615 519.282 986.467 521.008L985.24 535.331L981.9 535.044L982.152 532.101L981.982 532.086C981.715 532.539 981.295 533.011 980.72 533.503C980.146 533.996 979.404 534.393 978.494 534.696C977.584 534.998 976.497 535.095 975.233 534.986ZM975.999 532.03C977.32 532.143 978.456 531.979 979.406 531.538C980.366 531.097 981.112 530.486 981.645 529.705C982.187 528.924 982.497 528.081 982.574 527.176L982.836 524.119C982.68 524.276 982.355 524.405 981.862 524.506C981.379 524.597 980.822 524.668 980.19 524.719C979.569 524.761 978.962 524.794 978.371 524.819C977.79 524.836 977.318 524.853 976.955 524.869C976.077 524.908 975.25 525.023 974.474 525.213C973.707 525.394 973.071 525.715 972.566 526.175C972.071 526.627 971.787 527.278 971.715 528.127C971.615 529.287 971.969 530.202 972.777 530.87C973.595 531.529 974.669 531.916 975.999 532.03Z" fill="black"/>
<path d="M397.812 250.903L479.812 338.403L663.812 278.403L761.312 187.403M479.812 601.403C491.012 586.203 525.812 521.736 541.812 491.403M761.312 491.403L711.812 468.403" stroke="#7AD6FF" stroke-width="2" stroke-dasharray="14 14"/>
<path d="M760.812 388.403C760.812 476.768 689.178 548.403 600.812 548.403C512.447 548.403 440.812 476.768 440.812 388.403C440.812 300.037 512.447 228.403 600.812 228.403C689.178 228.403 760.812 300.037 760.812 388.403Z" fill="#36AEE5"/>
<path d="M632.527 338.691C625.12 373.89 625.12 392.774 625.12 392.774C625.12 392.774 636.785 391.506 638.528 401.883C639.935 411.124 632.527 414.127 623.31 416.229C621.298 412.159 618.785 407.087 616.103 401.883C609.632 388.676 606.382 374.136 606.617 359.444V300.957C607.281 292.833 604.799 284.764 599.678 278.403C594.558 284.764 592.076 292.833 592.74 300.957V359.444C592.975 374.136 589.725 388.676 583.254 401.883C580.572 407.087 578.058 412.159 576.047 416.229C566.829 414.127 559.287 411.124 560.829 401.883C562.438 391.506 574.237 392.774 574.237 392.774C574.237 392.774 574.237 373.89 566.863 338.691C559.488 303.492 533.812 293.416 533.812 293.416V453.13H571.623C572.48 461.215 575.501 468.923 580.371 475.45C588.449 486.127 599.812 489.463 599.812 496.403C599.812 489.463 611.176 486.127 619.254 475.45C624.124 468.923 627.145 461.215 628.002 453.13H665.812V293.416C665.812 293.416 639.801 303.492 632.527 338.691ZM544.841 317.639C550.745 323.451 555.001 330.714 557.176 338.691C560.025 350.936 562.841 383.032 562.841 383.032C562.841 383.032 552.416 389.705 552.416 397.145H544.841V317.639ZM569.812 440.551H544.841V408.489H551.544C553.026 412.834 555.657 416.702 559.161 419.685C562.665 422.668 566.912 424.655 571.455 425.438C570.503 430.424 569.954 435.478 569.812 440.551ZM594.215 474.816C587.663 469.251 583.275 461.578 581.812 453.13H594.215V474.816ZM594.215 440.551H580.338C580.015 435.992 580.773 431.421 582.55 427.206C595.991 429.808 594.114 440.551 594.114 440.551H594.215ZM599.578 428.607C599.578 423.87 593.645 420.733 585.835 418.598C591.514 408.546 596.131 397.935 599.611 386.935C603.092 397.935 607.709 408.546 613.388 418.598C605.578 420.8 599.645 423.936 599.645 428.607V429.141L599.578 428.607ZM604.907 474.816V453.13H617.31C615.821 461.592 611.396 469.267 604.807 474.816H604.907ZM618.885 440.551H605.008C605.008 440.551 603.131 429.808 616.673 427.206C618.415 431.429 619.139 436 618.784 440.551H618.885ZM654.282 440.551H629.31C629.19 435.48 628.663 430.426 627.734 425.438C632.277 424.655 636.524 422.668 640.028 419.685C643.532 416.702 646.163 412.834 647.645 408.489H654.349L654.282 440.551ZM654.282 397.178H646.505C646.505 389.638 636.081 383.065 636.081 383.065C636.081 383.065 638.896 350.969 641.745 338.725C643.92 330.747 648.176 323.484 654.081 317.672L654.282 397.178Z" fill="#FFCE6D"/>
<path d="M509.812 626.403C509.812 646.285 493.695 662.403 473.812 662.403C453.93 662.403 437.812 646.285 437.812 626.403C437.812 606.52 453.93 590.403 473.812 590.403C493.695 590.403 509.812 606.52 509.812 626.403Z" fill="#7AD6FF" fill-opacity="0.55"/>
<path d="M476.812 619.003C476.812 618.803 476.879 618.611 477.013 618.428C477.146 618.244 477.296 618.119 477.463 618.053C478.463 617.686 479.487 617.403 480.537 617.203C481.587 617.003 482.679 616.903 483.812 616.903C484.546 616.903 485.263 616.944 485.963 617.028C486.663 617.111 487.346 617.236 488.013 617.403C488.213 617.469 488.396 617.594 488.562 617.778C488.729 617.961 488.812 618.169 488.812 618.403C488.812 618.769 488.688 619.053 488.438 619.253C488.188 619.453 487.879 619.503 487.513 619.403C486.946 619.236 486.354 619.111 485.737 619.028C485.121 618.944 484.479 618.903 483.812 618.903C482.846 618.903 481.912 618.994 481.013 619.178C480.113 619.361 479.229 619.636 478.362 620.003C477.896 620.169 477.521 620.161 477.237 619.978C476.954 619.794 476.812 619.469 476.812 619.003ZM476.812 630.003C476.812 629.803 476.879 629.603 477.013 629.403C477.146 629.203 477.296 629.069 477.463 629.003C478.463 628.636 479.487 628.361 480.537 628.178C481.587 627.994 482.679 627.903 483.812 627.903C484.546 627.903 485.263 627.944 485.963 628.028C486.663 628.111 487.346 628.236 488.013 628.403C488.213 628.469 488.396 628.594 488.562 628.778C488.729 628.961 488.812 629.169 488.812 629.403C488.812 629.769 488.688 630.053 488.438 630.253C488.188 630.453 487.879 630.503 487.513 630.403C486.946 630.236 486.354 630.111 485.737 630.028C485.121 629.944 484.479 629.903 483.812 629.903C482.846 629.903 481.912 629.986 481.013 630.153C480.113 630.319 479.229 630.586 478.362 630.953C477.896 631.119 477.521 631.119 477.237 630.953C476.954 630.786 476.812 630.469 476.812 630.003ZM476.812 624.503C476.812 624.303 476.879 624.111 477.013 623.928C477.146 623.744 477.296 623.619 477.463 623.553C478.463 623.186 479.487 622.903 480.537 622.703C481.587 622.503 482.679 622.403 483.812 622.403C484.546 622.403 485.263 622.444 485.963 622.528C486.663 622.611 487.346 622.736 488.013 622.903C488.213 622.969 488.396 623.094 488.562 623.278C488.729 623.461 488.812 623.669 488.812 623.903C488.812 624.269 488.688 624.553 488.438 624.753C488.188 624.953 487.879 625.003 487.513 624.903C486.946 624.736 486.354 624.611 485.737 624.528C485.121 624.444 484.479 624.403 483.812 624.403C482.846 624.403 481.912 624.494 481.013 624.678C480.113 624.861 479.229 625.136 478.362 625.503C477.896 625.669 477.521 625.661 477.237 625.478C476.954 625.294 476.812 624.969 476.812 624.503ZM461.212 634.403C463.013 634.403 464.754 634.611 466.438 635.028C468.121 635.444 469.779 636.069 471.412 636.903V615.553C469.912 614.553 468.288 613.778 466.538 613.228C464.788 612.678 463.013 612.403 461.212 612.403C459.946 612.403 458.704 612.561 457.487 612.878C456.271 613.194 455.046 613.586 453.812 614.053V635.753C454.846 635.286 456.021 634.944 457.337 634.728C458.654 634.511 459.946 634.403 461.212 634.403ZM474.412 636.903C476.079 636.069 477.713 635.444 479.312 635.028C480.912 634.611 482.612 634.403 484.412 634.403C485.679 634.403 486.988 634.503 488.338 634.703C489.688 634.903 490.846 635.169 491.812 635.503V614.053C490.679 613.486 489.479 613.069 488.213 612.803C486.946 612.536 485.679 612.403 484.412 612.403C482.612 612.403 480.871 612.678 479.188 613.228C477.504 613.778 475.912 614.553 474.412 615.553V636.903ZM472.912 640.853C472.646 640.853 472.404 640.828 472.188 640.778C471.971 640.728 471.779 640.636 471.612 640.503C470.046 639.536 468.379 638.786 466.612 638.253C464.846 637.719 463.046 637.453 461.212 637.453C459.979 637.453 458.779 637.603 457.612 637.903C456.446 638.203 455.279 638.569 454.112 639.003C453.346 639.369 452.604 639.319 451.887 638.853C451.171 638.386 450.812 637.719 450.812 636.853V613.703C450.812 613.203 450.929 612.744 451.163 612.328C451.396 611.911 451.746 611.586 452.212 611.353C453.612 610.686 455.071 610.194 456.587 609.878C458.104 609.561 459.646 609.403 461.212 609.403C463.312 609.403 465.354 609.686 467.337 610.253C469.321 610.819 471.179 611.686 472.912 612.853C474.612 611.686 476.438 610.819 478.388 610.253C480.338 609.686 482.346 609.403 484.412 609.403C485.979 609.403 487.513 609.561 489.013 609.878C490.513 610.194 491.962 610.686 493.362 611.353C493.829 611.586 494.188 611.911 494.438 612.328C494.688 612.744 494.812 613.203 494.812 613.703V636.853C494.812 637.786 494.438 638.494 493.688 638.978C492.938 639.461 492.196 639.469 491.463 639.003C490.329 638.536 489.179 638.161 488.013 637.878C486.846 637.594 485.646 637.453 484.412 637.453C482.612 637.453 480.846 637.719 479.112 638.253C477.379 638.786 475.746 639.536 474.213 640.503C474.046 640.636 473.854 640.728 473.638 640.778C473.421 640.828 473.179 640.853 472.912 640.853Z" fill="black"/>
</g>
<defs>
<linearGradient id="paint0_linear_457_28" x1="133" y1="253.5" x2="427" y2="244.5" gradientUnits="userSpaceOnUse">
<stop stop-color="#36AEE5"/>
<stop offset="1" stop-color="#36AEE5" stop-opacity="0"/>
</linearGradient>
<linearGradient id="paint1_linear_457_28" x1="1033.97" y1="475.173" x2="764.272" y2="507.819" gradientUnits="userSpaceOnUse">
<stop stop-color="#FFCE6D"/>
<stop offset="1" stop-color="#FFE794" stop-opacity="0"/>
</linearGradient>
<clipPath id="clip0_457_28">
<rect width="1161" height="735" fill="white"/>
</clipPath>
</defs>
</svg>
