<svg width="758" height="735" viewBox="0 0 758 735" fill="none" xmlns="http://www.w3.org/2000/svg">
<g clip-path="url(#clip0_457_29)">
<rect width="758" height="735" fill="white"/>
<rect width="758" height="735" fill="#F6FDFF"/>
<rect x="110.24" y="154.327" width="376" height="63" rx="31.5" transform="rotate(-16.2296 110.24 154.327)" stroke="#36AEE5" stroke-width="2"/>
<path d="M159.855 187.794L151.724 159.862L155.107 158.878L158.727 171.316L173.621 166.981L170 154.542L173.382 153.558L181.513 181.489L178.131 182.474L174.494 169.981L159.601 174.316L163.237 186.809L159.855 187.794ZM188.328 179.506L182.23 158.557L185.449 157.62L191.547 178.569L188.328 179.506ZM182.85 154.589C182.223 154.772 181.62 154.715 181.041 154.42C180.471 154.123 180.099 153.674 179.924 153.074C179.749 152.474 179.822 151.895 180.144 151.338C180.474 150.778 180.953 150.407 181.58 150.225C182.207 150.042 182.806 150.1 183.376 150.397C183.955 150.692 184.332 151.14 184.506 151.74C184.681 152.34 184.603 152.92 184.273 153.48C183.952 154.037 183.478 154.406 182.85 154.589ZM206.559 174.672C204.596 175.244 202.769 175.272 201.081 174.758C199.393 174.243 197.93 173.283 196.692 171.878C195.455 170.473 194.532 168.725 193.923 166.634C193.304 164.506 193.148 162.515 193.456 160.659C193.771 158.793 194.499 157.195 195.641 155.866C196.79 154.526 198.309 153.581 200.201 153.03C201.674 152.601 203.08 152.488 204.421 152.689C205.762 152.891 206.953 153.372 207.993 154.135C209.034 154.897 209.835 155.906 210.398 157.163L207.18 158.1C206.656 157.216 205.865 156.53 204.805 156.039C203.751 155.537 202.515 155.493 201.097 155.906C199.842 156.271 198.837 156.918 198.082 157.848C197.333 158.766 196.868 159.893 196.684 161.229C196.507 162.552 196.649 164.005 197.11 165.587C197.581 167.206 198.246 168.541 199.104 169.593C199.972 170.642 200.971 171.363 202.1 171.754C203.239 172.142 204.445 172.151 205.718 171.781C206.554 171.537 207.271 171.171 207.868 170.681C208.466 170.192 208.921 169.606 209.235 168.922C209.549 168.239 209.695 167.487 209.673 166.665L212.892 165.728C213.07 167.017 212.944 168.262 212.514 169.462C212.091 170.651 211.377 171.706 210.374 172.63C209.377 173.541 208.105 174.222 206.559 174.672ZM228.766 168.208C226.747 168.796 224.876 168.857 223.153 168.392C221.436 167.915 219.948 166.988 218.689 165.608C217.436 164.218 216.497 162.449 215.872 160.304C215.248 158.158 215.088 156.153 215.394 154.288C215.706 152.413 216.433 150.81 217.574 149.482C218.723 148.141 220.243 147.196 222.134 146.645C223.225 146.328 224.355 146.196 225.525 146.25C226.695 146.304 227.835 146.613 228.946 147.178C230.055 147.733 231.062 148.603 231.97 149.789C232.877 150.975 233.615 152.545 234.184 154.5L234.581 155.864L218.433 160.564L217.623 157.782L230.498 154.034C230.154 152.852 229.611 151.866 228.868 151.076C228.134 150.284 227.258 149.745 226.238 149.46C225.227 149.173 224.139 149.198 222.976 149.537C221.694 149.91 220.677 150.551 219.926 151.46C219.181 152.358 218.705 153.384 218.499 154.538C218.293 155.693 218.358 156.848 218.694 158.003L219.234 159.858C219.694 161.44 220.357 162.701 221.223 163.643C222.095 164.572 223.106 165.181 224.255 165.468C225.401 165.746 226.624 165.695 227.924 165.317C228.77 165.071 229.499 164.73 230.112 164.295C230.732 163.849 231.221 163.312 231.581 162.684C231.938 162.048 232.147 161.326 232.208 160.519L235.572 160.487C235.552 161.637 235.272 162.724 234.732 163.749C234.189 164.765 233.414 165.662 232.407 166.438C231.398 167.205 230.184 167.795 228.766 168.208ZM253.232 147.653L254.105 150.654L242.54 154.02L241.666 151.02L253.232 147.653ZM239.81 141.796L245.908 162.745L242.689 163.682L236.591 142.733L239.81 141.796ZM253.066 137.937L259.164 158.886L255.946 159.823L249.848 138.874L253.066 137.937ZM265.523 157.035L259.425 136.087L262.643 135.15L268.741 156.098L265.523 157.035ZM260.045 132.119C259.418 132.301 258.814 132.245 258.235 131.95C257.665 131.652 257.293 131.204 257.118 130.603C256.944 130.003 257.017 129.425 257.338 128.868C257.668 128.308 258.147 127.937 258.775 127.754C259.402 127.572 260.001 127.629 260.57 127.927C261.149 128.222 261.526 128.669 261.701 129.27C261.876 129.87 261.798 130.45 261.468 131.009C261.147 131.566 260.672 131.936 260.045 132.119ZM268.692 136.644L267.818 133.643L284.839 128.689L285.713 131.689L278.839 133.69L284.063 151.638L280.845 152.575L275.62 134.627L268.692 136.644ZM306.655 132.102L307.528 135.103L295.963 138.47L295.089 135.469L306.655 132.102ZM293.233 126.245L299.331 147.194L296.112 148.131L290.014 127.182L293.233 126.245ZM306.49 122.386L312.588 143.335L309.369 144.272L303.271 123.323L306.49 122.386ZM320.783 135.801L326.159 116.661L329.869 115.581L335.967 136.53L332.748 137.467L328.032 121.264L322.71 140.389L318.946 141.484L312.848 120.536L316.067 119.599L320.783 135.801ZM352.719 108.93L357.944 126.878L360.89 126.02L363.732 135.785L360.514 136.722L358.544 129.958L342.342 134.674L336.244 113.725L339.463 112.788L344.687 130.737L354.725 127.815L349.501 109.867L352.719 108.93ZM379.428 123.879L374.187 105.876L368.623 107.496C367.368 107.861 366.466 108.439 365.917 109.23C365.368 110.021 365.242 110.926 365.539 111.944C365.83 112.944 366.381 113.637 367.194 114.022C368.015 114.404 368.994 114.43 370.131 114.099L376.895 112.13L377.769 115.13L371.004 117.099C369.586 117.512 368.29 117.618 367.117 117.417C365.944 117.216 364.945 116.733 364.121 115.967C363.293 115.192 362.693 114.163 362.32 112.881C361.944 111.59 361.912 110.396 362.224 109.299C362.536 108.202 363.16 107.247 364.097 106.431C365.042 105.614 366.265 104.987 367.765 104.55L376.385 102.041L382.483 122.99L379.428 123.879ZM365.462 127.944L368.375 115.793L371.867 114.777L368.953 126.928L365.462 127.944Z" fill="black"/>
<path d="M434.504 101.702L444.135 84.1612L441.298 82.6437L433.232 97.3334L425.794 93.2494L424.263 96.0386L434.504 101.702ZM440.383 111.343C437.662 112.135 434.992 112.383 432.371 112.087C429.751 111.791 427.325 111.03 425.093 109.805C422.862 108.58 420.918 106.941 419.262 104.889C417.606 102.837 416.382 100.45 415.59 97.7299C414.807 95.0415 414.564 92.3871 414.86 89.7665C415.156 87.146 415.917 84.7201 417.142 82.4888C418.367 80.2574 420.004 78.3056 422.051 76.6334C424.099 74.9611 426.483 73.7291 429.203 72.9372C431.892 72.1546 434.548 71.9194 437.174 72.2315C439.799 72.5435 442.227 73.3122 444.458 74.5373C446.69 75.7625 448.641 77.3989 450.314 79.4465C451.986 81.494 453.213 83.862 453.996 86.5504C454.788 89.2709 455.028 91.9437 454.716 94.5688C454.404 97.194 453.635 99.6223 452.41 101.854C451.185 104.085 449.546 106.029 447.494 107.685C445.441 109.341 443.071 110.561 440.383 111.343ZM439.544 108.463C444.185 107.112 447.611 104.422 449.824 100.393C452.036 96.3644 452.466 92.0296 451.115 87.3889C449.765 82.7482 447.075 79.3217 443.046 77.1096C439.017 74.8974 434.682 74.4668 430.042 75.8177C425.401 77.1685 421.974 79.8583 419.762 83.8872C417.55 87.916 417.12 92.2508 418.47 96.8915C419.821 101.532 422.511 104.959 426.54 107.171C430.569 109.383 434.903 109.814 439.544 108.463Z" fill="black"/>
<path d="M539 389.403C539 477.768 467.366 549.403 379 549.403C290.634 549.403 219 477.768 219 389.403C219 301.037 290.634 229.403 379 229.403C467.366 229.403 539 301.037 539 389.403Z" fill="#36AEE5"/>
<path d="M410.715 339.691C403.307 374.89 403.307 393.774 403.307 393.774C403.307 393.774 414.972 392.506 416.715 402.883C418.123 412.124 410.715 415.127 401.497 417.229C399.486 413.159 396.972 408.087 394.291 402.883C387.819 389.676 384.569 375.136 384.804 360.444V301.957C385.468 293.833 382.986 285.764 377.866 279.403C372.746 285.764 370.263 293.833 370.927 301.957V360.444C371.162 375.136 367.913 389.676 361.441 402.883C358.76 408.087 356.246 413.159 354.235 417.229C345.017 415.127 337.475 412.124 339.017 402.883C340.625 392.506 352.424 393.774 352.424 393.774C352.424 393.774 352.425 374.89 345.05 339.691C337.676 304.492 312 294.416 312 294.416V454.13H349.81C350.668 462.215 353.689 469.923 358.559 476.45C366.637 487.127 378 490.463 378 497.403C378 490.463 389.363 487.127 397.441 476.45C402.311 469.923 405.332 462.215 406.19 454.13H444V294.416C444 294.416 417.989 304.492 410.715 339.691ZM323.028 318.639C328.933 324.451 333.188 331.714 335.363 339.691C338.212 351.936 341.028 384.032 341.028 384.032C341.028 384.032 330.604 390.705 330.604 398.145H323.028V318.639ZM348 441.551H323.028V409.489H329.732C331.213 413.834 333.844 417.702 337.348 420.685C340.852 423.668 345.099 425.655 349.642 426.438C348.691 431.424 348.142 436.478 348 441.551ZM372.402 475.816C365.85 470.251 361.462 462.578 360 454.13H372.402V475.816ZM372.402 441.551H358.525C358.203 436.992 358.961 432.421 360.738 428.206C374.179 430.808 372.302 441.551 372.302 441.551H372.402ZM377.765 429.607C377.765 424.87 371.832 421.733 364.022 419.598C369.702 409.546 374.319 398.935 377.799 387.935C381.279 398.935 385.896 409.546 391.575 419.598C383.765 421.8 377.832 424.936 377.832 429.607V430.141L377.765 429.607ZM383.095 475.816V454.13H395.497C394.008 462.592 389.584 470.267 382.995 475.816H383.095ZM397.073 441.551H383.195C383.195 441.551 381.318 430.808 394.86 428.206C396.603 432.429 397.326 437 396.972 441.551H397.073ZM432.469 441.551H407.497C407.378 436.48 406.851 431.426 405.922 426.438C410.465 425.655 414.712 423.668 418.216 420.685C421.72 417.702 424.351 413.834 425.832 409.489H432.536L432.469 441.551ZM432.469 398.178H424.693C424.693 390.638 414.268 384.065 414.268 384.065C414.268 384.065 417.084 351.969 419.933 339.725C422.108 331.747 426.364 324.484 432.268 318.672L432.469 398.178Z" fill="#FFCE6D"/>
<path d="M178.155 524.679C180.805 544.384 166.979 562.506 147.274 565.155C127.569 567.805 109.447 553.979 106.797 534.274C104.148 514.569 117.974 496.447 137.679 493.797C157.384 491.148 175.506 504.974 178.155 524.679Z" fill="#7AD6FF" fill-opacity="0.55"/>
<path d="M144.463 521.743C144.437 521.544 144.477 521.346 144.585 521.146C144.693 520.947 144.825 520.803 144.981 520.714C145.923 520.218 146.901 519.8 147.915 519.462C148.929 519.124 149.998 518.879 151.121 518.728C151.848 518.631 152.564 518.577 153.269 518.566C153.974 518.555 154.667 518.588 155.35 518.664C155.557 518.704 155.756 518.803 155.945 518.963C156.135 519.122 156.245 519.318 156.276 519.549C156.325 519.912 156.239 520.21 156.018 520.441C155.797 520.673 155.498 520.763 155.121 520.713C154.538 520.623 153.934 520.578 153.312 520.578C152.69 520.578 152.048 520.622 151.388 520.711C150.43 520.839 149.517 521.055 148.649 521.356C147.782 521.658 146.943 522.048 146.133 522.527C145.693 522.754 145.32 522.796 145.015 522.652C144.709 522.508 144.526 522.205 144.463 521.743ZM145.929 532.644C145.903 532.446 145.942 532.239 146.048 532.023C146.153 531.807 146.284 531.655 146.44 531.567C147.383 531.07 148.362 530.661 149.378 530.339C150.394 530.018 151.464 529.781 152.587 529.63C153.314 529.533 154.03 529.478 154.735 529.468C155.439 529.457 156.133 529.49 156.816 529.566C157.023 529.606 157.222 529.705 157.411 529.865C157.601 530.024 157.711 530.219 157.742 530.451C157.791 530.814 157.705 531.112 157.484 531.343C157.263 531.575 156.964 531.665 156.587 531.615C156.003 531.525 155.4 531.48 154.778 531.48C154.156 531.479 153.514 531.524 152.854 531.613C151.896 531.741 150.982 531.948 150.112 532.233C149.242 532.519 148.402 532.901 147.592 533.379C147.152 533.607 146.78 533.657 146.477 533.529C146.174 533.402 145.992 533.107 145.929 532.644ZM145.196 527.194C145.17 526.995 145.21 526.796 145.318 526.597C145.426 526.398 145.558 526.254 145.714 526.165C146.656 525.669 147.634 525.251 148.648 524.913C149.662 524.575 150.731 524.33 151.854 524.179C152.581 524.082 153.297 524.027 154.002 524.017C154.706 524.006 155.4 524.039 156.083 524.115C156.29 524.155 156.489 524.254 156.678 524.414C156.868 524.573 156.978 524.768 157.009 525C157.058 525.363 156.972 525.661 156.751 525.892C156.53 526.124 156.231 526.214 155.854 526.164C155.27 526.074 154.667 526.029 154.045 526.029C153.423 526.029 152.781 526.073 152.121 526.162C151.163 526.29 150.25 526.506 149.382 526.807C148.515 527.109 147.676 527.499 146.866 527.978C146.426 528.205 146.053 528.247 145.748 528.103C145.442 527.959 145.259 527.656 145.196 527.194ZM131.055 539.084C132.839 538.844 134.593 538.819 136.317 539.007C138.04 539.196 139.767 539.594 141.497 540.203L138.652 519.043C137.032 518.252 135.318 517.7 133.511 517.388C131.703 517.076 129.907 517.04 128.123 517.28C126.868 517.449 125.658 517.772 124.495 518.248C123.331 518.723 122.169 519.275 121.009 519.902L123.901 541.408C124.863 540.808 125.982 540.313 127.258 539.923C128.534 539.532 129.799 539.253 131.055 539.084ZM144.47 539.803C146.011 538.755 147.547 537.918 149.077 537.291C150.607 536.665 152.264 536.232 154.048 535.992C155.303 535.824 156.613 535.748 157.978 535.767C159.343 535.785 160.526 535.895 161.529 536.096L158.67 514.838C157.471 514.427 156.226 514.174 154.936 514.079C153.645 513.983 152.372 514.02 151.116 514.189C149.332 514.429 147.643 514.933 146.048 515.703C144.453 516.472 142.978 517.452 141.625 518.643L144.47 539.803ZM143.51 543.917C143.246 543.953 143.003 543.96 142.782 543.94C142.56 543.919 142.358 543.854 142.175 543.744C140.493 542.995 138.742 542.473 136.92 542.18C135.098 541.887 133.278 541.863 131.461 542.107C130.239 542.271 129.07 542.58 127.953 543.033C126.837 543.485 125.73 544.004 124.631 544.589C123.92 545.055 123.179 545.104 122.406 544.737C121.634 544.37 121.19 543.757 121.074 542.898L117.989 519.955C117.922 519.459 117.977 518.989 118.153 518.545C118.328 518.101 118.632 517.733 119.063 517.439C120.362 516.592 121.742 515.91 123.203 515.394C124.664 514.878 126.171 514.516 127.723 514.307C129.805 514.027 131.866 514.036 133.907 514.333C135.948 514.631 137.905 515.242 139.779 516.167C141.308 514.784 143.001 513.682 144.858 512.861C146.715 512.039 148.668 511.491 150.716 511.215C152.269 511.007 153.81 510.959 155.339 511.073C156.867 511.187 158.37 511.481 159.846 511.955C160.34 512.124 160.738 512.399 161.042 512.778C161.345 513.158 161.53 513.596 161.597 514.091L164.682 537.035C164.806 537.96 164.529 538.712 163.85 539.291C163.171 539.87 162.437 539.977 161.648 539.612C160.463 539.3 159.273 539.082 158.079 538.957C156.885 538.831 155.677 538.851 154.454 539.015C152.67 539.255 150.955 539.755 149.308 540.514C147.661 541.274 146.143 542.235 144.752 543.397C144.604 543.552 144.427 543.668 144.219 543.746C144.011 543.825 143.774 543.882 143.51 543.917Z" fill="black"/>
<path d="M173.5 513L256 472M339.5 245.5L309 162M465.5 524L577.5 594" stroke="#7AD6FF" stroke-dasharray="15 15"/>
<rect x="435.55" y="570" width="292" height="65" rx="32.5" transform="rotate(4.89779 435.55 570)" fill="url(#paint0_linear_457_29)"/>
<path d="M495.069 622.272L497.553 593.288L515.045 594.787L514.779 597.9L500.796 596.702L500.02 605.76L507.379 606.39C509.455 606.568 511.176 607.058 512.542 607.859C513.918 608.662 514.921 609.712 515.551 611.011C516.191 612.311 516.439 613.801 516.295 615.48C516.151 617.16 515.651 618.609 514.796 619.828C513.95 621.049 512.779 621.96 511.282 622.564C509.795 623.168 508.014 623.382 505.938 623.204L495.069 622.272ZM498.841 619.516L506.2 620.147C507.521 620.26 508.662 620.092 509.622 619.642C510.593 619.183 511.35 618.554 511.894 617.755C512.448 616.947 512.765 616.071 512.846 615.128C512.965 613.741 512.534 612.502 511.554 611.41C510.574 610.309 509.094 609.674 507.112 609.504L499.753 608.873L498.841 619.516ZM527.739 625.585C526.361 625.467 525.133 625.101 524.055 624.485C522.977 623.861 522.151 623.025 521.575 621.978C521 620.921 520.774 619.685 520.895 618.27C521.002 617.024 521.334 616.036 521.89 615.304C522.448 614.563 523.156 614.006 524.015 613.633C524.874 613.26 525.808 613.007 526.818 612.875C527.837 612.734 528.857 612.641 529.878 612.595C531.214 612.539 532.295 612.503 533.124 612.489C533.962 612.465 534.579 612.361 534.975 612.177C535.381 611.993 535.606 611.632 535.652 611.094L535.662 610.981C535.782 609.585 535.493 608.467 534.795 607.628C534.106 606.789 532.993 606.304 531.455 606.173C529.86 606.036 528.58 606.278 527.615 606.898C526.649 607.519 525.948 608.21 525.513 608.971L522.439 607.567C523.119 606.295 523.962 605.331 524.968 604.676C525.985 604.012 527.067 603.582 528.215 603.386C529.373 603.181 530.5 603.125 531.594 603.219C532.292 603.279 533.087 603.433 533.978 603.68C534.88 603.919 535.733 604.329 536.539 604.912C537.354 605.495 538 606.325 538.478 607.402C538.956 608.479 539.121 609.88 538.973 611.607L537.746 625.929L534.406 625.643L534.658 622.7L534.488 622.685C534.221 623.137 533.801 623.61 533.226 624.102C532.652 624.595 531.91 624.992 531 625.294C530.09 625.597 529.003 625.694 527.739 625.585ZM528.505 622.628C529.826 622.742 530.962 622.578 531.912 622.136C532.872 621.696 533.618 621.085 534.15 620.304C534.692 619.523 535.002 618.68 535.08 617.774L535.342 614.717C535.186 614.875 534.861 615.004 534.368 615.104C533.885 615.196 533.327 615.267 532.696 615.318C532.074 615.359 531.468 615.393 530.877 615.418C530.295 615.435 529.823 615.452 529.461 615.468C528.583 615.507 527.756 615.621 526.979 615.811C526.213 615.993 525.577 616.314 525.072 616.774C524.577 617.226 524.293 617.877 524.22 618.726C524.121 619.886 524.475 620.8 525.283 621.468C526.101 622.128 527.175 622.514 528.505 622.628ZM544.34 626.495L546.203 604.756L555.091 605.518C557.431 605.718 559.244 606.406 560.531 607.581C561.818 608.755 562.387 610.211 562.238 611.947C562.125 613.268 561.646 614.258 560.801 614.917C559.956 615.567 558.91 615.967 557.661 616.117C558.453 616.299 559.208 616.648 559.924 617.166C560.649 617.684 561.228 618.361 561.66 619.197C562.093 620.023 562.261 621.006 562.163 622.148C562.067 623.261 561.699 624.233 561.058 625.062C560.416 625.89 559.545 626.514 558.445 626.933C557.345 627.352 556.059 627.499 554.587 627.373L544.34 626.495ZM547.772 623.709L554.849 624.316C556 624.414 556.924 624.218 557.622 623.726C558.32 623.235 558.709 622.517 558.79 621.574C558.887 620.451 558.637 619.541 558.041 618.844C557.445 618.137 556.572 617.734 555.421 617.636L548.345 617.029L547.772 623.709ZM548.592 614.142L554.31 614.632C555.206 614.709 555.986 614.652 556.648 614.462C557.312 614.262 557.833 613.945 558.212 613.512C558.602 613.07 558.824 612.529 558.879 611.887C558.957 610.972 558.637 610.222 557.917 609.638C557.198 609.044 556.169 608.689 554.829 608.575L549.111 608.085L548.592 614.142ZM576.01 629.665C574.047 629.496 572.365 628.882 570.964 627.821C569.572 626.761 568.533 625.355 567.847 623.605C567.17 621.855 566.928 619.857 567.12 617.612C567.314 615.347 567.894 613.406 568.859 611.787C569.834 610.169 571.098 608.957 572.65 608.149C574.211 607.341 575.973 607.022 577.936 607.19C579.898 607.358 581.575 607.972 582.967 609.033C584.368 610.094 585.407 611.504 586.083 613.263C586.769 615.023 587.015 617.035 586.82 619.3C586.628 621.545 586.045 623.472 585.071 625.081C584.106 626.69 582.843 627.898 581.281 628.705C579.729 629.513 577.972 629.833 576.01 629.665ZM576.267 626.664C577.758 626.792 579.017 626.515 580.045 625.833C581.073 625.151 581.871 624.208 582.44 623.002C583.009 621.796 583.356 620.467 583.48 619.014C583.605 617.561 583.49 616.187 583.135 614.892C582.78 613.598 582.155 612.522 581.259 611.666C580.363 610.81 579.169 610.318 577.678 610.191C576.188 610.063 574.928 610.344 573.899 611.036C572.871 611.727 572.071 612.68 571.502 613.895C570.932 615.111 570.584 616.445 570.46 617.898C570.335 619.351 570.451 620.72 570.807 622.005C571.162 623.29 571.788 624.356 572.685 625.203C573.582 626.049 574.776 626.536 576.267 626.664ZM591.495 630.535L593.358 608.797L602.246 609.558C604.586 609.759 606.399 610.447 607.686 611.621C608.973 612.796 609.543 614.252 609.394 615.988C609.281 617.309 608.801 618.299 607.956 618.958C607.111 619.608 606.065 620.008 604.817 620.158C605.609 620.339 606.363 620.689 607.079 621.207C607.804 621.725 608.383 622.402 608.815 623.237C609.248 624.063 609.416 625.047 609.318 626.189C609.223 627.302 608.854 628.273 608.213 629.102C607.572 629.931 606.701 630.555 605.6 630.974C604.5 631.393 603.214 631.54 601.742 631.413L591.495 630.535ZM594.928 627.75L602.004 628.356C603.155 628.455 604.08 628.259 604.777 627.767C605.475 627.276 605.865 626.558 605.946 625.615C606.042 624.492 605.792 623.582 605.196 622.885C604.601 622.178 603.727 621.775 602.576 621.676L595.5 621.07L594.928 627.75ZM595.747 618.183L601.465 618.673C602.361 618.75 603.141 618.693 603.804 618.503C604.467 618.303 604.988 617.986 605.368 617.553C605.757 617.111 605.979 616.569 606.034 615.928C606.113 615.013 605.792 614.263 605.072 613.678C604.353 613.085 603.324 612.73 601.984 612.615L596.266 612.125L595.747 618.183ZM629.984 621.345L629.717 624.458L617.716 623.43L617.982 620.316L629.984 621.345ZM619.575 611.043L617.713 632.782L614.373 632.496L616.235 610.757L619.575 611.043ZM633.332 612.222L631.469 633.961L628.129 633.675L629.992 611.936L633.332 612.222ZM644.42 635.584C643.043 635.466 641.815 635.099 640.737 634.484C639.659 633.859 638.833 633.024 638.257 631.976C637.682 630.92 637.455 629.684 637.577 628.268C637.683 627.023 638.015 626.034 638.572 625.303C639.13 624.562 639.838 624.004 640.697 623.631C641.556 623.258 642.49 623.006 643.499 622.874C644.519 622.733 645.539 622.64 646.56 622.594C647.895 622.537 648.977 622.502 649.805 622.487C650.644 622.464 651.261 622.36 651.657 622.175C652.062 621.992 652.288 621.631 652.334 621.093L652.344 620.98C652.464 619.583 652.174 618.466 651.476 617.626C650.788 616.788 649.675 616.303 648.137 616.171C646.542 616.035 645.262 616.276 644.297 616.897C643.331 617.518 642.63 618.208 642.194 618.969L639.121 617.566C639.8 616.293 640.643 615.329 641.65 614.674C642.667 614.011 643.749 613.581 644.897 613.384C646.055 613.179 647.181 613.124 648.276 613.218C648.974 613.278 649.769 613.431 650.66 613.679C651.561 613.917 652.415 614.328 653.22 614.91C654.035 615.493 654.682 616.323 655.16 617.4C655.638 618.477 655.803 619.879 655.655 621.606L654.427 635.928L651.087 635.642L651.34 632.698L651.17 632.684C650.903 633.136 650.482 633.608 649.908 634.101C649.333 634.593 648.591 634.991 647.681 635.293C646.772 635.595 645.685 635.692 644.42 635.584ZM645.187 632.627C646.508 632.74 647.643 632.576 648.594 632.135C649.553 631.694 650.299 631.084 650.832 630.302C651.374 629.522 651.684 628.679 651.762 627.773L652.024 624.716C651.868 624.874 651.543 625.003 651.05 625.103C650.567 625.195 650.009 625.266 649.378 625.316C648.756 625.358 648.15 625.392 647.558 625.417C646.977 625.434 646.505 625.45 646.143 625.467C645.265 625.505 644.438 625.62 643.661 625.81C642.895 625.991 642.259 626.312 641.754 626.773C641.259 627.225 640.975 627.875 640.902 628.724C640.803 629.885 641.157 630.799 641.965 631.467C642.782 632.126 643.857 632.513 645.187 632.627Z" fill="black"/>
</g>
<defs>
<linearGradient id="paint0_linear_457_29" x1="703.157" y1="575.771" x2="433.46" y2="608.416" gradientUnits="userSpaceOnUse">
<stop stop-color="#FFCE6D"/>
<stop offset="1" stop-color="#FFE794" stop-opacity="0"/>
</linearGradient>
<clipPath id="clip0_457_29">
<rect width="758" height="735" fill="white"/>
</clipPath>
</defs>
</svg>
