<svg width="386" height="735" viewBox="0 0 386 735" fill="none" xmlns="http://www.w3.org/2000/svg">
<g clip-path="url(#clip0_457_30)">
<rect width="386" height="735" fill="white"/>
<rect width="386" height="735" fill="#F6FDFF"/>
<rect x="47.9384" y="550.374" width="251.684" height="45.4105" rx="22.7052" transform="rotate(-6.82482 47.9384 550.374)" stroke="#36AEE5" stroke-width="2"/>
<path d="M80.5019 580.632L77.7363 557.524L80.5345 557.189L81.766 567.479L94.0872 566.004L92.8556 555.714L95.6539 555.379L98.4195 578.487L95.6212 578.822L94.3843 568.487L82.0631 569.961L83.3001 580.297L80.5019 580.632ZM104.157 577.8L102.083 560.47L104.746 560.151L106.82 577.482L104.157 577.8ZM103.091 557.419C102.572 557.481 102.103 557.358 101.685 557.049C101.274 556.74 101.039 556.337 100.979 555.841C100.92 555.344 101.053 554.897 101.38 554.5C101.713 554.101 102.14 553.871 102.659 553.809C103.178 553.746 103.643 553.87 104.054 554.179C104.472 554.488 104.711 554.89 104.77 555.387C104.83 555.883 104.693 556.331 104.359 556.729C104.033 557.127 103.61 557.357 103.091 557.419ZM119.277 576.357C117.652 576.552 116.207 576.335 114.942 575.709C113.677 575.082 112.648 574.133 111.855 572.862C111.062 571.591 110.562 570.091 110.355 568.361C110.144 566.601 110.282 565.009 110.767 563.585C111.26 562.152 112.043 560.987 113.118 560.087C114.2 559.18 115.523 558.632 117.088 558.445C118.306 558.299 119.431 558.393 120.463 558.728C121.495 559.062 122.372 559.598 123.094 560.336C123.815 561.073 124.316 561.975 124.596 563.04L121.933 563.358C121.636 562.593 121.1 561.947 120.328 561.422C119.562 560.888 118.593 560.691 117.419 560.832C116.381 560.956 115.503 561.335 114.786 561.971C114.075 562.598 113.56 563.426 113.241 564.456C112.928 565.478 112.85 566.643 113.007 567.952C113.167 569.291 113.517 570.431 114.057 571.374C114.605 572.316 115.299 573.015 116.139 573.471C116.987 573.926 117.938 574.091 118.991 573.965C119.683 573.882 120.297 573.687 120.832 573.379C121.367 573.07 121.804 572.667 122.141 572.169C122.478 571.671 122.691 571.096 122.781 570.444L125.444 570.126C125.416 571.167 125.154 572.133 124.658 573.024C124.168 573.906 123.467 574.646 122.554 575.244C121.648 575.833 120.556 576.204 119.277 576.357ZM137.748 574.147C136.078 574.346 134.593 574.15 133.294 573.558C132.001 572.957 130.948 572.03 130.134 570.777C129.327 569.516 128.817 567.998 128.605 566.222C128.392 564.447 128.529 562.844 129.013 561.412C129.505 559.973 130.288 558.803 131.363 557.904C132.445 556.996 133.768 556.449 135.332 556.261C136.235 556.153 137.144 556.197 138.061 556.393C138.977 556.588 139.836 556.981 140.639 557.572C141.442 558.155 142.123 558.974 142.684 560.028C143.246 561.082 143.623 562.418 143.816 564.036L143.951 565.164L130.592 566.763L130.317 564.461L140.968 563.186C140.851 562.208 140.551 561.359 140.068 560.639C139.593 559.917 138.971 559.378 138.203 559.019C137.443 558.66 136.582 558.538 135.619 558.653C134.558 558.78 133.672 559.153 132.96 559.773C132.255 560.384 131.746 561.131 131.432 562.016C131.118 562.9 131.018 563.82 131.133 564.775L131.316 566.31C131.473 567.619 131.831 568.701 132.392 569.557C132.958 570.405 133.676 571.017 134.546 571.394C135.414 571.763 136.386 571.883 137.461 571.754C138.161 571.671 138.781 571.497 139.322 571.234C139.869 570.963 140.326 570.603 140.692 570.155C141.057 569.699 141.316 569.157 141.47 568.528L144.129 568.942C143.963 569.847 143.599 570.669 143.039 571.407C142.478 572.138 141.75 572.744 140.853 573.225C139.956 573.699 138.921 574.006 137.748 574.147ZM159.844 561.11L160.141 563.592L150.573 564.738L150.276 562.255L159.844 561.11ZM150.016 554.733L152.09 572.064L149.428 572.382L147.353 555.052L150.016 554.733ZM160.983 553.42L163.058 570.751L160.395 571.07L158.321 553.739L160.983 553.42ZM168.417 570.11L166.343 552.779L169.006 552.46L171.08 569.791L168.417 570.11ZM167.351 549.728C166.832 549.79 166.363 549.667 165.945 549.359C165.534 549.049 165.299 548.646 165.24 548.15C165.18 547.653 165.314 547.206 165.64 546.809C165.974 546.41 166.4 546.18 166.919 546.118C167.438 546.056 167.903 546.179 168.314 546.489C168.732 546.797 168.971 547.2 169.031 547.696C169.09 548.193 168.953 548.64 168.619 549.039C168.293 549.436 167.87 549.666 167.351 549.728ZM173.683 554.418L173.386 551.936L187.468 550.251L187.765 552.733L182.078 553.413L183.855 568.262L181.192 568.581L179.415 553.732L173.683 554.418ZM204.339 555.785L204.636 558.267L195.068 559.412L194.771 556.93L204.339 555.785ZM194.511 549.408L196.585 566.738L193.923 567.057L191.848 549.726L194.511 549.408ZM205.478 548.095L207.553 565.426L204.89 565.745L202.816 548.414L205.478 548.095ZM215.105 560.539L221.85 546.136L224.919 545.768L226.993 563.099L224.331 563.418L222.726 550.014L216.026 564.412L212.912 564.784L210.838 547.454L213.501 547.135L215.105 560.539ZM243.923 543.494L245.7 558.342L248.137 558.051L249.104 566.13L246.441 566.448L245.771 560.852L232.367 562.456L230.293 545.125L232.956 544.806L234.733 559.655L243.037 558.661L241.26 543.813L243.923 543.494ZM263.147 558.772L261.365 543.878L256.761 544.429C255.723 544.554 254.936 544.892 254.399 545.445C253.863 545.997 253.645 546.695 253.746 547.537C253.845 548.365 254.189 548.983 254.78 549.393C255.379 549.802 256.148 549.951 257.088 549.838L262.685 549.168L262.982 551.651L257.385 552.32C256.212 552.461 255.175 552.375 254.276 552.063C253.376 551.751 252.651 551.239 252.101 550.526C251.549 549.807 251.21 548.916 251.083 547.856C250.955 546.788 251.086 545.841 251.475 545.016C251.865 544.191 252.483 543.519 253.328 542.998C254.181 542.476 255.228 542.141 256.47 541.992L263.601 541.139L265.675 558.47L263.147 558.772ZM251.593 560.155L255.481 550.946L258.37 550.6L254.482 559.809L251.593 560.155Z" fill="black"/>
<path d="M342 378C342 460.29 275.29 527 193 527C110.71 527 44 460.29 44 378C44 295.71 110.71 229 193 229C275.29 229 342 295.71 342 378Z" fill="#36AEE5"/>
<path d="M222.535 331.706C215.636 364.485 215.636 382.071 215.636 382.071C215.636 382.071 226.499 380.89 228.122 390.553C229.433 399.16 222.535 401.956 213.95 403.913C212.077 400.123 209.737 395.4 207.239 390.553C201.213 378.254 198.186 364.714 198.405 351.032V296.566C199.024 289.001 196.712 281.486 191.944 275.562C187.176 281.486 184.864 289.001 185.482 296.566V351.032C185.701 364.714 182.675 378.254 176.648 390.553C174.151 395.4 171.81 400.123 169.937 403.913C161.353 401.956 154.33 399.16 155.765 390.553C157.264 380.89 168.251 382.071 168.251 382.071C168.251 382.071 168.252 364.485 161.384 331.706C154.517 298.927 130.606 289.544 130.606 289.544V438.277H165.817C166.616 445.806 169.429 452.985 173.964 459.063C181.487 469.005 192.069 472.112 192.069 478.575C192.069 472.112 202.651 469.005 210.173 459.063C214.708 452.985 217.522 445.806 218.321 438.277H253.531V289.544C253.531 289.544 229.308 298.927 222.535 331.706ZM140.876 312.101C146.375 317.514 150.338 324.277 152.363 331.706C155.016 343.109 157.639 372.999 157.639 372.999C157.639 372.999 147.931 379.213 147.931 386.141H140.876V312.101ZM164.131 426.564H140.876V396.705H147.119C148.499 400.752 150.949 404.354 154.212 407.132C157.475 409.909 161.43 411.76 165.661 412.489C164.775 417.132 164.263 421.839 164.131 426.564ZM186.856 458.473C180.754 453.29 176.668 446.145 175.306 438.277H186.856V458.473ZM186.856 426.564H173.933C173.633 422.317 174.338 418.06 175.993 414.135C188.51 416.559 186.762 426.564 186.762 426.564H186.856ZM191.85 415.441C191.85 411.029 186.325 408.108 179.052 406.119C184.341 396.759 188.64 386.877 191.881 376.634C195.123 386.877 199.422 396.759 204.711 406.119C197.438 408.17 191.913 411.091 191.913 415.441V415.938L191.85 415.441ZM196.813 458.473V438.277H208.363C206.977 446.158 202.856 453.305 196.72 458.473H196.813ZM209.83 426.564H196.907C196.907 426.564 195.159 416.559 207.77 414.135C209.393 418.068 210.066 422.325 209.736 426.564H209.83ZM242.793 426.564H219.538C219.427 421.841 218.936 417.134 218.071 412.489C222.302 411.76 226.257 409.909 229.52 407.132C232.783 404.354 235.233 400.752 236.613 396.705H242.856L242.793 426.564ZM242.793 386.172H235.551C235.551 379.15 225.843 373.03 225.843 373.03C225.843 373.03 228.465 343.14 231.119 331.737C233.144 324.309 237.107 317.545 242.606 312.132L242.793 386.172Z" fill="#FFCE6D"/>
<rect x="76.6531" y="160.518" width="236.537" height="52.6537" rx="26.3268" transform="rotate(4.89779 76.6531 160.518)" fill="url(#paint0_linear_457_30)"/>
<path d="M124.915 202.619L126.902 179.432L140.896 180.631L140.683 183.122L129.496 182.163L128.876 189.409L134.763 189.914C136.424 190.056 137.801 190.448 138.894 191.089C139.994 191.731 140.797 192.571 141.301 193.61C141.812 194.65 142.011 195.842 141.895 197.186C141.78 198.529 141.381 199.689 140.696 200.664C140.02 201.64 139.083 202.37 137.886 202.853C136.696 203.336 135.271 203.507 133.61 203.364L124.915 202.619ZM127.932 200.414L133.82 200.919C134.877 201.009 135.789 200.875 136.558 200.515C137.334 200.148 137.94 199.645 138.375 199.005C138.818 198.359 139.072 197.658 139.137 196.904C139.232 195.794 138.887 194.803 138.103 193.929C137.319 193.049 136.135 192.54 134.55 192.405L128.662 191.9L127.932 200.414ZM151.15 205.278C150.048 205.184 149.066 204.89 148.203 204.398C147.341 203.899 146.68 203.23 146.22 202.392C145.76 201.547 145.578 200.558 145.675 199.426C145.761 198.429 146.026 197.638 146.472 197.053C146.918 196.46 147.485 196.015 148.172 195.716C148.859 195.418 149.606 195.216 150.413 195.11C151.229 194.997 152.045 194.923 152.862 194.886C153.93 194.841 154.796 194.812 155.458 194.801C156.129 194.782 156.623 194.699 156.94 194.551C157.264 194.404 157.444 194.116 157.481 193.685L157.489 193.595C157.585 192.478 157.354 191.583 156.795 190.912C156.244 190.241 155.354 189.853 154.123 189.748C152.848 189.639 151.824 189.832 151.051 190.329C150.279 190.825 149.718 191.378 149.37 191.987L146.911 190.863C147.454 189.846 148.129 189.075 148.934 188.55C149.747 188.02 150.613 187.676 151.532 187.518C152.458 187.355 153.359 187.31 154.235 187.385C154.793 187.433 155.429 187.556 156.142 187.754C156.863 187.945 157.546 188.273 158.19 188.739C158.842 189.206 159.359 189.87 159.742 190.731C160.124 191.593 160.256 192.714 160.138 194.095L159.156 205.553L156.484 205.325L156.686 202.97L156.55 202.958C156.336 203.32 156 203.698 155.54 204.092C155.081 204.486 154.487 204.804 153.759 205.045C153.031 205.287 152.162 205.365 151.15 205.278ZM151.764 202.913C152.82 203.003 153.729 202.872 154.489 202.519C155.257 202.167 155.854 201.678 156.28 201.053C156.713 200.429 156.961 199.754 157.023 199.029L157.233 196.584C157.108 196.71 156.848 196.813 156.454 196.893C156.067 196.967 155.621 197.024 155.116 197.064C154.619 197.097 154.134 197.124 153.661 197.145C153.196 197.158 152.818 197.171 152.528 197.184C151.826 197.215 151.164 197.307 150.543 197.459C149.93 197.604 149.421 197.861 149.017 198.229C148.621 198.591 148.394 199.111 148.336 199.79C148.256 200.719 148.54 201.45 149.186 201.985C149.84 202.512 150.699 202.821 151.764 202.913ZM164.531 206.014L166.021 188.623L173.132 189.233C175.004 189.393 176.454 189.943 177.484 190.883C178.514 191.823 178.969 192.987 178.85 194.376C178.759 195.433 178.376 196.225 177.7 196.752C177.024 197.272 176.187 197.592 175.188 197.712C175.822 197.857 176.425 198.137 176.998 198.551C177.578 198.966 178.041 199.507 178.387 200.176C178.733 200.837 178.867 201.624 178.789 202.537C178.713 203.428 178.418 204.205 177.905 204.868C177.392 205.531 176.695 206.03 175.815 206.365C174.935 206.7 173.906 206.817 172.728 206.717L164.531 206.014ZM167.277 203.786L172.938 204.271C173.859 204.35 174.598 204.193 175.157 203.8C175.715 203.406 176.027 202.832 176.091 202.078C176.168 201.179 175.968 200.451 175.492 199.893C175.015 199.328 174.317 199.006 173.396 198.927L167.735 198.442L167.277 203.786ZM167.933 196.132L172.507 196.524C173.224 196.585 173.848 196.54 174.378 196.388C174.908 196.228 175.325 195.975 175.629 195.628C175.941 195.275 176.118 194.841 176.162 194.328C176.225 193.596 175.969 192.996 175.393 192.529C174.818 192.053 173.994 191.77 172.922 191.678L168.348 191.286L167.933 196.132ZM189.966 208.559C188.396 208.424 187.051 207.932 185.93 207.084C184.816 206.235 183.985 205.111 183.436 203.711C182.895 202.311 182.701 200.713 182.855 198.916C183.01 197.105 183.474 195.552 184.246 194.257C185.026 192.962 186.037 191.992 187.279 191.346C188.528 190.7 189.937 190.445 191.507 190.579C193.077 190.714 194.419 191.205 195.532 192.053C196.653 192.902 197.484 194.03 198.025 195.437C198.574 196.845 198.77 198.455 198.615 200.267C198.461 202.063 197.995 203.605 197.215 204.891C196.443 206.179 195.433 207.145 194.184 207.791C192.942 208.437 191.536 208.693 189.966 208.559ZM190.172 206.158C191.365 206.261 192.372 206.039 193.195 205.494C194.017 204.948 194.656 204.193 195.111 203.228C195.566 202.264 195.843 201.2 195.943 200.038C196.043 198.875 195.951 197.776 195.667 196.741C195.383 195.705 194.883 194.845 194.166 194.16C193.449 193.475 192.494 193.082 191.301 192.979C190.109 192.877 189.101 193.103 188.278 193.656C187.455 194.209 186.816 194.971 186.36 195.943C185.904 196.916 185.626 197.983 185.527 199.145C185.427 200.308 185.52 201.403 185.804 202.431C186.088 203.459 186.589 204.312 187.307 204.989C188.025 205.666 188.98 206.056 190.172 206.158ZM202.455 209.264L203.945 191.873L211.055 192.482C212.927 192.643 214.378 193.193 215.408 194.133C216.437 195.072 216.892 196.237 216.773 197.626C216.683 198.682 216.299 199.475 215.623 200.002C214.947 200.522 214.11 200.842 213.112 200.962C213.745 201.107 214.349 201.387 214.922 201.801C215.502 202.216 215.965 202.757 216.311 203.425C216.657 204.086 216.791 204.873 216.713 205.787C216.636 206.677 216.342 207.454 215.829 208.117C215.316 208.781 214.619 209.28 213.739 209.615C212.858 209.95 211.829 210.067 210.652 209.966L202.455 209.264ZM205.2 207.036L210.862 207.521C211.782 207.6 212.522 207.442 213.08 207.049C213.639 206.656 213.95 206.082 214.015 205.327C214.092 204.429 213.892 203.701 213.415 203.143C212.939 202.578 212.24 202.256 211.319 202.177L205.658 201.692L205.2 207.036ZM205.856 199.382L210.43 199.774C211.148 199.835 211.771 199.79 212.301 199.638C212.832 199.478 213.249 199.225 213.552 198.878C213.864 198.524 214.042 198.091 214.086 197.578C214.149 196.846 213.892 196.246 213.316 195.778C212.741 195.303 211.918 195.02 210.846 194.928L206.272 194.536L205.856 199.382ZM233.345 201.92L233.132 204.411L223.53 203.588L223.744 201.097L233.345 201.92ZM225.018 193.679L223.528 211.07L220.856 210.841L222.346 193.45L225.018 193.679ZM236.023 194.622L234.533 212.013L231.861 211.784L233.351 194.393L236.023 194.622ZM244.994 213.32C243.892 213.225 242.91 212.932 242.047 212.44C241.185 211.94 240.524 211.271 240.063 210.434C239.603 209.588 239.422 208.599 239.519 207.467C239.604 206.471 239.87 205.68 240.315 205.095C240.762 204.502 241.328 204.056 242.015 203.758C242.702 203.459 243.45 203.257 244.257 203.151C245.073 203.039 245.889 202.964 246.706 202.928C247.774 202.883 248.639 202.854 249.302 202.842C249.973 202.824 250.466 202.741 250.783 202.593C251.107 202.446 251.288 202.157 251.325 201.727L251.333 201.636C251.428 200.519 251.197 199.625 250.639 198.954C250.088 198.283 249.197 197.895 247.967 197.79C246.691 197.68 245.667 197.874 244.895 198.37C244.122 198.867 243.562 199.419 243.213 200.028L240.755 198.905C241.298 197.887 241.972 197.116 242.778 196.592C243.591 196.061 244.457 195.717 245.375 195.56C246.302 195.396 247.203 195.352 248.078 195.427C248.637 195.475 249.273 195.598 249.986 195.795C250.707 195.987 251.39 196.315 252.034 196.781C252.686 197.247 253.203 197.911 253.585 198.773C253.968 199.634 254.1 200.756 253.981 202.137L253 213.595L250.328 213.366L250.529 211.011L250.394 210.999C250.18 211.361 249.843 211.739 249.384 212.133C248.924 212.527 248.331 212.845 247.603 213.087C246.875 213.329 246.005 213.406 244.994 213.32ZM245.607 210.954C246.664 211.045 247.572 210.914 248.333 210.561C249.1 210.208 249.697 209.719 250.123 209.094C250.557 208.47 250.805 207.796 250.867 207.071L251.077 204.625C250.952 204.752 250.692 204.855 250.297 204.935C249.911 205.008 249.465 205.065 248.96 205.106C248.463 205.139 247.977 205.166 247.504 205.186C247.039 205.199 246.662 205.213 246.372 205.226C245.67 205.257 245.008 205.349 244.387 205.501C243.773 205.646 243.265 205.903 242.861 206.271C242.465 206.632 242.238 207.153 242.179 207.832C242.1 208.76 242.383 209.492 243.029 210.026C243.684 210.554 244.543 210.863 245.607 210.954Z" fill="black"/>
</g>
<defs>
<linearGradient id="paint0_linear_457_30" x1="293.431" y1="165.193" x2="74.9602" y2="191.638" gradientUnits="userSpaceOnUse">
<stop stop-color="#FFCE6D"/>
<stop offset="1" stop-color="#FFE794" stop-opacity="0"/>
</linearGradient>
<clipPath id="clip0_457_30">
<rect width="386" height="735" fill="white"/>
</clipPath>
</defs>
</svg>
