<svg width="165" height="45" viewBox="0 0 165 45" fill="none" xmlns="http://www.w3.org/2000/svg">
<path d="M26.5264 9.78946C22.2139 9.78946 19.5013 11.0994 16.862 12.37C14.4427 13.5358 12.1571 14.6361 8.57765 14.6361C6.20979 14.6403 3.87267 14.0935 1.74661 13.038C1.28517 12.8284 0.828055 12.6014 0.357989 12.3831L1.48321e-05 12.2128V26.8576C1.48321e-05 40.7558 16.6637 45 16.6637 45C16.6637 45 33.3273 40.7558 33.3273 26.8576V11.0688C31.1617 10.207 28.8532 9.77274 26.5264 9.78946ZM29.1571 26.8576C29.1571 31.0581 27.0396 34.6385 22.8651 37.4985C20.9372 38.794 18.8511 39.8303 16.6593 40.5812C13.5069 39.5115 4.17889 35.6079 4.17889 26.8576V18.8977C5.60378 19.3406 7.08719 19.56 8.57765 19.5483C12.1571 19.5483 14.4427 18.448 16.862 17.2822C19.5013 16.0116 22.2268 14.7016 26.5264 14.7016C27.4062 14.7008 28.285 14.7592 29.1571 14.8763V26.8576Z" fill="#2E2E2E"/>
<path d="M29.157 0.183409C28.2781 0.0609708 27.392 -0.000321521 26.5049 1.26828e-06C22.1923 1.26828e-06 19.4797 1.30994 16.8405 2.58492C14.4211 3.74638 12.1355 4.84668 8.55605 4.84668C7.0731 4.85663 5.59727 4.63875 4.17887 4.20046C2.8625 3.7659 1.58082 3.23022 0.345024 2.59803L0 2.43211V7.37483L0.340707 7.53639C1.5764 8.17001 2.85808 8.7072 4.17456 9.14324C5.59296 9.58153 7.06883 9.79941 8.55179 9.78946C12.1312 9.78946 14.4168 8.6891 16.8362 7.52328C19.4754 6.25702 22.201 4.94278 26.5006 4.94278C27.3876 4.94115 28.2737 5.00092 29.1527 5.12176C30.5824 5.32438 31.9836 5.69664 33.3273 6.23084V1.29249C31.9862 0.754603 30.5861 0.382216 29.157 0.183409Z" fill="#2E2E2E"/>
<path d="M53.0011 13.4703V9.72834H69.6518L69.2636 13.4616V31.4598H72.8387L70.7428 40.6948H66.7063L67.9095 35.1931H51.9962V40.6948H47.9597V31.4598H50.5214L58.1286 13.4616L53.0011 13.4703ZM62.3162 13.4703L54.4759 31.4686H65.1883V13.4703H62.3162Z" fill="#2E2E2E"/>
<path d="M75.5686 35.2018V15.5531H79.5663V23.2947H87.8334V15.5531L91.8139 14.968V35.2062H87.8162V26.8359H79.5663V35.2062L75.5686 35.2018Z" fill="#2E2E2E"/>
<path d="M97.4547 35.2018V19.0462H94.6257V15.9417L97.4547 15.5487L101.457 14.8021V35.1974L97.4547 35.2018ZM97.6488 12.8023L98.1921 7.33994L102.462 7.85077L101.569 12.2172L97.6488 12.8023Z" fill="#2E2E2E"/>
<path d="M106.188 35.2018V15.5531H118.064L122.062 14.9636V35.2018H118.064V19.0462H110.185V35.2018H106.188Z" fill="#2E2E2E"/>
<path d="M126.797 40.9V15.3566H127.806L129.531 16.2299C130.984 15.2672 132.686 14.7614 134.422 14.7759C137.19 14.7759 139.41 15.6273 141.08 17.3302C142.751 19.0331 143.584 21.3516 143.582 24.2858C143.612 25.8601 143.301 27.422 142.671 28.8615C142.04 30.3009 141.106 31.5828 139.933 32.6169C137.501 34.8438 134.461 35.9703 130.812 35.9965V40.9087L126.797 40.9ZM134.129 18.4218C132.926 18.443 131.76 18.8412 130.791 19.5614V32.2545C133.507 32.2283 135.649 31.4759 137.216 29.9971C137.988 29.2688 138.597 28.3814 139.002 27.3947C139.407 26.408 139.598 25.3449 139.562 24.2771C139.562 22.3908 139.032 20.9441 137.971 19.9369C136.939 18.9394 135.559 18.3948 134.133 18.4218H134.129Z" fill="#2E2E2E"/>
<path d="M145.815 26.0848C145.815 22.8362 146.689 20.1378 148.437 17.9896C150.185 15.8413 152.572 14.7672 155.596 14.7672C158.52 14.7672 160.82 15.7365 162.496 17.6751C164.161 19.6068 165.053 22.0983 164.998 24.6614C164.998 27.9099 164.125 30.6084 162.38 32.7566C160.635 34.9049 158.247 35.979 155.217 35.979C152.293 35.979 149.993 35.0097 148.317 33.071C146.652 31.1392 145.76 28.6477 145.815 26.0848ZM160.991 24.9845C161.039 23.3324 160.548 21.7105 159.594 20.3692C159.134 19.7423 158.529 19.24 157.832 18.9071C157.134 18.5742 156.366 18.421 155.596 18.4611C153.681 18.4611 152.244 19.103 151.284 20.3867C150.323 21.6704 149.838 23.465 149.826 25.7704C149.779 27.4238 150.27 29.0471 151.223 30.3901C151.683 31.0162 152.289 31.5176 152.986 31.8497C153.684 32.1819 154.451 32.3344 155.221 32.2938C157.136 32.2938 158.573 31.652 159.534 30.3682C160.494 29.0845 160.98 27.2899 160.991 24.9845Z" fill="#2E2E2E"/>
</svg>
