<svg width="256" height="47" viewBox="0 0 256 47" fill="none" xmlns="http://www.w3.org/2000/svg">
<path d="M25.74 9.39002C22.4504 9.43099 19.2216 10.2829 16.34 11.8701C13.8941 13.246 11.1457 13.9948 8.33997 14.0501C6.03477 14.0514 3.76 13.5246 1.69006 12.51L0.349976 11.8801L0 11.7201V25.78C0 39.13 16.2001 43.2001 16.2001 43.2001C16.2001 43.2001 32.4 39.13 32.4 25.78V10.6201C30.2799 9.78526 28.0185 9.36752 25.74 9.39002ZM28.29 25.78C28.29 29.78 26.2401 33.2501 22.1801 36.0001C20.3176 37.2543 18.3009 38.2627 16.1801 39.0001C13.1201 38.0001 4.05005 34.2301 4.05005 25.8201V18.1901C5.4361 18.6177 6.87946 18.8302 8.32996 18.8201C11.1357 18.7648 13.8841 18.0159 16.33 16.64C19.9688 14.576 24.1849 13.7644 28.33 14.3301L28.29 25.78Z" fill="#1B1B1B"/>
<path d="M28.29 0.170024C27.4383 0.0539773 26.5795 -0.00274766 25.72 0.000102253C22.4312 0.0380003 19.2026 0.886353 16.3201 2.47007C13.8742 3.8459 11.1258 4.59477 8.32007 4.65C6.87708 4.6572 5.44114 4.44822 4.06006 4.03001C2.78204 3.60508 1.53551 3.09055 0.329956 2.49009L0 2.33006V7.07005L0.329956 7.22007C1.53167 7.82894 2.77883 8.34373 4.06006 8.75999C5.44023 9.18226 6.87679 9.39145 8.32007 9.38011C11.1249 9.32794 13.8733 8.5824 16.3201 7.21006C19.2002 5.61898 22.4298 4.76691 25.72 4.73008C26.5794 4.73221 27.4378 4.78891 28.29 4.9C29.6806 5.09635 31.0432 5.45555 32.35 5.97007V1.22007C31.0424 0.71247 29.6798 0.360011 28.29 0.170024Z" fill="#1B1B1B"/>
<path d="M45.89 10.8801H55.22L54.9 13.2501V21.51H56.74L55.66 26.6801H53.03L53.61 23.8701H45.89V26.6801H43.27V21.51H44.67L48.16 13.2501H45.89V10.8801ZM47.34 21.51H52.25V13.2501H50.89L47.34 21.51Z" fill="#1B1B1B"/>
<path d="M62.89 13.53C65.89 13.53 67.0601 15.85 67.0601 18.28C67.0617 18.6143 67.0416 18.9483 67 19.28L60.36 19.78C60.54 21.15 61.5401 22.01 63.2901 22.01C64.2649 22.0283 65.2346 21.8656 66.1501 21.53V23.6101C65.1241 24.0825 63.9977 24.2954 62.87 24.2301C60.02 24.2301 57.73 22.4901 57.73 19.3401C57.72 15.9501 59.99 13.53 62.89 13.53ZM60.46 17.9801L64.39 17.5601C64.39 16.5601 63.9501 15.7101 62.6801 15.7101C61.6501 15.7101 60.7701 16.5001 60.4501 17.9801H60.46Z" fill="#1B1B1B"/>
<path d="M69.11 13.8501H75.25L77.87 13.5901V23.8701H75.25V16.0701H71.74V23.8401H69.11V13.8501Z" fill="#1B1B1B"/>
<path d="M81.2001 13.91C81.9843 13.6508 82.8041 13.5158 83.63 13.51C86.77 13.51 88.08 14.93 88.08 17.64V23.9901H87.39L86.09 23.2301C85.3164 23.8439 84.3669 24.1943 83.38 24.2301C81.24 24.2301 79.9401 23.17 79.9401 21.39C79.9401 18.8 82.62 17.84 85.47 17.66C85.47 16.44 84.65 15.8301 83.47 15.8301C82.707 15.8694 81.9532 16.014 81.23 16.26L81.2001 13.91ZM83.73 22.03C84.3485 22.0127 84.9503 21.826 85.47 21.4901V19.2401C84.09 19.3801 82.54 19.84 82.54 20.91C82.5236 21.069 82.5434 21.2297 82.5979 21.38C82.6524 21.5303 82.74 21.6663 82.8545 21.7778C82.9689 21.8894 83.1072 21.9737 83.2588 22.0243C83.4104 22.0749 83.5715 22.0905 83.73 22.0701V22.03Z" fill="#1B1B1B"/>
<path d="M90.5 13.7502H91.42L92.1901 14.3702C93.0229 13.8261 93.9952 13.5343 94.99 13.5301C95.6246 13.4934 96.2599 13.5919 96.8536 13.819C97.4474 14.0462 97.986 14.3968 98.4341 14.8477C98.8822 15.2986 99.2295 15.8396 99.4529 16.4347C99.6763 17.0299 99.7707 17.6657 99.73 18.3001C99.73 21.5501 96.92 24.0101 93.13 24.1801V26.7801H90.5V13.7502ZM93.13 16.3001V21.9701C95.65 21.8101 97.13 20.2101 97.13 18.3001C97.1465 17.9781 97.0966 17.6562 96.9834 17.3544C96.8702 17.0526 96.6961 16.7772 96.4719 16.5456C96.2478 16.3139 95.9784 16.1308 95.6804 16.0077C95.3825 15.8846 95.0623 15.8242 94.74 15.8301C94.1687 15.8248 93.6087 15.9883 93.13 16.3001Z" fill="#1B1B1B"/>
<path d="M100.95 13.8501H109.65L109.17 16.1001H106.54V23.8701H103.89V16.0701H100.89L100.95 13.8501Z" fill="#1B1B1B"/>
<path d="M111.57 13.91C112.355 13.6521 113.174 13.5171 114 13.51C117.15 13.51 118.45 14.93 118.45 17.64V23.9901H117.77L116.47 23.2301C115.695 23.8409 114.746 24.1909 113.76 24.2301C111.61 24.2301 110.31 23.17 110.31 21.39C110.31 18.8 113 17.84 115.84 17.66C115.849 17.4024 115.802 17.1458 115.703 16.9081C115.603 16.6703 115.453 16.4571 115.263 16.2831C115.073 16.1091 114.847 15.9784 114.601 15.9001C114.356 15.8219 114.096 15.798 113.84 15.8301C113.074 15.87 112.317 16.0146 111.59 16.26L111.57 13.91ZM114.1 22.03C114.718 22.0127 115.32 21.826 115.84 21.4901V19.2401C114.46 19.3801 112.92 19.84 112.92 20.91C112.904 21.0681 112.924 21.2278 112.977 21.3772C113.031 21.5266 113.118 21.6621 113.231 21.7734C113.345 21.8848 113.482 21.9693 113.632 22.0206C113.782 22.072 113.942 22.0889 114.1 22.0701V22.03Z" fill="#1B1B1B"/>
<path d="M121.7 15.4701L120.7 13.8501H123.98L126.98 18.8501L130.25 13.8501L132.86 13.5901L133.26 23.8701H130.65L130.45 17.66L126.89 23.0701L123.72 18.0701L123.18 23.8401H120.64L121.7 15.4701Z" fill="#1B1B1B"/>
<path d="M140.4 13.53C143.4 13.53 144.57 15.85 144.57 18.28C144.572 18.6143 144.552 18.9483 144.51 19.28L137.88 19.78C138.06 21.15 139.06 22.01 140.8 22.01C141.778 22.0291 142.751 21.8664 143.67 21.53V23.6101C142.641 24.0833 141.511 24.2962 140.38 24.2301C137.54 24.2301 135.25 22.4901 135.25 19.3401C135.25 15.9501 137.52 13.53 140.4 13.53ZM137.98 17.9801L141.91 17.5601C141.91 16.5601 141.47 15.7101 140.2 15.7101C139.18 15.7101 138.3 16.5001 137.98 17.9801Z" fill="#1B1B1B"/>
<path d="M146.64 13.8501H149.26V17.5801H152.97V13.8501L155.6 13.5901V23.8701H152.97V19.8701H149.26V23.8701H146.64V13.8501Z" fill="#1B1B1B"/>
<path d="M157.26 13.8501H165.97L165.48 16.1001H162.89V23.8701H160.28V16.0701H157.28L157.26 13.8501Z" fill="#1B1B1B"/>
<path d="M44.33 35.0701L43.9501 32.8201H51.11V35.0701H46.96V42.8501H44.33V35.0701Z" fill="#1B1B1B"/>
<path d="M55.1 41.9L52.1 32.9H54.89L56.9501 39.54V39.4401C58.1493 37.7711 58.8436 35.7925 58.9501 33.7401C58.9487 33.5117 58.9252 33.2839 58.88 33.0601L61.51 32.6001C61.568 32.9571 61.5947 33.3184 61.59 33.6801C61.59 35.7501 60.5301 38.2901 58.8201 40.6801L55.1 46.03L52.71 45.03L55.1 41.9Z" fill="#1B1B1B"/>
<path d="M64.38 34.4801L63.38 32.8601H66.66L69.66 37.8601L72.9301 32.8601L75.54 32.6001L75.9401 42.89H73.33L73.13 36.67L69.66 42.1201L66.49 37.1201L65.9501 42.9H63.41L64.38 34.4801Z" fill="#1B1B1B"/>
<path d="M79.1901 32.92C79.9746 32.6621 80.7942 32.5271 81.62 32.52C84.77 32.52 86.0701 33.94 86.0701 36.65V43.01H85.39L84.09 42.2401C83.3167 42.8545 82.367 43.205 81.38 43.2401C79.23 43.2401 77.9301 42.17 77.9301 40.39C77.9301 37.8 80.62 36.84 83.46 36.66C83.46 35.44 82.64 34.8401 81.46 34.8401C80.6946 34.8789 79.9378 35.02 79.21 35.26L79.1901 32.92ZM81.72 41.04C82.3385 41.0227 82.9403 40.836 83.46 40.5001V38.2501C82.08 38.3901 80.54 38.86 80.54 39.92C80.5255 40.0773 80.5463 40.2359 80.601 40.384C80.6556 40.5322 80.7426 40.6663 80.8557 40.7765C80.9688 40.8867 81.1051 40.9703 81.2546 41.0211C81.4042 41.0719 81.5631 41.0886 81.72 41.0701V41.04Z" fill="#1B1B1B"/>
<path d="M88.5 32.8601H91.12V36.5901H94.83V32.8601L97.46 32.6001V42.89H94.83V38.89H91.12V42.89H88.5V32.8601Z" fill="#1B1B1B"/>
<path d="M99.26 33.0701L103.35 32.5701V42.9H100.73V35.0001H99.26V33.0701ZM101.11 27.92L103.87 28.26L103.41 31.01L100.83 31.27L101.11 27.92Z" fill="#1B1B1B"/>
<path d="M105.02 32.8601H113.72L113.24 35.1101H110.61V42.89H108V35.0701H105L105.02 32.8601Z" fill="#1B1B1B"/>
<path d="M115.64 32.92C116.425 32.6621 117.244 32.5271 118.07 32.52C121.22 32.52 122.52 33.94 122.52 36.65V43.01H121.89L120.58 42.2401C119.812 42.8563 118.864 43.2071 117.88 43.2401C115.73 43.2401 114.43 42.17 114.43 40.39C114.43 37.8 117.12 36.84 119.96 36.66C119.96 35.44 119.14 34.8401 117.96 34.8401C117.195 34.8789 116.438 35.02 115.71 35.26L115.64 32.92ZM118.17 41.04C118.789 41.0227 119.39 40.836 119.91 40.5001V38.2501C118.53 38.3901 116.99 38.86 116.99 39.92C116.975 40.0773 116.996 40.2359 117.051 40.384C117.106 40.5322 117.193 40.6663 117.306 40.7765C117.419 40.8867 117.555 40.9703 117.705 41.0211C117.854 41.0719 118.013 41.0886 118.17 41.0701V41.04Z" fill="#1B1B1B"/>
<path d="M124.95 32.76H125.87L126.63 33.3801C127.466 32.8347 128.442 32.5429 129.44 32.54C130.073 32.5064 130.707 32.6071 131.299 32.8354C131.89 33.0638 132.427 33.4148 132.874 33.8652C133.321 34.3156 133.667 34.8554 133.89 35.4491C134.114 36.0428 134.209 36.6769 134.17 37.31C134.17 40.56 131.36 43.03 127.57 43.19V45.79H124.95V32.76ZM127.57 35.31V40.9801C130.1 40.8201 131.57 39.22 131.57 37.31C131.587 36.9894 131.537 36.6688 131.424 36.3681C131.311 36.0675 131.138 35.7933 130.915 35.5626C130.692 35.3319 130.423 35.1495 130.127 35.027C129.83 34.9044 129.511 34.8442 129.19 34.8501C128.617 34.8404 128.053 35.0004 127.57 35.31Z" fill="#1B1B1B"/>
<path d="M136.23 32.8601H138.89V36.5901H142.6V32.8601L145.22 32.6001V42.89H142.6V38.89H138.89V42.89H136.26L136.23 32.8601Z" fill="#1B1B1B"/>
<path d="M152.59 32.54C153.263 32.4991 153.937 32.5995 154.569 32.8347C155.2 33.0699 155.776 33.4346 156.258 33.9055C156.74 34.3765 157.119 34.9431 157.369 35.5691C157.619 36.195 157.735 36.8664 157.71 37.54C157.71 40.69 155.78 43.2401 152.39 43.2401C151.716 43.2825 151.041 43.1831 150.408 42.9486C149.776 42.7141 149.199 42.3495 148.715 41.8784C148.232 41.4073 147.853 40.8402 147.602 40.2135C147.352 39.5868 147.235 38.9146 147.26 38.2401C147.26 35.0701 149.2 32.54 152.59 32.54ZM149.89 38.0701C149.851 38.4242 149.886 38.7827 149.995 39.1221C150.104 39.4614 150.283 39.7739 150.521 40.0392C150.759 40.3045 151.05 40.5166 151.376 40.6615C151.701 40.8064 152.054 40.8809 152.41 40.8801C154.24 40.8801 155.12 39.64 155.12 37.67C155.158 37.3175 155.121 36.961 155.012 36.6235C154.904 36.2861 154.725 35.9753 154.488 35.7113C154.252 35.4473 153.962 35.236 153.639 35.0911C153.315 34.9461 152.965 34.8709 152.61 34.8701C150.75 34.8701 149.89 36.0701 149.89 38.0701Z" fill="#1B1B1B"/>
<path d="M159.07 33.0701L163.16 32.4501V42.9H160.53V35.0001H159.07V33.0701ZM159.19 28.4601H161.69L161.51 31.0901L159.19 31.4901V28.4601ZM162.84 28.4601L165.34 28.64L164.89 31.0701L162.57 31.27L162.84 28.4601Z" fill="#1B1B1B"/>
<path d="M171.94 32.8601H178.07L180.7 32.6001V42.89H178.07V35.0701H174.57V42.8501H171.94V32.8601Z" fill="#1B1B1B"/>
<path d="M188.1 32.5401C188.772 32.499 189.446 32.5994 190.077 32.8346C190.708 33.0699 191.283 33.4349 191.765 33.9061C192.246 34.3772 192.624 34.9439 192.873 35.5699C193.122 36.1958 193.236 36.867 193.21 37.5401C193.21 40.6901 191.29 43.2402 187.9 43.2402C187.226 43.2825 186.551 43.1832 185.919 42.9487C185.286 42.7141 184.709 42.3496 184.226 41.8785C183.742 41.4074 183.363 40.8402 183.112 40.2135C182.862 39.5869 182.745 38.9146 182.77 38.2402C182.77 35.0702 184.71 32.5401 188.1 32.5401ZM185.37 38.0701C185.332 38.4248 185.369 38.7835 185.479 39.1228C185.589 39.4622 185.769 39.7746 186.008 40.0397C186.247 40.3048 186.539 40.5166 186.865 40.6614C187.191 40.8062 187.543 40.8808 187.9 40.8802C189.72 40.8802 190.61 39.6401 190.61 37.6701C190.646 37.3179 190.608 36.9619 190.499 36.6252C190.39 36.2884 190.211 35.9783 189.975 35.7146C189.738 35.451 189.449 35.2396 189.127 35.0942C188.804 34.9487 188.454 34.8725 188.1 34.8702C186.25 34.8702 185.37 36.0701 185.37 38.0701Z" fill="#1B1B1B"/>
<path d="M196.36 32.8601H201.53L204.14 32.6001V42.89H201.53V35.1301H200.53L199.75 37.8701C199.179 40.0209 197.917 41.9248 196.16 43.29L194.33 41.4801C195.727 40.3732 196.77 38.882 197.33 37.1901L197.91 35.1901H196.37L196.36 32.8601Z" fill="#1B1B1B"/>
<path d="M205.96 33.0701L210.05 32.5701V42.9H207.43V35.0001H205.96V33.0701ZM207.81 27.92L210.57 28.26L210.11 31.01L207.53 31.27L207.81 27.92Z" fill="#1B1B1B"/>
<path d="M211.72 32.8601H220.42L219.94 35.1101H217.31V42.89H214.7V35.0701H211.7L211.72 32.8601Z" fill="#1B1B1B"/>
<path d="M222.04 32.8601H224.67V39.3L229.14 32.8601H231.89L231.61 34.4301V42.89H228.98V36.77L224.53 43.2101L222.04 42.6901V32.8601Z" fill="#1B1B1B"/>
<path d="M236.89 38.1301V42.89H234.26V32.89H236.89V37.7001L241.36 32.5701L243.22 33.8501L239.63 37.7401L244.03 42.92H241.03L236.89 38.1301Z" fill="#1B1B1B"/>
<path d="M245.52 32.8601H248.14V39.3L252.62 32.8601H255.38L255.1 34.4301V42.89H252.48V36.77L248.02 43.2101L245.54 42.6901L245.52 32.8601Z" fill="#1B1B1B"/>
</svg>
