<svg width="245" height="67" viewBox="0 0 245 67" fill="none" xmlns="http://www.w3.org/2000/svg">
<path d="M82.4357 34.6589C82.4357 30.8664 84.0333 27.706 87.1219 25.0724C90.2106 22.4387 94.2578 21.1746 99.1571 21.1746V25.5991C96.2815 25.5991 93.7253 26.2312 91.7017 27.39C89.6781 28.5488 88.2935 30.2343 87.6545 32.2359H99.1571L98.4116 36.3444H87.3349C87.6545 37.9246 88.5065 39.2941 89.7846 40.3476C91.0627 41.4011 92.7668 41.9278 94.8969 41.9278C96.601 41.9278 97.9855 41.7171 99.1571 41.4011V45.2989C97.879 45.9309 96.3879 46.3523 94.4708 46.3523C90.7431 46.3523 87.761 45.1935 85.6308 42.9813C83.5007 40.769 82.4357 37.9246 82.4357 34.6589Z" fill="black"/>
<path d="M107.358 19.6998V15.2752H127.488L127.062 19.6998V40.9797H131.428L128.872 51.8304H123.973L125.464 45.2989H106.293V51.8304H101.394V40.9797H104.482L113.642 19.6998H107.358ZM118.648 19.6998L109.169 40.9797H122.056V19.6998H118.648Z" fill="black"/>
<path d="M135.05 45.2989V22.1227H139.842V31.2878H149.854V22.1227L154.647 21.3853V45.2989H149.854V35.3963H139.842V45.2989H135.05Z" fill="black"/>
<path d="M161.996 45.2989V26.2312H158.587V22.5441L161.996 22.1227L166.788 21.2799V45.2989H161.996ZM162.209 18.857L162.848 12.4308L167.96 13.0629L166.895 18.2249L162.209 18.857Z" fill="black"/>
<path d="M172.966 45.2989V22.1227H187.344L192.137 21.3853V45.2989H187.344V26.2312H177.865V45.2989C177.758 45.2989 172.966 45.2989 172.966 45.2989Z" fill="black"/>
<path d="M198.314 52.041V21.9119H199.486L201.509 22.9654C203.32 21.8066 205.237 21.2798 207.367 21.2798C210.669 21.2798 213.331 22.228 215.355 24.3349C217.379 26.3365 218.337 29.0755 218.337 32.5519C218.337 36.4497 216.846 39.7155 213.97 42.3491C211.095 44.9828 207.367 46.3523 203 46.3523V52.1463L198.314 52.041ZM207.154 25.4937C205.769 25.4937 204.491 25.9151 203.107 26.8632V41.8224C206.409 41.8224 208.965 40.8743 210.882 39.1887C212.799 37.3978 213.757 35.1856 213.757 32.4466C213.757 30.2343 213.118 28.5487 211.84 27.2846C210.562 26.1258 208.965 25.4937 207.154 25.4937Z" fill="black"/>
<path d="M221.745 34.5536C221.745 30.7611 222.81 27.4954 224.941 24.9671C227.071 22.4388 229.946 21.1746 233.567 21.1746C237.082 21.1746 239.851 22.3334 241.875 24.6511C243.899 26.9687 244.857 29.7077 244.857 32.8681C244.857 36.6605 243.792 39.9263 241.662 42.4546C239.532 44.9829 236.656 46.247 233.035 46.247C229.52 46.247 226.751 45.0882 224.728 42.7706C222.704 40.5583 221.745 37.714 221.745 34.5536ZM240.064 33.2894C240.064 31.1825 239.532 29.2863 238.36 27.8114C237.189 26.3366 235.591 25.5992 233.567 25.5992C231.224 25.5992 229.52 26.3366 228.349 27.9168C227.177 29.497 226.645 31.4986 226.645 34.2376C226.645 36.3445 227.177 38.2407 228.349 39.7156C229.52 41.1904 231.118 41.9278 233.141 41.9278C235.485 41.9278 237.189 41.1904 238.36 39.6102C239.425 38.1354 240.064 36.0284 240.064 33.2894Z" fill="black"/>
<path d="M13.1002 66.1575H9.58553C4.36674 66.1575 0 61.9436 0 56.6763V53.1999C0 52.0411 0.958553 51.093 2.13012 51.093C3.30168 51.093 4.26024 52.0411 4.26024 53.1999V56.6763C4.26024 59.626 6.60337 61.9436 9.58553 61.9436H12.9937C14.1653 61.9436 15.1238 62.8918 15.1238 64.0506C15.1238 65.2094 14.2718 66.1575 13.1002 66.1575Z" fill="black"/>
<path d="M57.3002 66.1575H53.7855C52.6139 66.1575 51.6554 65.2094 51.6554 64.0506C51.6554 62.8918 52.6139 61.9436 53.7855 61.9436H57.3002C60.2824 61.9436 62.6255 59.626 62.6255 56.6763V53.1999C62.6255 52.0411 63.5841 51.093 64.7556 51.093C65.9272 51.093 66.8857 52.0411 66.8857 53.1999V56.6763C66.8857 61.8383 62.6255 66.1575 57.3002 66.1575Z" fill="black"/>
<path d="M64.7556 16.0126C63.5841 16.0126 62.6255 15.0645 62.6255 13.9057V9.48117C62.6255 6.53147 60.2824 4.21385 57.3002 4.21385H52.9335C51.7619 4.21385 50.8033 3.26574 50.8033 2.10693C50.8033 0.948117 51.7619 0 52.9335 0H57.3002C62.6255 0 66.8858 4.21385 66.8858 9.48117V13.9057C66.8858 15.0645 65.9272 16.0126 64.7556 16.0126Z" fill="black"/>
<path d="M2.23669 15.0645C1.06512 15.0645 0.106567 14.1164 0.106567 12.9576V9.48117C0.106567 4.3192 4.3668 0 9.6921 0H13.3133C14.4849 0 15.4434 0.948117 15.4434 2.10693C15.4434 3.26574 14.4849 4.21385 13.3133 4.21385H9.6921C6.70993 4.21385 4.3668 6.53148 4.3668 9.48117V12.9576C4.3668 14.1164 3.40825 15.0645 2.23669 15.0645Z" fill="black"/>
<path d="M50.9099 37.5032L21.1948 10.4292C20.8752 10.1132 20.4492 10.1132 20.0232 10.2185C19.5972 10.4292 19.3842 10.7453 19.3842 11.1666V51.0929C19.3842 51.5143 19.5972 51.9357 20.0232 52.041C20.4492 52.2517 20.8752 52.1464 21.1948 51.8303L29.1827 44.2454L34.1885 55.4121C34.295 55.7281 34.6145 55.9388 34.934 56.0442C35.0405 56.0442 35.0405 56.0442 35.147 56.0442C35.4665 56.0442 35.6796 55.9388 35.8926 55.7281C37.8097 53.7265 39.0877 53.6212 40.5788 53.4105C41.5374 53.3052 42.4959 53.1998 43.561 52.5677C44.0935 52.357 44.2 51.725 43.987 51.1982L38.9812 39.9262L50.0579 39.1888C50.4839 39.1888 50.9099 38.8727 51.0164 38.4513C51.1229 38.03 51.2294 37.8193 50.9099 37.5032ZM33.7625 36.6605C33.5494 36.9765 33.5494 37.2925 33.6559 37.6086L38.9812 49.7234C38.8747 49.7234 38.7682 49.7234 38.6617 49.8287C38.0227 49.9341 37.3837 50.0394 36.5316 50.6715L31.2063 38.7674C31.0998 38.4513 30.7803 38.2406 30.4608 38.1353C30.3543 38.1353 30.3543 38.1353 30.2478 38.1353C29.9282 38.1353 29.7152 38.2406 29.5022 38.4513L23.4314 44.14V17.8035L43.0285 35.607L34.6145 36.1337C34.295 36.1337 33.9755 36.3444 33.7625 36.6605Z" fill="black"/>
</svg>
