<?xml version="1.0" standalone="no"?>
<!DOCTYPE svg PUBLIC "-//W3C//DTD SVG 20010904//EN"
 "http://www.w3.org/TR/2001/REC-SVG-20010904/DTD/svg10.dtd">
<svg version="1.0" xmlns="http://www.w3.org/2000/svg"
 width="1461.000000pt" height="1202.000000pt" viewBox="0 0 1461.000000 1202.000000"
 preserveAspectRatio="xMidYMid meet">

<g transform="translate(0.000000,1202.000000) scale(0.100000,-0.100000)"
fill="#000000" stroke="none">
<path d="M5729 12010 c-188 -30 -358 -135 -457 -283 -66 -100 -93 -179 -99
-297 -9 -167 45 -313 165 -441 l68 -73 -31 -46 c-94 -139 -94 -360 0 -501 l25
-38 -46 -148 c-123 -395 -274 -735 -440 -991 -66 -101 -97 -122 -180 -122
-153 0 -337 153 -564 471 -114 158 -255 388 -252 411 10 106 4 160 -25 218
l-30 61 24 67 c21 57 24 80 21 153 -3 72 -9 97 -36 151 -108 220 -382 309
-608 198 -86 -42 -157 -113 -197 -197 -30 -63 -32 -76 -32 -173 0 -93 3 -111
27 -163 34 -73 114 -157 183 -193 50 -26 54 -31 60 -73 13 -89 81 -183 163
-225 17 -9 32 -28 39 -48 97 -305 193 -648 193 -693 0 -15 -12 -6 -47 34 -147
166 -350 456 -532 757 l-91 151 15 43 c34 97 8 228 -64 319 l-33 41 31 53
c111 195 70 441 -100 601 -325 307 -870 134 -940 -298 -35 -215 119 -462 338
-541 l48 -17 1 -70 c2 -56 8 -82 33 -133 36 -73 112 -146 178 -171 l43 -17 64
-196 c203 -615 301 -1054 366 -1646 34 -298 64 -408 134 -492 31 -37 107 -78
171 -94 38 -9 392 -12 1425 -11 756 1 1843 -2 2415 -6 572 -4 1074 -4 1116 0
100 9 182 41 237 91 86 80 118 184 152 492 67 603 155 1001 370 1675 l59 185
46 19 c25 10 70 41 100 68 70 63 105 136 112 232 l6 71 86 42 c392 189 398
713 10 907 -326 163 -717 -1 -804 -339 -29 -114 -11 -241 50 -351 l33 -62 -29
-28 c-16 -16 -42 -53 -56 -84 -22 -45 -27 -70 -27 -135 -1 -47 5 -94 13 -113
14 -33 13 -34 -84 -195 -185 -307 -339 -528 -493 -710 -41 -48 -76 -86 -79
-83 -11 11 83 362 163 607 40 122 47 138 73 149 38 15 109 86 133 133 10 21
22 60 25 86 5 45 7 48 61 76 151 79 242 256 213 416 -30 171 -150 298 -326
344 -232 60 -476 -76 -540 -300 -22 -75 -16 -183 15 -251 l21 -49 -28 -55
c-25 -48 -28 -66 -29 -150 0 -110 3 -102 -126 -303 -322 -506 -583 -722 -773
-643 -65 27 -237 323 -366 627 -62 147 -209 573 -209 606 0 10 15 48 34 83 46
89 60 155 53 258 -4 77 -10 96 -51 176 l-46 91 59 60 c118 120 171 247 171
408 0 172 -55 302 -180 427 -82 83 -192 145 -306 174 -77 20 -213 27 -285 16z
m244 -185 c84 -22 148 -57 216 -121 204 -188 181 -492 -49 -653 -59 -42 -147
-81 -180 -81 -13 0 -20 -7 -20 -18 0 -13 17 -25 55 -41 71 -30 139 -96 173
-169 50 -109 26 -245 -58 -330 l-33 -32 18 -63 c117 -421 306 -880 478 -1160
105 -171 117 -184 182 -217 157 -79 300 -61 478 57 184 122 402 393 643 798
l87 147 -23 40 c-28 50 -22 99 17 140 27 28 94 54 117 45 7 -3 18 4 25 15 14
23 17 20 -35 46 -79 40 -124 115 -124 207 0 134 113 234 265 235 199 0 322
-177 237 -341 -45 -87 -137 -139 -248 -139 -43 0 -53 -3 -57 -19 -3 -12 4 -28
19 -42 78 -73 36 -190 -74 -208 l-36 -6 -72 -220 c-79 -241 -141 -467 -185
-675 -32 -156 -72 -420 -65 -428 3 -3 32 12 63 33 296 195 605 581 975 1213
l89 152 -25 31 c-32 37 -40 67 -34 123 10 82 83 144 178 149 46 3 54 7 67 31
8 15 13 29 11 30 -2 1 -23 11 -47 21 -61 27 -137 104 -167 169 -28 62 -34 160
-13 223 28 88 103 167 198 212 50 23 68 26 166 26 98 0 116 -3 167 -27 77 -36
141 -98 178 -171 58 -116 34 -260 -59 -356 -81 -83 -200 -128 -312 -118 -58 5
-58 5 -69 -26 -10 -29 -8 -34 19 -57 43 -37 63 -74 63 -122 2 -93 -66 -167
-162 -176 l-50 -5 -71 -216 c-226 -691 -330 -1140 -394 -1716 -41 -371 -61
-437 -140 -478 l-40 -20 -2475 2 -2475 2 -45 22 c-83 40 -99 95 -145 502 -61
525 -153 936 -346 1548 -33 103 -74 226 -90 273 -31 84 -31 84 -66 84 -47 0
-96 25 -132 66 -58 65 -53 150 11 220 35 38 39 46 31 71 -9 27 -11 28 -79 25
-263 -12 -459 226 -373 453 28 74 101 150 184 191 55 27 69 29 170 29 102 0
115 -2 175 -31 80 -38 145 -101 179 -174 37 -79 36 -183 -3 -262 -31 -65 -102
-135 -171 -167 l-46 -21 17 -28 c14 -24 23 -28 63 -29 84 -1 156 -52 182 -130
14 -43 6 -87 -26 -135 -14 -21 -25 -41 -25 -46 0 -5 58 -105 129 -224 354
-591 637 -940 911 -1120 59 -39 76 -46 78 -34 5 23 -35 280 -64 416 -44 205
-103 420 -181 661 l-76 237 -41 5 c-60 8 -106 61 -106 121 0 35 6 50 30 76 21
22 28 39 25 53 -5 20 -12 22 -58 19 -144 -9 -277 110 -277 248 0 80 67 171
155 211 50 23 156 25 216 4 122 -43 191 -166 158 -283 -15 -54 -99 -147 -143
-158 -21 -5 -24 -9 -15 -25 6 -11 21 -19 37 -19 45 -1 109 -36 126 -69 22 -41
20 -93 -4 -124 -11 -14 -20 -28 -20 -32 0 -12 183 -310 264 -430 161 -239 362
-458 489 -534 111 -66 173 -85 273 -86 84 0 95 2 165 37 74 37 75 37 159 164
186 280 384 744 505 1181 l28 102 -41 46 c-69 79 -91 195 -56 299 23 66 99
146 173 181 60 29 83 52 58 60 -6 2 -30 9 -52 15 -165 50 -293 189 -326 354
-42 204 117 427 348 491 66 18 207 18 276 0z"/>
<path d="M7010 6774 c-446 -38 -814 -165 -1151 -395 -640 -438 -971 -1148
-888 -1907 64 -592 376 -1063 911 -1376 180 -105 465 -222 938 -386 536 -185
636 -230 749 -335 86 -80 101 -115 101 -236 0 -193 -57 -292 -214 -370 -156
-77 -401 -102 -572 -59 -160 40 -407 181 -965 551 -199 131 -364 239 -368 239
-7 0 -676 -1588 -676 -1606 0 -14 339 -238 550 -364 290 -173 644 -332 910
-410 285 -83 508 -114 810 -114 333 1 578 39 873 136 908 298 1462 1080 1462
2063 0 447 -110 813 -333 1112 -284 378 -707 652 -1304 844 -401 129 -507 165
-638 216 -223 87 -413 201 -437 262 -17 46 -6 180 21 234 48 98 164 182 289
208 79 16 278 6 362 -19 154 -46 385 -157 834 -402 153 -83 280 -150 281 -148
14 13 695 1524 691 1533 -7 18 -486 301 -643 379 -352 176 -710 286 -1073 331
-124 15 -434 27 -520 19z m550 -274 c420 -62 800 -205 1222 -459 l156 -94 -18
-41 c-67 -154 -472 -1032 -479 -1039 -5 -5 -87 33 -197 93 -361 198 -637 321
-796 356 -113 25 -308 30 -404 10 -243 -49 -420 -188 -501 -392 -25 -63 -27
-81 -28 -204 0 -128 1 -138 29 -198 82 -178 368 -334 956 -522 447 -143 521
-170 737 -276 258 -127 459 -275 623 -459 242 -272 352 -567 367 -990 19 -532
-127 -978 -442 -1354 -297 -353 -769 -588 -1335 -663 -125 -16 -499 -16 -620
1 -479 66 -918 243 -1466 592 -96 61 -176 115 -179 119 -4 7 434 1060 469
1127 11 22 18 18 246 -133 429 -285 728 -452 895 -500 212 -61 537 -37 741 56
255 115 369 285 381 566 10 212 -29 318 -162 448 -133 132 -274 200 -762 370
-657 228 -878 321 -1075 453 -376 251 -606 592 -686 1018 -24 130 -24 515 1
637 56 276 158 507 324 730 313 420 837 709 1395 768 131 14 454 3 608 -20z"/>
<path d="M7035 6268 c-531 -28 -1047 -316 -1327 -742 -153 -232 -231 -471
-245 -741 -25 -521 168 -917 582 -1196 181 -123 416 -222 1025 -434 515 -179
708 -276 867 -434 187 -184 262 -405 233 -683 -15 -146 -35 -218 -92 -338 -45
-94 -61 -114 -147 -200 -192 -190 -440 -290 -765 -309 -231 -13 -409 17 -603
99 -114 49 -376 197 -583 330 -80 51 -158 101 -175 111 l-30 18 -138 -327
c-76 -180 -138 -331 -139 -337 -2 -14 241 -161 412 -249 497 -255 917 -355
1376 -326 796 51 1371 446 1598 1098 120 347 124 823 7 1140 -42 116 -90 197
-183 314 -225 279 -576 486 -1100 647 -668 206 -978 350 -1173 546 -127 127
-177 262 -177 475 0 149 21 242 82 366 138 282 428 466 775 494 170 13 363
-11 530 -65 108 -36 325 -133 513 -231 90 -47 165 -84 166 -82 2 2 67 144 146
317 l143 314 -24 19 c-48 37 -408 208 -533 253 -339 121 -673 171 -1021 153z"/>
<path d="M10 3400 l0 -3310 2275 0 c1814 0 2275 3 2275 13 -1 6 -126 377 -278
822 l-278 810 -1122 3 -1122 2 0 425 0 425 1115 0 1115 0 0 820 0 820 -1115 0
-1115 0 0 415 0 415 1054 0 1053 0 358 808 c197 444 360 815 363 825 4 16
-110 17 -2287 17 l-2291 0 0 -3310z m4196 3043 c-4 -10 -118 -269 -254 -575
l-246 -558 -1098 0 -1098 0 0 -665 0 -665 1120 0 1120 0 0 -570 0 -570 -1120
0 -1120 0 0 -675 0 -675 1156 0 1155 0 14 -32 c11 -28 77 -219 350 -1020 l34
-98 -1980 0 -1979 0 0 3060 0 3060 1976 0 c1878 0 1976 -1 1970 -17z"/>
<path d="M510 3395 l0 -2805 1675 0 c921 0 1675 3 1675 8 0 4 -48 148 -106
319 l-107 313 -1196 2 -1196 3 -3 928 -2 927 1120 0 1120 0 0 320 0 320 -1120
0 -1120 0 0 915 0 915 1146 2 1146 3 139 315 c76 173 139 316 139 317 0 2
-745 3 -1655 3 l-1655 0 0 -2805z"/>
<path d="M9870 3400 l0 -3310 2364 0 2365 0 -46 103 c-25 56 -184 415 -353
797 -170 382 -314 707 -321 723 l-12 27 -1124 0 -1123 0 0 2485 0 2485 -875 0
-875 0 0 -3310z m1500 575 l0 -2485 1164 0 c919 0 1166 -3 1173 -12 8 -11 478
-1066 498 -1120 7 -17 -94 -18 -2039 -18 l-2046 0 0 3060 0 3060 625 0 625 0
0 -2485z"/>
<path d="M10372 3398 l3 -2803 1723 -3 c947 -1 1722 1 1722 5 0 5 -62 149
-137 320 l-138 313 -1212 0 -1213 0 0 2485 0 2485 -375 0 -375 0 2 -2802z"/>
</g>
</svg>
