<?xml version="1.0" standalone="no"?>
<!DOCTYPE svg PUBLIC "-//W3C//DTD SVG 20010904//EN"
 "http://www.w3.org/TR/2001/REC-SVG-20010904/DTD/svg10.dtd">
<svg version="1.0" xmlns="http://www.w3.org/2000/svg"
 width="11760.000000pt" height="4060.000000pt" viewBox="0 0 11760.000000 4060.000000"
 preserveAspectRatio="xMidYMid meet">

<g transform="translate(0.000000,4060.000000) scale(0.100000,-0.100000)"
fill="#000000" stroke="none">
<path d="M98360 40471 c-502 -221 -717 -336 -1080 -576 -595 -395 -1191 -942
-1753 -1608 -55 -65 -103 -115 -107 -110 -4 4 -116 289 -250 633 -133 344
-245 630 -249 636 -3 6 -199 -328 -435 -743 -236 -414 -432 -756 -437 -758 -4
-3 -24 23 -45 57 -322 535 -754 985 -1289 1343 -212 141 -340 215 -570 326
-378 183 -811 330 -1245 423 -152 33 -639 118 -651 114 -5 -2 104 -140 243
-308 906 -1099 1294 -1641 1543 -2153 82 -167 164 -381 152 -394 -4 -3 -531
76 -1172 176 -641 100 -1170 181 -1176 179 -5 -2 164 -235 376 -518 212 -283
382 -516 376 -518 -5 -2 -69 8 -141 23 -325 63 -654 90 -1010 82 -267 -6 -428
-21 -670 -63 -496 -85 -1034 -281 -1487 -543 -129 -74 -470 -289 -477 -300 -2
-3 312 -127 697 -276 953 -366 930 -356 920 -365 -4 -4 -78 -31 -163 -59 -468
-158 -995 -401 -1402 -647 -442 -268 -847 -594 -1152 -930 -124 -135 -300
-344 -295 -348 2 -2 411 -88 909 -190 498 -103 913 -190 922 -194 13 -5 -12
-27 -109 -92 -955 -640 -1957 -1655 -2703 -2738 -111 -161 -433 -663 -428
-666 2 -2 1413 202 1581 229 l39 6 -24 -29 c-12 -16 -94 -114 -182 -218 -631
-753 -1085 -1517 -1315 -2214 -23 -69 -44 -132 -47 -140 -4 -11 -15 -5 -42 26
-21 23 -96 106 -168 185 -152 167 -380 433 -800 929 -466 551 -638 738 -898
979 -810 752 -1630 1162 -2572 1286 -693 91 -1599 -18 -2093 -251 -261 -123
-447 -312 -516 -521 -9 -29 -21 -53 -26 -53 -5 0 -49 20 -97 44 -126 63 -431
202 -626 286 -902 385 -1868 678 -2761 839 -2087 375 -4285 132 -6345 -701
-320 -130 -573 -246 -941 -430 l-356 -179 -73 78 c-1530 1628 -3563 2665
-6055 3087 -527 89 -1064 149 -1670 186 -283 18 -1180 24 -1505 11 -1125 -46
-2207 -191 -3257 -436 -131 -31 -250 -58 -264 -61 -23 -5 -32 2 -81 73 -394
561 -891 988 -1483 1274 -421 202 -836 320 -1337 376 -189 21 -730 24 -948 5
-356 -31 -804 -97 -1310 -192 -2236 -421 -4082 -828 -6521 -1436 -2269 -565
-3737 -967 -5220 -1431 l-307 -95 -128 84 c-1129 740 -2437 1263 -3909 1562
-661 134 -1331 219 -2100 266 -283 18 -1180 24 -1505 11 -3153 -129 -6182
-1087 -8410 -2659 -506 -358 -920 -706 -1401 -1179 l-206 -203 -228 293
c-1047 1338 -1764 2164 -2225 2563 -520 448 -963 665 -1535 751 -111 17 -223
18 -1520 18 -1288 0 -1410 -1 -1530 -18 -604 -83 -1145 -336 -1696 -792 -154
-128 -420 -383 -592 -570 -585 -634 -1412 -1794 -2249 -3155 -2187 -3553
-5082 -9221 -6154 -12047 -166 -438 -269 -789 -348 -1187 -33 -165 -36 -194
-36 -357 0 -304 30 -563 95 -829 304 -1228 1331 -2386 3086 -3478 734 -456
1742 -974 2733 -1404 1491 -646 2807 -1042 3831 -1152 223 -24 529 -38 670
-31 671 33 1249 284 1875 814 752 636 1986 2171 3689 4589 79 112 147 202 151
200 4 -2 123 -140 266 -307 1412 -1660 2066 -2277 2786 -2631 396 -195 731
-275 1203 -287 l220 -5 160 -88 c1479 -810 3051 -1321 4585 -1489 487 -54 498
-54 1670 -58 1150 -5 1320 -1 1745 38 1596 146 3161 637 4629 1454 114 64 209
115 211 113 1 -2 28 -139 60 -305 l59 -303 174 -212 c96 -117 274 -337 396
-488 277 -345 368 -451 497 -580 145 -144 271 -247 439 -359 568 -378 1208
-543 1952 -503 407 21 600 49 2383 343 916 150 1497 283 2070 473 331 110 543
195 813 327 502 244 874 504 1188 832 451 469 729 1022 825 1643 39 257 37
823 -6 1334 -68 801 -203 1534 -499 2713 -73 290 -131 527 -129 527 2 0 34
-64 71 -142 182 -382 466 -875 735 -1278 1393 -2085 3532 -3798 5962 -4772
1049 -421 2117 -691 3175 -802 479 -50 502 -51 1770 -51 1281 0 1317 1 1805
56 1685 188 3372 775 4867 1695 l88 54 167 -168 c1920 -1916 4589 -3197 7548
-3621 1029 -147 2103 -187 3135 -116 1093 76 2197 286 3210 611 2413 775 4366
2228 5725 4259 712 1064 1144 2145 1305 3265 46 318 61 526 67 895 6 377 6
379 -78 735 -81 343 -233 727 -404 1016 l-46 77 30 41 c363 484 626 1106 735
1731 37 212 54 389 66 652 59 1376 -159 2647 -675 3939 -136 340 -341 777
-507 1078 -47 85 -57 110 -47 117 8 5 19 9 24 9 6 0 102 14 215 30 113 17 311
41 440 55 509 54 839 102 1219 176 112 22 205 38 208 36 2 -3 -7 -49 -21 -103
-64 -256 -122 -590 -158 -914 -16 -147 -21 -272 -25 -610 -2 -234 0 -444 4
-466 l8 -42 605 318 c333 174 606 316 608 315 1 -1 -18 -52 -43 -113 -178
-436 -295 -948 -347 -1522 -15 -165 -16 -980 -2 -1173 l9 -118 265 232 c146
127 272 238 281 246 15 12 18 5 28 -84 146 -1201 499 -2334 1064 -3408 68
-129 274 -512 282 -523 1 -1 59 206 130 460 70 255 131 469 134 476 4 7 24
-49 46 -125 240 -864 626 -1673 1220 -2558 286 -427 330 -487 333 -467 1 9 45
397 96 861 52 463 97 845 99 847 2 3 54 -88 116 -201 561 -1033 1138 -1774
1768 -2272 106 -84 301 -218 391 -269 46 -26 54 -35 67 -79 36 -125 58 -238
62 -326 5 -95 5 -96 -35 -186 -101 -224 -106 -413 -17 -602 l36 -74 -29 -36
c-833 -1038 -1375 -2488 -1441 -3851 l-9 -185 -61 -125 -61 -125 -2 -341 -3
-340 27 -40 c67 -96 289 -251 551 -383 1227 -619 3755 -1204 5832 -1350 510
-36 1377 -39 1785 -7 917 74 1473 234 1766 509 l64 59 127 -36 c723 -205 1653
-170 2618 100 416 116 891 298 1149 441 203 111 437 277 631 446 144 125 274
258 284 291 6 17 38 373 72 791 52 644 60 766 50 800 -7 22 -18 73 -26 113
-64 334 -201 634 -480 1052 -281 421 -621 822 -1231 1454 -148 153 -269 282
-269 286 0 4 34 34 76 68 134 106 247 279 292 447 42 155 40 367 -5 560 -23
101 -89 298 -119 356 -10 21 -19 44 -19 51 0 16 821 2421 830 2431 4 5 83
-122 176 -282 93 -160 171 -291 174 -291 10 0 257 334 363 490 481 712 797
1482 952 2323 25 140 68 442 80 575 4 40 10 72 15 70 4 -2 229 -253 500 -558
271 -305 496 -556 499 -557 8 -3 163 351 268 611 440 1095 592 2141 487 3347
-8 99 -14 189 -12 200 2 16 134 -111 576 -554 315 -316 574 -572 576 -568 10
17 139 423 170 536 126 461 179 850 179 1315 1 358 -24 614 -92 948 -17 84
-24 139 -17 135 6 -4 294 -236 639 -516 346 -280 630 -507 632 -505 8 7 35
380 46 623 16 352 0 736 -46 1100 -100 790 -350 1519 -743 2168 -35 59 -62
110 -60 113 8 7 338 69 504 94 174 26 447 37 575 21 253 -29 470 -118 683
-278 48 -35 155 -131 238 -211 84 -81 180 -168 213 -193 303 -232 697 -394
1350 -558 310 -77 1252 -281 1480 -321 743 -127 1253 -69 1504 171 115 110
171 246 179 431 7 194 -29 368 -109 516 -26 48 -35 72 -26 72 7 0 58 -7 113
-14 395 -58 693 -3 913 170 89 70 182 185 243 301 201 385 164 721 -111 1006
-121 126 -253 218 -462 323 -61 31 -109 57 -107 59 2 2 66 19 143 39 238 60
346 103 478 189 262 171 389 396 374 661 -11 203 -97 367 -286 548 -212 203
-416 303 -712 350 -61 9 -191 12 -467 11 -486 -2 -601 -11 -1257 -98 -535 -71
-632 -79 -920 -79 -201 -1 -286 3 -375 17 -137 21 -303 75 -308 98 -7 39 212
167 481 280 160 68 271 138 381 240 190 178 330 441 367 689 14 99 7 260 -16
345 -57 209 -206 389 -400 481 -109 52 -183 67 -300 61 -158 -8 -350 -75 -893
-313 -356 -156 -470 -202 -743 -298 -423 -148 -643 -237 -869 -352 -415 -210
-644 -431 -815 -786 -124 -259 -205 -558 -305 -1131 -38 -221 -59 -288 -111
-366 -71 -107 -188 -167 -376 -192 -88 -12 -509 -7 -600 7 -33 5 -58 21 -120
77 -310 278 -648 526 -961 705 -68 39 -129 73 -135 75 -44 16 47 22 336 22
533 0 812 -38 1411 -195 148 -39 273 -69 278 -68 11 4 -371 545 -578 818 -632
837 -1146 1317 -1874 1751 l-124 74 64 9 c36 5 290 9 565 10 603 1 705 -7
1363 -105 151 -22 275 -39 278 -37 7 7 -495 499 -591 579 -581 487 -1312 835
-2236 1064 -318 79 -692 148 -1073 200 -105 14 -191 27 -193 29 -5 5 199 136
305 196 486 272 1031 448 1722 555 129 20 268 42 308 48 l73 12 -213 151
c-382 271 -597 402 -912 555 -683 330 -1327 482 -2110 498 l-309 6 126 99
c255 200 487 346 772 486 220 108 390 173 733 281 152 48 257 86 250 90 -25
14 -534 197 -673 242 -925 299 -1844 352 -2789 161 -66 -13 -121 -22 -123 -20
-3 2 281 333 631 735 499 574 631 731 613 731 -47 0 -487 -31 -582 -40 -893
-92 -1818 -388 -2928 -937 -170 -84 -311 -153 -314 -153 -19 0 38 289 97 491
129 446 330 876 762 1632 88 154 158 280 156 282 -9 7 -555 -97 -701 -134
-864 -216 -1757 -691 -2596 -1381 -67 -56 -126 -99 -129 -95 -18 17 64 452
129 691 144 529 347 1018 708 1708 83 159 150 290 149 291 -2 1 -122 -50 -268
-114z m-460 -595 c0 -2 -30 -70 -66 -152 -245 -550 -404 -1053 -488 -1544 -46
-267 -58 -401 -63 -740 l-5 -325 43 41 c910 847 1659 1358 2469 1681 229 92
640 224 640 207 0 -3 -39 -78 -87 -167 -364 -677 -570 -1263 -628 -1778 -17
-150 -25 -559 -11 -559 5 0 101 50 215 112 1169 633 2125 1000 3004 1153 82
15 157 25 168 23 15 -2 -147 -194 -715 -848 -404 -465 -733 -846 -731 -848 1
-2 155 45 341 103 187 59 425 129 529 155 878 225 1688 236 2520 35 215 -52
211 -41 44 -123 -356 -175 -682 -393 -1024 -685 -125 -106 -641 -614 -633
-622 2 -3 123 11 269 30 441 58 591 68 954 62 323 -5 457 -16 710 -58 479 -80
994 -256 1425 -489 129 -70 230 -129 230 -135 0 -2 -53 -15 -117 -30 -451
-104 -928 -288 -1299 -500 -151 -87 -396 -253 -521 -353 -142 -115 -425 -363
-420 -369 3 -2 146 -17 320 -33 551 -51 903 -99 1307 -180 791 -159 1408 -381
1945 -701 160 -96 370 -238 362 -245 -3 -3 -94 0 -203 7 -375 22 -997 4 -1374
-41 -160 -19 -715 -101 -734 -108 -14 -6 53 -46 275 -164 630 -335 905 -501
1214 -733 433 -325 814 -722 1258 -1309 73 -97 85 -118 66 -113 -39 10 -316
46 -434 57 -196 18 -521 23 -720 11 -332 -21 -561 -56 -1110 -170 l-230 -48
280 -93 c370 -123 491 -168 670 -254 627 -301 1267 -819 1833 -1484 57 -68
102 -125 99 -128 -4 -4 -1011 130 -1497 200 -52 8 -96 13 -98 11 -1 -1 109
-107 244 -236 264 -250 435 -428 597 -623 605 -727 978 -1541 1136 -2481 60
-357 98 -988 73 -1191 l-7 -51 -810 657 c-445 361 -812 656 -813 654 -2 -1 53
-173 121 -381 131 -394 199 -648 241 -893 105 -615 82 -1207 -70 -1830 -20
-80 -39 -148 -43 -153 -4 -4 -335 324 -736 728 -400 405 -729 734 -731 732 -2
-2 19 -152 46 -333 62 -407 95 -688 114 -954 66 -921 -15 -1703 -259 -2500
-65 -212 -216 -624 -259 -707 -10 -21 -52 23 -611 652 -329 371 -600 673 -602
671 -3 -2 -8 -131 -13 -287 -12 -353 -25 -531 -55 -774 -114 -906 -416 -1733
-908 -2483 -55 -84 -103 -149 -107 -145 -4 4 -265 451 -581 992 -315 541 -575
977 -578 970 -2 -7 2 -195 9 -418 13 -414 10 -600 -16 -871 -47 -503 -178
-1060 -389 -1655 -66 -185 -225 -598 -247 -640 l-15 -28 -40 54 c-22 30 -259
358 -528 729 -268 371 -512 708 -541 748 -47 64 -54 71 -58 50 -2 -13 -34
-637 -71 -1388 -36 -751 -68 -1379 -71 -1396 -4 -30 -6 -28 -147 115 -79 80
-483 497 -897 926 -414 429 -827 855 -917 946 -152 155 -163 163 -163 135 0
-17 32 -406 70 -865 38 -459 68 -836 66 -839 -2 -2 -492 358 -1088 801 -745
553 -1084 799 -1086 788 -1 -9 65 -367 147 -796 82 -429 148 -781 147 -783 -2
-1 -65 19 -142 44 -516 171 -1039 446 -1489 784 -229 172 -384 308 -656 578
l-267 263 -6 -48 c-3 -26 -20 -461 -38 -966 -18 -505 -35 -923 -39 -929 -11
-17 -462 277 -799 520 -468 338 -871 682 -1240 1058 -307 313 -498 545 -787
955 -134 191 -163 226 -167 207 -3 -13 -53 -423 -111 -913 -58 -489 -109 -905
-113 -923 l-7 -33 -75 51 c-158 109 -323 252 -531 459 -233 234 -352 372 -549
636 -431 577 -769 1166 -1236 2152 -83 176 -121 247 -126 235 -4 -9 -54 -451
-113 -982 -58 -530 -107 -966 -109 -967 -1 -1 -39 57 -83 130 -479 778 -818
1584 -992 2355 -51 225 -85 428 -152 905 -29 208 -56 372 -59 365 -4 -7 -103
-359 -220 -783 -117 -423 -216 -774 -220 -778 -4 -4 -51 88 -105 204 -515
1117 -786 2183 -866 3407 -7 105 -16 192 -21 192 -4 0 -116 -96 -250 -212
-134 -117 -252 -220 -262 -228 -19 -15 -19 -9 -13 235 14 556 95 1036 252
1502 109 324 210 535 469 978 89 154 162 281 161 283 -1 2 -384 -197 -851
-442 l-849 -445 -3 82 c-8 189 37 650 93 952 122 662 347 1321 679 1983 106
211 207 393 422 755 101 171 183 311 182 312 -2 1 -201 -105 -443 -237 -242
-132 -591 -321 -775 -420 -184 -100 -416 -225 -515 -279 -99 -54 -181 -96
-183 -94 -7 7 32 261 65 420 165 801 626 1648 1396 2570 144 172 350 402 595
665 111 118 200 215 199 216 -1 1 -245 -33 -542 -77 -979 -143 -1275 -185
-1275 -181 0 8 166 240 283 397 707 943 1568 1775 2422 2340 200 132 296 190
582 350 117 65 211 120 210 122 -2 1 -462 97 -1023 213 -560 116 -1041 216
-1068 222 l-48 10 73 75 c333 339 832 689 1358 952 515 258 980 426 1728 627
161 43 291 79 290 81 -2 1 -437 170 -968 374 -530 204 -966 372 -968 375 -7 6
332 167 469 222 331 133 696 225 1080 272 138 17 608 24 769 11 426 -34 735
-97 1284 -262 164 -50 300 -89 302 -87 2 2 -192 264 -431 583 -333 444 -431
581 -417 583 10 1 461 -67 1003 -152 542 -85 987 -152 989 -150 7 7 -20 217
-44 339 -107 537 -496 1193 -1321 2226 -79 100 -143 184 -140 186 7 7 213 -53
388 -113 686 -236 1282 -610 1737 -1092 293 -309 505 -621 732 -1073 49 -99
91 -179 93 -179 1 0 187 324 412 720 225 396 411 720 414 720 3 0 108 -266
234 -590 180 -463 232 -588 241 -578 7 7 70 87 141 178 727 936 1453 1610
2238 2079 154 92 186 108 186 97z m-47915 -7281 c491 -59 916 -233 1270 -520
205 -166 428 -424 586 -676 95 -153 241 -448 318 -645 l64 -161 151 49 c699
228 1627 444 2416 562 814 122 1525 176 2345 176 823 0 1487 -52 2240 -175
2662 -435 4718 -1648 6039 -3565 33 -47 60 -86 61 -88 1 -2 65 39 141 91 1287
871 2814 1484 4289 1721 613 99 1068 131 1725 123 423 -5 612 -16 940 -53
1226 -138 2532 -540 3770 -1159 308 -154 693 -364 687 -375 -37 -66 -90 -189
-102 -235 -19 -76 -19 -204 0 -280 58 -222 277 -404 554 -460 62 -13 114 -16
200 -13 138 6 193 24 405 130 114 57 143 68 160 60 63 -30 580 -451 851 -693
185 -164 606 -579 600 -590 -7 -10 -147 -56 -365 -119 -475 -138 -645 -214
-779 -349 -177 -181 -171 -407 19 -693 250 -377 571 -561 1079 -619 153 -17
600 -6 818 20 151 18 458 63 534 78 24 5 31 -3 84 -88 184 -297 425 -753 560
-1059 497 -1129 725 -2241 701 -3420 -7 -357 -17 -486 -51 -685 -114 -659
-449 -1227 -928 -1572 -194 -139 -447 -256 -680 -314 l-125 -32 101 -34 c125
-42 359 -154 458 -218 335 -216 596 -527 752 -895 56 -132 88 -231 129 -395
l33 -130 -1 -265 c-4 -1445 -645 -2925 -1883 -4340 -163 -186 -576 -602 -756
-762 -649 -573 -1364 -1050 -2132 -1419 -1197 -577 -2581 -941 -4038 -1063
-387 -33 -584 -40 -1085 -40 -521 0 -704 7 -1150 45 -2382 202 -4649 1037
-6409 2359 -747 561 -1402 1207 -1934 1908 l-84 111 -119 -91 c-1547 -1177
-3342 -1925 -5139 -2142 -479 -58 -510 -59 -1640 -64 -713 -2 -1116 0 -1255 8
-3241 180 -6584 2094 -8497 4863 -558 808 -1013 1759 -1259 2630 -26 96 -28
99 -53 94 -14 -3 -593 -110 -1286 -237 -693 -128 -1262 -234 -1264 -236 -6 -6
46 -323 89 -544 64 -322 125 -590 252 -1090 65 -261 157 -623 203 -805 343
-1360 493 -2378 472 -3209 -7 -292 -41 -438 -153 -661 -259 -519 -850 -931
-1759 -1228 -528 -172 -1114 -300 -2030 -442 -126 -20 -462 -74 -745 -120
-771 -126 -1026 -160 -1300 -171 -334 -14 -603 37 -865 165 -284 139 -451 297
-843 801 -83 107 -186 236 -227 287 l-76 91 -240 1211 -241 1211 -28 -23
c-820 -671 -1466 -1098 -2280 -1506 -1217 -609 -2403 -947 -3745 -1067 -160
-15 -358 -18 -1240 -22 -1095 -4 -1268 0 -1660 39 -1500 148 -3024 659 -4445
1489 l-185 108 -380 5 c-311 4 -394 8 -455 22 -303 69 -571 215 -905 493 -127
106 -663 646 -901 907 -275 303 -560 631 -1013 1164 -212 250 -518 610 -680
800 -320 378 -663 773 -666 769 -1 -2 -134 -199 -295 -438 -1210 -1795 -2407
-3432 -3289 -4495 -394 -474 -578 -680 -812 -910 -398 -390 -726 -594 -1079
-672 -54 -11 -122 -16 -245 -16 -956 4 -2518 474 -4319 1300 -258 119 -959
468 -1191 594 -2208 1197 -3335 2386 -3335 3518 0 435 482 1688 1428 3716
1421 3047 3405 6757 4935 9235 692 1120 1397 2127 1911 2730 116 136 395 419
516 524 326 282 621 444 945 519 88 21 116 21 1365 25 904 2 1304 0 1374 -8
308 -35 609 -203 950 -530 164 -157 533 -566 862 -955 489 -579 1297 -1608
2118 -2697 l238 -317 108 151 c568 795 1288 1549 2025 2119 1790 1386 4350
2325 7055 2589 578 56 1027 74 1670 67 495 -6 632 -11 1015 -43 1613 -131
3095 -546 4305 -1204 410 -223 882 -534 1189 -783 l73 -60 432 141 c1562 512
3629 1084 6171 1706 2255 552 3778 884 6070 1322 467 89 786 133 1155 158 115
8 511 -4 635 -19z m63933 -1117 c78 -29 163 -112 209 -205 34 -69 38 -85 41
-172 8 -205 -87 -431 -250 -594 -85 -84 -164 -135 -299 -192 -371 -155 -616
-321 -685 -462 -24 -49 -27 -66 -26 -147 0 -50 13 -165 28 -256 30 -187 36
-386 15 -485 -46 -213 -186 -403 -403 -547 -144 -96 -193 -116 -348 -143 -85
-15 -119 -32 -146 -73 -59 -90 -21 -208 80 -247 38 -14 54 -15 120 -5 390 59
708 310 906 715 92 187 160 447 160 609 0 35 3 65 6 68 3 3 32 0 65 -8 148
-35 303 -48 559 -47 287 0 376 8 960 83 695 90 915 106 1349 97 288 -6 374
-18 515 -71 167 -64 373 -241 442 -382 37 -73 39 -84 39 -168 0 -118 -22 -165
-124 -266 -113 -112 -230 -168 -471 -224 -296 -70 -538 -97 -855 -97 -248 0
-411 12 -897 66 -172 19 -316 35 -320 35 -5 0 -8 52 -8 115 0 133 -14 278 -36
383 -12 58 -22 80 -50 107 -62 63 -155 67 -222 10 -58 -48 -61 -79 -32 -315
15 -121 7 -515 -14 -700 -56 -478 -189 -936 -363 -1243 -107 -190 -255 -373
-374 -463 -89 -68 -113 -156 -64 -239 29 -51 75 -75 142 -75 65 0 117 34 243
160 136 135 263 307 344 468 15 29 33 55 41 58 15 6 339 -80 535 -141 292 -91
561 -208 725 -316 44 -29 121 -93 171 -143 139 -140 192 -263 182 -426 -6 -98
-36 -166 -99 -225 -126 -118 -336 -164 -689 -151 -593 21 -1549 218 -2385 493
-526 173 -720 282 -1025 578 -216 210 -347 308 -535 402 -337 169 -680 208
-1185 133 -119 -18 -629 -113 -671 -126 -10 -3 -45 34 -109 117 -51 66 -137
172 -191 235 -79 91 -95 114 -78 114 12 0 301 -38 643 -85 341 -47 647 -89
679 -94 31 -4 57 -6 57 -4 0 2 -73 103 -161 226 -183 252 -372 490 -547 687
l-119 135 86 2 c291 8 479 41 612 108 100 51 191 144 246 250 67 132 89 212
143 530 129 749 257 1096 493 1337 221 226 545 390 1287 648 269 94 410 151
805 325 257 113 423 180 555 223 167 55 196 57 298 20z m-34628 -1338 c1038
-72 1938 -512 2799 -1370 216 -215 367 -385 821 -920 577 -682 858 -999 1006
-1135 l54 -50 -19 -100 c-36 -187 -51 -340 -62 -638 -7 -164 -9 -300 -6 -304
3 -3 318 164 699 370 381 207 694 374 696 372 2 -1 -19 -47 -46 -101 -152
-303 -304 -667 -417 -998 -40 -114 -78 -212 -86 -216 -25 -14 -568 -118 -804
-154 -212 -32 -440 -61 -815 -101 -354 -38 -664 -90 -1475 -245 -1042 -200
-1334 -237 -1754 -227 -362 8 -579 64 -784 200 -194 129 -367 374 -367 518 0
92 49 147 195 215 112 52 171 72 512 173 477 141 596 200 797 390 157 150 307
351 387 518 166 348 172 729 17 1095 -77 181 -187 350 -248 380 -57 28 -248
49 -440 49 -355 0 -677 -66 -1365 -278 -228 -70 -258 -83 -484 -206 -265 -144
-326 -169 -431 -175 -105 -5 -176 9 -266 52 -136 66 -204 156 -204 268 0 75
21 134 82 237 249 413 622 717 1070 870 245 84 595 157 863 181 66 6 229 10
363 9 207 -1 246 2 267 15 63 42 78 126 30 176 -69 72 -187 95 -449 87 -253
-7 -530 -46 -876 -122 -142 -31 -162 -33 -240 -25 -47 5 -164 14 -260 20 -223
14 -408 35 -485 55 -150 39 -240 106 -295 219 -155 316 84 604 628 756 402
113 963 169 1392 140z m35560 -2135 c107 -8 315 -24 462 -35 318 -24 454 -41
649 -80 280 -56 538 -160 724 -291 49 -35 135 -109 190 -164 82 -81 109 -115
140 -178 35 -70 39 -89 43 -169 6 -114 -8 -178 -64 -296 -105 -225 -297 -315
-669 -315 -300 1 -632 60 -1155 208 -170 48 -831 252 -837 259 -3 2 16 67 41
144 80 248 140 527 174 806 l16 138 46 -6 c25 -3 133 -13 240 -21z m-34745
-440 c55 -3 109 -8 121 -11 27 -7 103 -133 148 -244 38 -95 68 -190 59 -190
-3 0 -51 44 -107 98 -56 53 -163 153 -239 221 -75 68 -137 128 -137 132 0 5
12 7 28 4 15 -2 72 -7 127 -10z m19525 -13514 c22 -78 120 -502 140 -606 29
-150 29 -274 0 -340 -31 -73 -70 -212 -70 -253 0 -19 -3 -33 -6 -29 -5 4 -112
1221 -114 1291 0 22 41 -31 50 -63z m-957 -718 c565 -420 1032 -761 1036 -758
5 2 14 -15 21 -38 56 -189 221 -366 496 -533 16 -9 -11 -60 -268 -490 -446
-747 -570 -968 -775 -1376 l-123 -248 -133 133 c-732 731 -1763 1396 -2966
1914 -97 41 -177 77 -179 78 -1 1 6 25 17 53 40 102 54 205 48 361 -7 193 -38
311 -144 549 l-46 102 153 255 c84 140 156 255 160 255 4 0 54 -28 111 -63
344 -210 749 -395 1154 -527 144 -47 615 -173 622 -167 1 2 -51 286 -117 631
-66 346 -120 632 -120 638 0 5 5 6 12 2 7 -4 475 -351 1041 -771z m-5708
-2458 c273 -71 474 -286 561 -600 32 -114 43 -317 24 -461 -37 -297 -177 -579
-396 -797 -140 -139 -324 -246 -494 -287 -104 -25 -275 -27 -370 -4 -391 91
-645 515 -601 1000 31 345 181 652 431 887 152 142 332 237 517 272 93 17 240
13 328 -10z m-2308 -3116 c1638 -759 3410 -1212 5233 -1339 472 -32 1253 -42
1695 -20 706 34 1303 102 1983 226 139 25 256 44 259 41 3 -3 1 -82 -5 -174
-11 -188 -17 -209 -84 -274 -213 -207 -865 -353 -1783 -400 -454 -23 -1248 -3
-1790 46 -1989 179 -4333 745 -5415 1306 -129 67 -322 188 -336 210 -9 15 7
479 16 479 5 0 106 -46 227 -101z m13877 -238 l-7 -100 -113 -102 c-350 -314
-627 -484 -1064 -654 -1073 -418 -2179 -539 -2980 -328 -74 19 -146 37 -158
40 l-24 6 7 206 c4 113 9 208 11 210 1 1 51 -8 111 -22 964 -227 2049 -84
3503 463 372 139 497 203 650 334 35 30 66 53 68 52 2 -2 0 -49 -4 -105z"/>
<path d="M97150 34515 c-120 -38 -203 -184 -171 -301 25 -93 31 -98 643 -474
315 -194 622 -386 682 -426 60 -41 124 -76 141 -80 43 -8 96 18 138 67 54 63
223 301 251 353 51 97 28 170 -74 232 -66 40 -1491 634 -1534 640 -17 2 -51
-3 -76 -11z"/>
<path d="M93368 33373 c-29 -11 -163 -152 -555 -582 -558 -611 -595 -655 -619
-718 -39 -100 8 -156 236 -283 187 -105 243 -129 297 -130 54 0 91 35 158 151
26 46 217 340 423 654 218 331 381 589 389 615 57 181 -152 367 -329 293z"/>
<path d="M97393 32030 c-117 -38 -221 -140 -292 -285 -307 -626 -74 -1822 458
-2356 464 -466 925 -159 970 648 31 537 -125 1136 -409 1568 -83 127 -260 309
-351 363 -129 76 -265 98 -376 62z m54 -335 c88 -93 87 -353 -2 -490 -91 -139
-207 -96 -245 90 -33 159 35 380 132 428 43 22 76 14 115 -28z"/>
<path d="M94369 30951 c-110 -35 -194 -113 -255 -236 -253 -516 58 -1594 626
-2166 391 -394 771 -437 968 -109 32 54 79 206 93 299 17 117 6 396 -20 536
-96 511 -348 1017 -675 1354 -125 128 -234 211 -351 267 -155 75 -272 92 -386
55z m66 -363 c100 -101 132 -344 64 -485 -80 -167 -242 -65 -280 176 -27 180
39 351 136 351 31 0 45 -8 80 -42z"/>
<path d="M102211 30093 c139 -255 309 -445 518 -582 82 -53 246 -131 276 -131
7 0 17 -4 20 -10 3 -5 -42 -101 -101 -212 -764 -1450 -1612 -2512 -2595 -3253
-461 -347 -921 -607 -1430 -808 -1746 -690 -3801 -547 -6286 437 -498 197
-1300 561 -1296 589 1 6 13 61 27 121 50 216 57 442 20 681 -17 110 -59 299
-72 321 -5 10 -18 -32 -36 -116 -102 -487 -297 -915 -573 -1260 -210 -262
-525 -534 -868 -750 -55 -34 -104 -67 -110 -72 -11 -11 61 -5 230 19 224 30
494 116 665 210 190 105 376 264 496 422 53 71 161 268 200 368 8 20 18 15
169 -98 1114 -833 2388 -1412 3660 -1663 482 -95 848 -134 1350 -143 450 -8
782 13 1175 73 1912 291 3489 1346 4508 3015 351 577 659 1299 853 2004 l31
113 56 -15 c190 -50 461 -28 690 56 140 51 355 175 452 261 l35 31 -35 -6
c-19 -3 -84 -14 -145 -25 -413 -71 -780 -44 -1156 85 -196 68 -490 224 -692
367 -37 26 -70 48 -73 48 -3 0 13 -35 37 -77z"/>
<path d="M101515 22094 c-452 -33 -761 -81 -1141 -179 -290 -74 -560 -169
-744 -260 -81 -40 -87 -41 -125 -29 -63 20 -273 17 -411 -6 -361 -59 -817
-224 -951 -344 -28 -25 -66 -70 -84 -98 -18 -29 -34 -54 -35 -56 -1 -1 -80 -9
-175 -17 -1477 -125 -2521 -560 -2823 -1178 -71 -143 -97 -247 -103 -407 -8
-212 36 -393 157 -647 79 -165 143 -261 291 -433 169 -197 266 -316 526 -645
402 -510 530 -642 712 -734 103 -53 227 -66 345 -35 140 36 330 163 525 350
199 191 390 471 701 1029 144 260 453 878 559 1120 46 105 93 213 106 240 l22
50 224 44 c268 53 322 70 371 118 l36 35 99 -84 c401 -346 1135 -872 1625
-1166 335 -201 533 -286 799 -346 439 -98 665 -22 814 274 80 160 126 333 239
900 78 392 145 699 195 893 65 252 41 669 -53 919 -45 119 -87 187 -178 283
-199 211 -496 337 -918 390 -119 15 -499 27 -605 19z m-2307 -1389 c82 -292
122 -474 122 -554 0 -73 -13 -87 -67 -72 -73 21 -97 15 -147 -35 -30 -29 -52
-44 -62 -40 -9 3 -24 6 -35 6 -10 0 -51 29 -90 65 -112 103 -140 98 -184 -35
-30 -91 -46 -116 -68 -107 -20 8 -140 159 -188 237 -49 80 -75 220 -41 220 4
0 38 -22 76 -50 37 -27 72 -47 77 -44 5 3 9 40 8 83 -3 87 2 101 36 101 21 0
114 -64 130 -90 15 -24 108 -90 127 -90 20 0 20 4 13 105 -10 151 8 145 120
-40 62 -102 86 -130 96 -112 4 7 11 116 14 243 6 255 13 340 25 328 4 -5 21
-58 38 -119z m3631 -510 c37 -19 81 -71 81 -97 0 -11 -37 -58 -90 -113 -110
-114 -113 -128 -44 -206 44 -50 46 -54 39 -97 -7 -50 -47 -166 -76 -223 -14
-28 -38 -48 -97 -82 -81 -47 -132 -95 -132 -125 0 -25 29 -63 93 -124 87 -82
85 -86 -79 -194 -135 -88 -176 -126 -158 -144 13 -13 106 -30 160 -30 24 0 44
-5 44 -11 0 -5 -23 -34 -50 -64 -147 -154 -367 -138 -790 58 l-75 35 45 5 c25
3 89 8 142 11 198 11 392 67 443 128 47 56 29 115 -67 215 -69 73 -69 79 -2
189 l44 72 93 22 c202 50 277 103 277 197 0 42 -43 126 -119 232 -38 53 -76
110 -85 128 -21 42 -20 86 2 106 16 14 208 100 262 117 41 13 109 11 139 -5z
m-6415 -1387 c-100 -132 -182 -289 -190 -363 -10 -101 38 -136 183 -134 121 2
135 -9 168 -144 l17 -65 -50 -93 c-91 -169 -101 -252 -38 -315 41 -41 104 -59
272 -78 176 -21 214 -37 214 -93 0 -40 -88 -284 -116 -320 -44 -58 -104 -76
-173 -52 -36 13 -38 18 -46 151 -3 54 -10 109 -15 123 -12 32 -46 45 -120 45
-55 0 -60 2 -90 38 -17 20 -53 81 -80 134 l-50 96 20 84 c46 191 24 221 -157
211 -85 -5 -101 -3 -116 11 -24 24 -21 74 9 161 14 41 23 79 19 84 -3 6 -45
22 -93 36 -297 88 -392 127 -477 199 l-40 34 60 7 c159 18 380 76 585 152 119
44 294 133 340 172 19 17 38 30 42 31 4 0 -31 -51 -78 -112z"/>
<path d="M53535 29915 c-137 -35 -338 -89 -445 -119 -188 -54 -582 -175 -588
-181 -2 -2 26 -135 62 -296 281 -1268 549 -2986 871 -5576 53 -422 111 -874
131 -1003 19 -129 46 -309 59 -399 66 -442 89 -776 82 -1171 -7 -364 -31 -565
-97 -830 -138 -547 -416 -973 -849 -1299 -506 -380 -1182 -629 -2261 -830
-146 -27 -1298 -239 -2560 -471 -1262 -233 -2296 -424 -2298 -426 -7 -5 81
-282 148 -464 91 -249 212 -540 224 -540 3 0 675 124 1493 275 818 150 2235
412 3148 580 1774 327 1842 340 2125 410 1522 375 2277 1022 2495 2136 46 237
57 359 62 691 7 449 -14 728 -102 1303 -58 384 -89 615 -185 1385 -375 3027
-741 5184 -1080 6361 -54 186 -173 531 -183 528 -1 0 -114 -29 -252 -64z"/>
<path d="M37470 28839 c-202 -61 -786 -243 -968 -301 l-134 -43 97 -110 c1209
-1368 1952 -3204 2169 -5355 56 -554 69 -969 63 -2035 -5 -871 -8 -965 -47
-1360 -169 -1694 -789 -3395 -1795 -4920 -371 -563 -795 -1104 -1236 -1576
l-108 -116 122 -617 c67 -339 124 -616 127 -616 8 1 334 264 475 384 499 426
1023 955 1442 1458 1482 1775 2401 3897 2612 6028 40 402 43 494 48 1348 6
1069 -8 1496 -67 2079 -234 2284 -1082 4231 -2440 5605 l-195 197 -165 -50z"/>
<path d="M67000 27292 c-288 -157 -525 -301 -822 -499 l-187 -125 44 -88 c472
-940 819 -2175 954 -3400 68 -616 76 -813 76 -1970 0 -1166 -5 -1287 -76
-1845 -307 -2428 -1547 -4838 -3431 -6669 l-218 -211 111 -145 c555 -730 1266
-1401 2074 -1957 2169 -1493 5079 -2193 7885 -1897 1451 153 2819 575 3935
1215 460 264 890 569 1305 928 172 149 584 557 731 726 664 759 1142 1549
1394 2300 32 96 100 329 119 408 l6 27 -7160 0 c-3938 0 -7160 3 -7160 6 0 3
35 56 78 118 1252 1779 1961 3788 2052 5811 13 285 13 1643 0 1985 -77 2042
-575 3782 -1498 5233 -41 64 -78 117 -81 117 -3 0 -62 -31 -131 -68z"/>
<path d="M19339 26433 c-192 -240 -418 -552 -568 -785 l-43 -67 329 -453
c1647 -2268 3203 -4528 4301 -6248 281 -439 771 -1225 942 -1510 640 -1067
993 -1817 1106 -2354 48 -228 45 -732 -6 -945 -62 -258 -199 -521 -406 -781
-88 -109 -350 -372 -479 -479 -327 -271 -705 -523 -1181 -789 -208 -115 -644
-335 -822 -413 l-123 -54 123 -58 c976 -463 1989 -766 2963 -886 453 -56 590
-62 1480 -68 797 -5 1217 3 1510 27 1667 142 3279 754 4750 1803 1168 834
2234 1976 2973 3190 l72 117 -4758 0 -4757 0 -117 233 c-280 554 -665 1205
-1418 2392 -1093 1725 -2654 4001 -4330 6315 -490 676 -1425 1940 -1435 1940
-2 0 -49 -57 -106 -127z"/>
<path d="M30191 19479 c-667 -43 -1320 -328 -1640 -715 -310 -375 -390 -845
-212 -1239 43 -94 96 -170 186 -263 174 -183 398 -288 720 -339 167 -27 611
-24 795 4 309 48 577 127 805 237 570 274 877 702 878 1226 0 217 -45 405
-134 557 -42 72 -203 235 -284 288 -285 187 -676 273 -1114 244z"/>
<path d="M58558 19479 c-412 -27 -849 -155 -1188 -350 -481 -275 -750 -694
-750 -1166 0 -284 88 -507 274 -701 175 -183 398 -288 720 -339 177 -28 600
-25 806 6 294 44 564 123 789 232 221 106 381 216 523 360 239 244 360 536
361 874 1 207 -38 376 -119 524 -213 388 -757 603 -1416 560z"/>
<path d="M73635 19258 c-116 -13 -302 -52 -444 -93 -654 -190 -1233 -648
-1550 -1224 -109 -198 -197 -430 -246 -647 -27 -120 -25 -166 10 -379 146
-867 736 -1414 1622 -1506 143 -14 437 -7 578 15 475 75 867 285 1092 586 23
30 71 109 108 175 191 343 430 570 784 746 l113 57 -98 51 c-299 153 -494 341
-626 606 -55 110 -80 186 -153 476 -96 378 -180 636 -272 831 -77 165 -233
263 -478 303 -99 16 -312 18 -440 3z"/>
<path d="M46357 15633 c408 -708 844 -1288 1426 -1897 708 -740 1591 -1418
2527 -1941 198 -111 640 -331 840 -419 1010 -446 2006 -709 3025 -801 334 -29
708 -37 1555 -32 798 5 923 9 1265 42 1301 126 2654 587 3873 1317 1513 908
2798 2193 3741 3741 l23 37 -9152 0 -9151 0 28 -47z"/>
<path d="M2480 14029 c0 -6 13 -51 30 -99 172 -514 782 -1116 1800 -1776 985
-639 2379 -1319 3620 -1767 932 -336 1683 -527 2232 -568 145 -11 169 -10 219
4 371 108 1411 1316 2894 3362 232 320 605 844 605 850 0 3 -2565 5 -5700 5
-4147 0 -5700 -3 -5700 -11z"/>
<path d="M18467 14026 c12 -21 518 -597 704 -801 209 -230 614 -637 744 -747
145 -123 257 -203 344 -246 l76 -37 305 -3 c419 -5 524 10 858 119 780 254
1787 805 2372 1297 110 92 330 316 378 385 l33 47 -2911 0 c-2490 0 -2910 -2
-2903 -14z"/>
<path d="M35810 11243 c0 -5 47 -245 104 -535 l104 -527 194 -248 c285 -365
385 -459 548 -508 78 -23 242 -30 400 -16 211 18 297 31 1700 257 1521 245
2330 472 2804 788 107 71 257 218 304 297 65 111 76 158 80 337 l4 162 -3121
0 c-1717 0 -3121 -3 -3121 -7z"/>
<path d="M10415 4869 c-453 -37 -705 -169 -789 -414 -21 -59 -21 -73 -24
-1475 -2 -938 1 -1442 7 -1495 26 -196 147 -328 354 -386 67 -19 107 -23 217
-24 208 0 328 40 431 146 116 117 156 247 169 549 13 283 44 384 139 457 60
46 104 55 296 59 438 8 764 135 1031 399 304 302 423 700 347 1165 -114 700
-724 1036 -1868 1029 -115 -1 -255 -5 -310 -10z m683 -1004 c181 -24 284 -210
226 -406 -22 -75 -98 -151 -173 -173 -84 -25 -175 -21 -226 8 -78 46 -125 148
-125 270 0 121 43 221 121 279 29 21 83 36 114 31 11 -1 39 -5 63 -9z"/>
<path d="M53220 4734 c-110 -30 -206 -112 -230 -199 -20 -71 -9 -189 24 -255
79 -158 276 -273 568 -332 145 -29 439 -32 584 -5 354 65 564 217 604 436 19
104 -5 185 -75 255 -81 82 -194 122 -319 113 -81 -5 -128 -18 -346 -97 -152
-54 -194 -53 -375 18 -218 84 -313 99 -435 66z"/>
<path d="M37722 3849 c-100 -12 -171 -31 -362 -97 -161 -56 -167 -57 -270 -56
-70 0 -151 9 -244 27 -233 45 -397 33 -543 -38 -127 -63 -206 -162 -233 -290
-7 -34 -9 -541 -8 -1545 l3 -1495 23 -58 c69 -169 280 -286 518 -287 276 0
430 125 484 394 10 50 26 183 34 296 15 201 31 288 63 337 40 61 129 69 308
27 258 -60 416 -67 605 -25 415 93 744 409 904 869 56 163 77 275 83 464 24
691 -307 1257 -833 1421 -164 52 -383 75 -532 56z m-49 -976 c173 -47 269
-207 270 -448 0 -113 -23 -197 -73 -270 -110 -161 -318 -224 -504 -154 -106
39 -213 165 -246 287 -6 24 -11 85 -11 135 1 159 47 282 138 368 108 102 250
129 426 82z"/>
<path d="M72695 3853 c-89 -8 -205 -38 -373 -95 -231 -78 -267 -81 -502 -39
-274 48 -421 39 -577 -36 -82 -39 -174 -133 -204 -208 l-24 -60 -3 -1510 c-3
-1703 -8 -1583 73 -1694 88 -119 246 -190 440 -198 182 -8 299 31 391 129 85
91 127 221 144 450 17 222 29 331 40 368 14 48 44 96 74 115 38 25 141 20 286
-15 247 -60 430 -62 631 -10 532 138 912 668 945 1315 14 268 -52 598 -166
827 -198 396 -517 617 -951 657 -112 11 -144 11 -224 4z m-150 -963 c222 -33
344 -197 345 -465 0 -188 -79 -329 -228 -404 -213 -108 -458 -29 -560 179 -54
109 -64 212 -36 347 30 145 103 251 208 303 92 46 160 56 271 40z"/>
<path d="M40860 3830 c-619 -64 -1058 -482 -1171 -1116 -25 -141 -30 -430 -10
-559 97 -627 479 -1035 1066 -1141 135 -24 424 -25 546 -1 389 77 589 279 566
570 -18 217 -176 336 -447 337 -367 1 -525 80 -593 294 -29 94 -31 317 -3 411
63 210 189 274 537 275 85 0 182 5 215 11 71 13 166 61 200 102 107 127 123
342 37 500 -35 63 -115 142 -187 186 -72 43 -226 96 -336 115 -112 19 -313 27
-420 16z"/>
<path d="M14410 3820 c-585 -61 -1033 -404 -1205 -923 -132 -398 -103 -859 76
-1207 190 -370 543 -607 1025 -686 81 -14 162 -18 314 -18 747 1 1202 274
1178 704 -6 94 -32 154 -93 215 -150 150 -408 159 -646 22 -40 -24 -114 -67
-164 -95 -115 -67 -195 -92 -294 -92 -186 0 -346 106 -346 230 0 132 153 163
620 124 121 -10 312 -18 425 -18 181 0 214 3 284 22 231 64 377 201 417 390
16 79 6 257 -20 360 -109 420 -445 762 -885 902 -195 61 -485 91 -686 70z
m271 -765 c131 -46 198 -156 135 -220 -33 -33 -85 -46 -211 -52 -187 -9 -290
31 -287 111 3 75 61 139 151 167 45 13 166 10 212 -6z"/>
<path d="M21365 3824 c-413 -41 -720 -181 -959 -434 -301 -321 -433 -806 -350
-1290 75 -437 318 -769 699 -955 241 -118 549 -176 859 -161 624 29 1003 226
1082 563 46 195 -25 357 -189 433 -157 74 -350 55 -538 -53 -40 -24 -114 -67
-164 -95 -116 -68 -195 -92 -296 -92 -144 0 -279 66 -326 160 -43 84 -19 149
69 186 62 25 285 30 528 10 325 -27 530 -31 638 -12 246 43 422 172 478 350
25 79 29 235 10 339 -18 95 -64 232 -103 312 -81 161 -251 360 -402 469 -167
120 -384 208 -607 246 -111 19 -347 32 -429 24z m256 -781 c60 -27 117 -86
125 -131 16 -83 -53 -122 -231 -130 -209 -9 -311 41 -285 138 18 66 70 115
150 141 46 15 191 4 241 -18z"/>
<path d="M33626 3819 c-293 -24 -572 -116 -791 -261 -104 -68 -277 -241 -344
-343 -97 -148 -161 -303 -204 -493 -18 -83 -21 -128 -21 -317 0 -238 11 -318
69 -491 102 -304 309 -558 582 -714 168 -97 396 -171 613 -201 142 -20 480
-17 615 5 380 61 653 193 873 420 177 183 284 391 344 670 30 138 33 464 5
601 -107 528 -448 900 -964 1054 -228 67 -505 92 -777 70z m263 -909 c156 -26
256 -128 302 -310 9 -34 14 -108 14 -195 0 -201 -32 -310 -119 -403 -69 -73
-147 -106 -256 -106 -113 0 -174 21 -245 86 -97 88 -145 228 -145 423 0 179
41 313 121 400 62 67 137 101 254 114 6 0 39 -4 74 -9z"/>
<path d="M62585 3824 c-336 -34 -574 -121 -804 -294 -369 -278 -568 -769 -522
-1285 20 -219 63 -381 145 -543 140 -278 371 -484 671 -601 218 -85 388 -114
670 -115 750 0 1207 272 1183 705 -8 131 -77 232 -201 289 -157 74 -350 55
-538 -53 -40 -24 -114 -67 -164 -95 -116 -68 -195 -92 -296 -92 -186 0 -344
106 -344 231 0 56 20 83 85 113 62 28 272 33 530 12 324 -27 530 -31 637 -12
241 42 406 159 474 334 60 157 21 448 -88 667 -83 165 -249 359 -402 469 -167
120 -384 208 -607 246 -111 19 -347 32 -429 24z m256 -781 c60 -27 117 -86
125 -131 16 -83 -53 -122 -231 -130 -211 -9 -312 42 -284 142 17 62 71 112
149 137 46 15 191 4 241 -18z"/>
<path d="M17125 3740 c-200 -30 -373 -137 -439 -272 -55 -113 -56 -118 -56
-1053 0 -532 4 -885 10 -925 66 -419 638 -564 944 -240 68 73 107 144 125 228
7 36 11 252 11 660 0 387 4 620 10 644 25 87 94 131 232 147 170 19 282 -17
335 -107 l28 -47 5 -650 c5 -642 6 -651 28 -709 105 -279 400 -409 708 -312
168 54 282 167 326 325 17 61 18 124 18 976 0 993 1 970 -57 1078 -57 104
-199 202 -353 244 -59 16 -143 17 -945 19 -484 1 -903 -2 -930 -6z"/>
<path d="M24067 3719 c-338 -22 -541 -108 -625 -267 -63 -119 -63 -277 0 -402
51 -100 115 -141 352 -225 89 -32 151 -74 181 -125 19 -34 20 -53 25 -650 l5
-615 34 -69 c64 -131 201 -234 367 -276 92 -24 157 -25 244 -4 178 41 330 162
388 306 15 38 17 111 22 664 l5 620 28 42 c32 49 69 70 192 107 281 85 394
221 383 459 -3 71 -10 103 -30 148 -69 149 -243 242 -518 279 -100 13 -881 19
-1053 8z"/>
<path d="M30355 3723 c-193 -8 -388 -49 -496 -104 -86 -43 -160 -116 -195
-192 -27 -57 -29 -71 -29 -177 0 -106 2 -120 29 -177 49 -107 127 -163 323
-233 125 -44 192 -85 220 -135 l23 -40 0 -565 c0 -321 4 -591 10 -625 30 -182
197 -339 415 -391 270 -63 588 124 635 375 6 32 10 282 10 628 0 459 3 580 14
606 25 60 73 91 213 135 177 57 286 131 337 231 30 57 48 162 42 233 -16 183
-119 299 -323 367 -161 54 -261 63 -738 65 -236 1 -457 0 -490 -1z"/>
<path d="M68803 3718 c-357 -22 -574 -126 -644 -307 -29 -74 -31 -231 -4 -306
39 -111 121 -186 257 -235 172 -63 216 -82 251 -111 76 -62 71 -23 77 -709 l5
-615 32 -68 c61 -129 201 -234 369 -277 133 -34 246 -20 381 46 105 52 184
128 230 222 l38 76 5 620 c5 604 6 622 26 656 28 48 73 76 173 106 277 83 397
204 409 413 15 276 -160 430 -548 481 -101 14 -881 20 -1057 8z"/>
<path d="M26594 3700 c-195 -51 -313 -162 -359 -337 -23 -87 -22 -1821 0
-1908 65 -247 316 -399 630 -382 175 11 280 42 405 122 121 78 202 180 336
421 131 238 181 307 267 376 l51 40 18 -36 c32 -62 48 -146 63 -340 9 -105 22
-220 31 -255 49 -212 185 -313 440 -328 284 -16 526 140 590 382 20 73 20
1817 0 1890 -61 229 -283 375 -571 375 -213 0 -381 -71 -554 -235 -93 -88
-167 -183 -318 -410 -152 -226 -210 -284 -271 -268 -29 7 -40 65 -51 288 -7
129 -17 215 -30 268 -52 200 -165 312 -355 348 -81 15 -243 10 -322 -11z"/>
<path d="M42800 3704 c-172 -46 -281 -138 -341 -289 l-24 -60 -3 -914 c-2
-611 1 -932 8 -965 43 -209 190 -327 478 -383 104 -20 752 -30 971 -14 434 31
711 135 906 342 82 88 148 206 180 324 22 78 31 326 16 422 -36 235 -143 404
-324 517 -153 95 -334 146 -712 201 -282 41 -311 52 -356 129 -16 28 -52 122
-80 208 -27 87 -66 189 -85 228 -66 132 -172 219 -309 255 -75 19 -251 19
-325 -1z m955 -1645 c41 -36 45 -68 15 -116 -39 -64 -116 -78 -167 -30 -18 16
-23 31 -23 70 0 40 5 53 29 78 42 41 97 41 146 -2z"/>
<path d="M45968 3705 c-86 -22 -195 -81 -250 -136 -28 -28 -63 -78 -81 -117
l-32 -67 -3 -955 c-2 -629 1 -971 8 -1003 33 -157 140 -266 315 -324 71 -24
96 -27 220 -27 119 0 149 3 203 22 81 29 127 58 179 115 75 82 107 165 142
373 30 173 45 214 83 214 37 0 71 -35 185 -189 295 -397 533 -541 892 -541
197 0 306 34 392 119 70 71 93 131 92 246 -1 138 -63 283 -181 424 -30 36
-139 149 -242 251 -326 322 -325 333 24 730 155 175 238 292 268 377 16 47 19
74 15 141 -11 189 -124 309 -330 354 -78 16 -297 4 -385 -21 -216 -63 -384
-195 -575 -452 -80 -108 -137 -169 -157 -169 -18 0 -30 31 -54 136 -68 303
-147 419 -332 485 -78 28 -309 36 -396 14z"/>
<path d="M49184 3700 c-173 -45 -290 -144 -345 -292 l-24 -63 -3 -890 c-2
-635 0 -910 9 -958 22 -135 116 -268 239 -340 208 -121 556 -112 779 20 129
77 226 196 371 458 125 226 182 305 264 363 l46 34 21 -47 c30 -68 46 -162 59
-340 6 -88 18 -189 25 -225 37 -178 120 -273 280 -323 96 -30 302 -31 385 -3
97 33 168 74 235 137 77 73 129 169 145 269 14 89 13 1713 -1 1800 -31 198
-180 344 -409 401 -71 18 -103 21 -205 16 -181 -8 -304 -55 -452 -171 -111
-88 -203 -199 -356 -426 -158 -237 -189 -276 -239 -301 -47 -24 -75 -18 -89
19 -6 15 -15 106 -20 202 -5 96 -14 208 -20 248 -34 234 -146 371 -340 417
-91 21 -265 19 -355 -5z"/>
<path d="M52744 3700 c-191 -50 -312 -162 -356 -329 -15 -60 -17 -148 -17
-953 -1 -609 2 -904 10 -940 36 -172 170 -311 363 -375 74 -25 94 -27 231 -26
120 0 166 4 229 22 122 33 217 84 302 164 94 88 139 151 251 352 134 242 178
304 262 372 l55 45 19 -39 c31 -59 46 -127 57 -263 6 -69 15 -166 20 -216 29
-273 138 -397 383 -435 299 -47 573 99 656 348 21 61 21 78 21 972 0 864 -1
912 -19 970 -39 126 -118 213 -252 280 -112 57 -205 75 -348 69 -95 -4 -132
-11 -203 -35 -223 -77 -380 -225 -606 -568 -142 -216 -186 -270 -237 -295 -46
-22 -70 -19 -86 13 -6 11 -17 118 -25 237 -19 321 -51 427 -159 529 -92 87
-196 121 -370 120 -74 0 -133 -6 -181 -19z"/>
<path d="M58134 3700 c-205 -54 -336 -181 -364 -355 -13 -82 -13 -1794 0
-1866 31 -167 187 -336 357 -389 63 -19 92 -20 792 -20 807 0 797 1 870 -65
51 -46 83 -110 121 -240 63 -216 124 -310 233 -361 79 -36 149 -47 272 -42
173 8 279 61 355 180 82 127 110 255 110 510 0 387 -46 559 -203 767 -99 130
-123 174 -147 266 -19 74 -20 111 -20 644 0 322 -5 596 -10 635 -13 85 -49
154 -111 210 -106 96 -253 146 -424 146 -281 0 -470 -127 -530 -355 -13 -50
-15 -153 -15 -666 0 -334 -3 -622 -7 -640 -4 -21 -24 -51 -53 -80 -119 -119
-324 -124 -438 -10 -71 71 -66 27 -72 741 -4 419 -10 656 -17 675 -58 165
-177 267 -367 315 -101 26 -235 26 -332 0z"/>
<path d="M65136 3704 c-196 -47 -335 -177 -366 -343 -14 -76 -14 -1838 1
-1917 30 -163 133 -273 319 -338 77 -27 97 -30 215 -30 195 -1 308 36 394 129
79 85 108 176 141 430 31 243 55 314 130 377 51 44 98 58 197 58 158 0 246
-59 294 -196 11 -32 33 -146 49 -253 39 -264 72 -356 159 -434 88 -80 192
-112 361 -112 87 0 129 5 170 19 211 72 348 218 379 403 9 49 11 324 9 963 -3
882 -3 896 -24 957 -75 218 -222 303 -524 303 -198 0 -311 -34 -393 -117 -70
-69 -104 -158 -132 -343 -30 -205 -56 -275 -122 -329 -57 -47 -123 -66 -233
-65 -81 0 -103 4 -151 26 -99 46 -138 121 -170 332 -32 212 -59 288 -133 364
-83 88 -220 133 -400 131 -61 0 -138 -7 -170 -15z"/>
</g>
</svg>
