<?xml version="1.0" encoding="utf-8"?>
<!-- Generator: Adobe Illustrator 26.0.1, SVG Export Plug-In . SVG Version: 6.00 Build 0)  -->
<svg version="1.1" id="Шар_1" xmlns="http://www.w3.org/2000/svg" xmlns:xlink="http://www.w3.org/1999/xlink" x="0px" y="0px"
	 viewBox="0 0 309 117" style="enable-background:new 0 0 309 117;" xml:space="preserve">
<style type="text/css">
	.st0{fill:#0A0A0A;}
	.st1{fill:#3A3A3A;}
</style>
<path class="st0" d="M0,73.4c0.1-1,0.2-2,0.3-3c1.2-8.9,5.2-17.2,11.4-23.6c6.2-6.4,14.4-10.6,23.2-12c0.6-0.1,1.3-0.2,1.9-0.2
	c0.1,0,0.2,0,0.2,0l-0.3,0.5c-2,3-4,6.2-6,9.2c-0.2,0.3-0.5,0.5-0.8,0.6C18.6,49.4,11.6,57.7,9.1,69.8C8.2,74.5,8.4,79.3,9.7,84
	c0,0.1,0.1,0.3,0.2,0.5C21.4,66.6,32.9,48.9,44.5,31L38,30v-0.1l18.5-9.4c-0.4,7-0.7,13.9-1.1,20.9l-3.7-5.7
	C37.4,57.7,23.2,79.6,9,101.5c-0.7-0.9-1.3-1.8-2-2.7C3,92.7,0.6,85.7,0.1,78.4c0-0.2-0.1-0.4-0.1-0.5V73.4z"/>
<path class="st0" d="M39,117c-1.4-0.2-2.8-0.3-4.1-0.5c-1.4-0.2-2.8-0.5-4.3-0.8l22.2-34.2l-6.5-1v-0.1L64.7,71l-1.1,20.7l-0.1,0.1
	l-3.5-5.6l-14.1,21.7l0.1,0.1c10.4-1.8,18.4-7.2,23.7-16.5c3.3-5.9,4.6-12.7,3.9-19.5c-0.7-6.7-3.5-13.1-8-18.2l4.8-7.3
	c0.4,0.4,0.8,0.7,1.2,1.1c5.7,6.2,9.3,14.1,10.4,22.5c1.4,10.2-1.1,20.6-7,29.1c-5.9,8.5-14.7,14.5-24.7,16.7
	c-2,0.5-4.2,0.6-6.3,0.9c-0.2,0-0.4,0.1-0.6,0.1H39z"/>
<path class="st0" d="M250.9,117l-1.1-0.6c0.3-0.4,0.6-0.8,0.9-1.2c0.2-0.2,0.3-0.4,0.3-0.6c0-0.2,0-0.5-0.1-0.7
	c-0.5-1.3-0.9-2.6-1.3-4c-0.1-0.2-0.1-0.4-0.2-0.6c0.4,0,0.7,0,1.1,0c0.1,0,0.1,0,0.2,0c0.1,0,0.1,0,0.2,0.1c0.1,0,0.1,0.1,0.1,0.2
	c0,0.1,0.1,0.1,0.1,0.2c0.3,1.1,0.7,2.2,1,3.3c0.8-1.1,1.2-2.3,1.2-3.7c0.2,0,0.4-0.1,0.7-0.2c0.2,0,0.5-0.1,0.9-0.1
	c0,0.6-0.1,1.1-0.2,1.7c-0.4,1-0.9,2-1.4,3c-0.6,1.1-1.4,2.1-2.1,3.2H250.9z"/>
<path class="st1" d="M85.5,15.2c-21.1,32.4-42.1,64.8-63.1,97.3c-2.5-1.3-5-2.9-7.2-4.7l63.1-97.3l-6.5-1V9.4L90.3,0l-1.1,20.7H89
	L85.5,15.2z"/>
<path class="st0" d="M162.3,43.1c0.5,0.2,1,0.3,1.4,0.5c0.6,0.2,1.2,0.5,1.7,1c0.5,0.4,0.9,0.9,1.2,1.5c0.3,0.6,0.4,1.2,0.5,1.9
	s-0.1,1.3-0.3,1.9c-0.7,2.9-2.8,4.5-5.5,5.5c-1.7,0.6-3.6,0.9-5.4,1c-2.6,0-5.2,0-7.9,0c-0.1,0-0.2,0-0.4,0v-0.8
	c0-5.7,0-11.4,0-17.1c0-2.2-0.2-4.4-0.5-6.6c0-0.2-0.1-0.4-0.1-0.7c0.1,0,0.2-0.1,0.3-0.1c3.4,0,6.9,0,10.3,0.1
	c1.7,0,3.4,0.5,4.9,1.3c1.2,0.6,2.2,1.6,2.7,2.8c0.6,1.2,0.7,2.6,0.3,3.9c-0.5,1.4-1.4,2.6-2.7,3.4L162.3,43.1
	C162.3,43,162.3,43,162.3,43.1z M152.8,51.9c1.7-0.1,3.4-0.2,5-0.3c1.1-0.1,2.1-0.5,3-1.1c0.4-0.3,0.7-0.6,0.8-1s0.2-0.9,0.2-1.3
	c-0.1-0.4-0.2-0.9-0.5-1.2c-0.3-0.3-0.6-0.6-1.1-0.8c-0.4-0.2-0.7-0.3-1.1-0.4c-2-0.1-4.1-0.2-6.2-0.2c0,0-0.1,0-0.1,0.1L152.8,51.9
	z M152.8,41.5h3.8c0.4,0,0.7,0,1.1-0.1c0.7-0.3,1.4-0.6,2-1.1c0.4-0.3,0.6-0.7,0.8-1.1c0.2-0.4,0.2-0.9,0.1-1.3
	c-0.1-0.4-0.3-0.8-0.7-1.2c-0.3-0.3-0.7-0.5-1.2-0.6c-1.9-0.6-3.9-0.3-5.9-0.4L152.8,41.5z"/>
<path class="st0" d="M253.1,82.6c0,2.4-0.6,4.8-1.7,6.9c-2.5,4.7-6.5,6.9-11.8,6.8c-2.5,0-5-0.8-7.1-2.2c-1.4-1-2.6-2.3-3.4-3.7
	c-0.9-1.5-1.4-3.2-1.5-4.9c-0.3-2-0.1-4.1,0.4-6s1.5-3.8,2.8-5.4c1.3-1.6,3-2.9,4.9-3.7c1.9-0.8,4-1.1,6-0.9c2.8,0.1,5.5,1.2,7.6,3
	c1.3,1.3,2.4,2.8,3.1,4.6C252.9,78.9,253.2,80.8,253.1,82.6z M248,82c-0.1-0.4-0.1-1.2-0.3-1.9c-0.3-1.5-1-2.9-2.1-4
	c-1.1-1.1-2.5-1.8-4-2c-1.5-0.3-3.1,0-4.5,0.6c-1.4,0.7-2.5,1.8-3.2,3.1c-0.8,1.3-1.3,2.8-1.4,4.4c-0.1,1.5,0.1,3.1,0.6,4.5
	c0.4,1.3,1.2,2.5,2.3,3.4c1.1,0.9,2.4,1.4,3.8,1.5c1.4,0.2,2.9,0,4.2-0.7c1.3-0.6,2.4-1.7,3.1-2.9C247.5,86.2,248.1,84.1,248,82z"/>
<path class="st0" d="M122.1,43.7c0,3.7-1.5,7.3-4.1,10c-2.1,2.1-5,3.4-8,3.5c-2.2,0.2-4.4-0.2-6.4-1c-1.9-0.8-3.6-2.1-4.8-3.9
	c-1.2-1.7-2-3.7-2.1-5.8c-0.3-2-0.2-4,0.3-5.9c0.5-1.9,1.4-3.7,2.6-5.3c2.9-3.8,6.9-5.3,11.6-4.8c1.8,0.1,3.5,0.6,5,1.5
	c1.5,0.9,2.8,2.1,3.8,3.6C121.5,38,122.3,40.8,122.1,43.7z M101.5,44.3c0.1,0.9,0.3,1.9,0.5,2.8c0.4,1.5,1.2,2.8,2.4,3.8
	c1.2,1,2.6,1.6,4.2,1.7c1.5,0.1,3-0.2,4.3-1c1.3-0.8,2.3-1.9,3-3.3c1.2-2.3,1.5-4.9,0.9-7.4c-0.3-1.5-1-2.9-2-3.9
	c-1.1-1.1-2.4-1.8-3.9-2c-1.6-0.3-3.2,0-4.7,0.7c-1.4,0.8-2.6,2-3.3,3.4C102,40.8,101.6,42.5,101.5,44.3z"/>
<path class="st0" d="M246.2,31.2c-0.2,1.3-0.3,2.5-0.5,3.7c-0.1,0.5-0.1,0.9-0.1,1.4c0,6.4,0,12.8,0,19.3v0.8h-5.1v-9.4
	c-1.2,0-2.4,0-3.6,0c-0.2,0-0.3,0.3-0.5,0.4l-6.3,9.1c-0.1,0.2-0.3,0.4-0.4,0.6l-4.5-2.2l6.5-8.8l-0.8-0.3
	c-5.8-2.5-5.2-9.4-1.2-12.2c2-1.4,4.3-2.2,6.7-2.2c3.2-0.2,6.4-0.1,9.6-0.1C246,31.1,246.1,31.2,246.2,31.2z M240.4,35.7
	c-0.9,0-1.7,0-2.5,0c-0.7,0-1.4,0.1-2,0.2c-0.9,0.2-1.7,0.5-2.6,0.8c-0.4,0.2-0.7,0.4-1,0.7c-0.3,0.3-0.4,0.7-0.5,1.1
	c-0.1,0.4-0.1,0.8-0.1,1.1c0.1,0.4,0.2,0.7,0.4,1.1c0.2,0.3,0.5,0.6,0.8,0.8c0.3,0.2,0.7,0.3,1.1,0.4c2,0.4,4.1,0.5,6.1,0.3
	c0,0,0.1,0,0.1-0.1L240.4,35.7z"/>
<path class="st0" d="M292.3,96.2l-4.5-2.1l6.5-8.8l-0.7-0.3c-5.7-2.5-5.3-9.2-1.5-12.1c1.7-1.3,3.9-2.1,6.1-2.3
	c3.5-0.2,7-0.1,10.4-0.2c0,0,0.1,0,0.2,0.1c-0.2,1.3-0.3,2.6-0.5,3.9c-0.1,0.4-0.1,0.8-0.1,1.1v20.1H303v-9.4c-1.2,0-2.4,0-3.6,0
	c-0.2,0-0.3,0.2-0.5,0.4l-6.2,9L292.3,96.2z M303,81.6v-6.8c-1.5,0.1-2.9,0.1-4.3,0.3c-1,0.2-1.9,0.5-2.8,0.9
	c-0.5,0.2-0.9,0.6-1.1,1.1c-0.3,0.5-0.4,1-0.3,1.5c0,0.7,0.3,1.4,0.8,1.9s1.2,0.8,1.9,0.8C299,81.5,301,81.5,303,81.6z"/>
<path class="st0" d="M217.2,40.9v-9.7l5-0.5v25.7h-5V45.5h-11v10.8h-5.1V31.2h5v9.7H217.2z"/>
<path class="st0" d="M134.9,94.7l1.8-3.8c3.2-6.7,6.4-13.3,9.5-20c0.1-0.2,0.2-0.4,0.4-0.5c0.2-0.1,0.4-0.2,0.6-0.1
	c1.5,0,2.9,0,4.4,0c0.1,0,0.2,0,0.3,0c0.1,0,0.2,0.1,0.2,0.1c0.1,0,0.1,0.1,0.2,0.2c0,0.1,0.1,0.2,0.1,0.2
	c2.7,8.1,5.4,16.1,8.2,24.2c0,0.1,0.1,0.3,0.2,0.5h-4.1c-1.3,0-1.3,0-1.7-1.2c-0.4-1.2-0.9-2.6-1.3-4c-0.1-0.4-0.3-0.5-0.7-0.5
	c-3.2,0-6.5,0-9.7,0c-0.2,0-0.3,0-0.4,0.1c-0.1,0.1-0.2,0.2-0.3,0.4c-0.8,1.8-1.6,3.6-2.5,5.3c-0.1,0.2-0.2,0.5-0.5,0.4L134.9,94.7z
	 M148.9,76.4l-4,8.8h7.1C150.8,82.3,149.9,79.4,148.9,76.4z"/>
<path class="st0" d="M184.6,70.3h5v11.9l0.1,0.1l10.7-12.7l4.2,2.5l-9.1,10.4l11.3,13h-1.9c-1.3,0-2.7,0-4,0c-0.2,0-0.4,0-0.6-0.1
	c-0.2-0.1-0.3-0.2-0.4-0.4c-3.3-3.8-6.6-7.5-9.9-11.3c0-0.1-0.1-0.1-0.1-0.1c-0.1,0-0.1-0.1-0.2-0.1v11.9h-5L184.6,70.3z"/>
<path class="st0" d="M179,80.4l-0.7,4.5h-11.8c0.1,0.4,0.1,0.8,0.2,1.1c0.4,1.9,1.6,3.5,3.2,4.5c1.6,1,3.6,1.4,5.4,1.1
	c1.8-0.2,3.6-0.7,5.2-1.5l0.5-0.2c0,1.5,0,2.9,0,4.3c0,0.2-0.3,0.4-0.4,0.5c-1.9,1-4.1,1.5-6.2,1.5c-3.2,0.2-6.4-0.9-8.9-3
	c-1.2-1.1-2.2-2.3-2.9-3.8c-0.7-1.4-1.1-3-1.2-4.6c-0.5-3.7,0.5-7.4,2.8-10.4c1.2-1.5,2.7-2.8,4.4-3.6c1.7-0.8,3.6-1.3,5.5-1.3
	c2.1-0.1,4.2,0.2,6.1,0.8c0.4,0.1,0.6,0.3,0.6,0.7c0,1.3,0,2.6,0,3.9c-0.9-0.2-1.6-0.4-2.5-0.6c-2.1-0.5-4.3-0.5-6.5,0.1
	c-1.3,0.4-2.5,1.2-3.4,2.2s-1.5,2.3-1.7,3.7L179,80.4z"/>
<path class="st0" d="M123.1,88.4v7.1H118v-0.7c0-5.6,0-11.2,0-16.8c0-2.4-0.2-4.8-0.6-7.2c0-0.1,0-0.2,0-0.3c0.1,0,0.3,0,0.4-0.1
	c3.4,0,6.9,0,10.3,0.1c1.6,0,3.1,0.3,4.5,1c1.5,0.6,2.8,1.6,3.6,3c0.8,1.4,1.2,3,1,4.6c-0.4,4.8-3.3,8.1-8.2,9
	c-1.7,0.3-3.4,0.4-5.1,0.5C123.7,88.4,123.4,88.4,123.1,88.4z M123.1,83.9c1.4-0.1,2.7-0.1,4-0.3c1.4-0.1,2.7-0.8,3.7-1.8
	c0.6-0.6,0.9-1.3,1.1-2.1c0.2-0.8,0.1-1.6-0.1-2.3c-0.2-0.7-0.6-1.3-1.2-1.7c-0.6-0.4-1.3-0.7-2-0.7c-1.8-0.2-3.7-0.1-5.5-0.2
	c0,0-0.1,0-0.1,0.1L123.1,83.9z"/>
<path class="st0" d="M256.4,70.3h0.4c3.4,0,6.8,0,10.3,0c1.8,0,3.6,0.4,5.2,1.2c1.2,0.5,2.1,1.4,2.8,2.4s1.1,2.3,1.1,3.6
	c0.3,5.3-2.8,9.3-8.2,10.4c-1.7,0.3-3.5,0.4-5.2,0.5c-0.2,0-0.4,0-0.7,0v7.1H257v-0.7c0-5.7,0-11.3,0-17c0-2.3-0.2-4.6-0.6-6.8
	c0-0.1,0-0.3-0.1-0.4C256.4,70.5,256.4,70.4,256.4,70.3z M262.1,83.8c2.1,0.2,4.2-0.1,6.1-0.8c0.7-0.3,1.3-0.7,1.7-1.2
	c0.5-0.5,0.8-1.2,1-1.9c0.2-0.5,0.2-1,0.2-1.5c0-0.5-0.2-1-0.4-1.4c-0.3-0.4-0.6-0.8-1-1.1c-0.4-0.3-0.9-0.5-1.4-0.6
	c-0.6-0.2-1.3-0.3-1.9-0.3c-1.4,0-2.8,0-4.3,0V83.8z"/>
<path class="st0" d="M143.9,35.8c-1.2-0.3-2.5-0.5-3.7-0.7c-1.3-0.2-2.6-0.2-3.9,0c-1.1,0.1-2.2,0.6-3.1,1.3
	c-0.9,0.7-1.6,1.6-2.1,2.6c-0.8,1.5-1.2,3.1-1.2,4.8c0,1.7,0.4,3.3,1.1,4.8c0.6,1.4,1.7,2.5,3,3.2c1.3,0.7,2.8,1,4.3,0.8
	c1.9-0.2,3.7-0.7,5.4-1.4l0.4-0.2c0,0,0.1,0,0.2,0c0,1.4,0,2.8,0,4.3c0,0.1-0.3,0.3-0.4,0.4c-2.5,1.3-5.3,1.8-8.1,1.4
	c-6.8-0.7-10.8-6.2-10.9-12.4c-0.2-3.5,0.9-6.9,3-9.7c1.1-1.4,2.4-2.5,4-3.2c1.5-0.8,3.2-1.2,5-1.3c2.2-0.1,4.4,0.1,6.5,0.7
	c0.1,0,0.2,0,0.3,0.1c0.1,0,0.1,0.1,0.2,0.2c0.1,0.1,0.1,0.2,0.1,0.2c0,0.1,0,0.2,0,0.3C143.9,33.2,143.9,34.5,143.9,35.8z"/>
<path class="st0" d="M190.9,35.7v20.6h-5.1V35.8h-7.3v-4.6h20l-0.9,4.5H190.9z"/>
<path class="st0" d="M207.3,74.9v-4.5h20c-0.2,1.1-0.4,2.2-0.6,3.3c-0.3,1.3-0.3,1.3-1.6,1.3h-5.3v20.6h-5.2V74.9H207.3z"/>
<path class="st0" d="M115.4,70.3c-0.3,1.5-0.5,2.9-0.8,4.2c0,0.1-0.3,0.3-0.5,0.3c-1.8,0-3.6,0-5.4,0h-0.7v20.6h-5.1V74.9h-7.3v-4.6
	H115.4z"/>
<path class="st0" d="M175.8,56.3h-5V31.2h5V56.3z"/>
<path class="st0" d="M284.9,95.5h-5V70.3h5V95.5z"/>
<path class="st0" d="M272.9,113.8c0.8,0.2,0.9-0.3,1.2-0.9c0.5-1.3,1.1-2.6,1.6-3.9h-1.3v-1.3h5.3v6.1l1,0.1
	c-0.2,0.9-0.4,1.8-0.6,2.7c0,0.1-0.1,0.1-0.2,0.2c-0.1,0-0.1,0.1-0.2,0.1c-0.4,0-0.8,0-1.2,0c0.1-0.6,0.2-1.1,0.3-1.6h-4.4v1.6h-1.5
	L272.9,113.8z M278,113.8V109c-0.1-0.1-0.2-0.1-0.3-0.1c-0.1,0-0.2,0-0.3,0.1c-0.1,0.1-0.2,0.1-0.3,0.2c-0.1,0.1-0.1,0.2-0.1,0.3
	c-0.3,0.7-0.6,1.4-0.9,2.1l-0.9,2.1H278z"/>
<path class="st0" d="M152.9,109.2v-1.6l1.5-0.2v1.6l0.6,0.1c0.6,0,1.1,0.3,1.5,0.6c0.4,0.4,0.7,0.8,0.9,1.4c0.2,0.6,0.2,1.2,0,1.7
	c-0.2,0.6-0.6,1.1-1,1.4c-0.4,0.3-0.9,0.5-1.3,0.7c-0.1,0-0.2,0-0.3,0.1c-0.1,0-0.1,0.1-0.2,0.2c-0.1,0.1-0.1,0.2-0.1,0.3
	c0,0.1,0,0.2,0,0.3c0,0.3,0,0.6,0,0.9h-1.5v-1.4c-2.1-0.6-2.9-1.3-3-2.8C149.8,110.5,151.2,109.7,152.9,109.2z M154.5,110.5v3.2
	c0.4-0.1,0.8-0.3,1.1-0.6c0.3-0.3,0.4-0.7,0.4-1.2c0-0.4-0.2-0.7-0.4-1C155.2,110.7,154.9,110.6,154.5,110.5L154.5,110.5z
	 M152.9,110.7c-0.2,0-0.4,0.1-0.6,0.2c-0.2,0.1-0.4,0.2-0.5,0.4c-0.1,0.2-0.2,0.4-0.3,0.6s-0.1,0.4-0.1,0.6c0,0.2,0,0.4,0.1,0.6
	c0.1,0.2,0.2,0.3,0.3,0.5c0.1,0.1,0.3,0.2,0.5,0.3c0.2,0.1,0.4,0.1,0.6,0.1V110.7z"/>
<path class="st0" d="M102.4,116.8h-1.5l0.3-1.6h-5.6v-7.5h1.6v6.1h3.2v-3c0-0.9,0-1.8,0-2.7c0-0.4,0.1-0.6,0.5-0.6s0.6,0,1-0.1v6.3
	l1.1,0.1L102.4,116.8z"/>
<path class="st0" d="M266.2,115.1h-1.5c-0.1-1.1-0.1-2.2-0.2-3.5l-2,3.1l-1.8-2.9c-0.1,1.2-0.2,2.2-0.3,3.3h-1.5c0.1-1,0.2-2,0.4-3
	c0-0.2,0-0.5,0.1-0.7c0.1-0.4,0.1-0.7,0-1.1s-0.3-0.7-0.6-0.9c0.7,0,1.3,0,1.8,0c0.2,0,0.3,0.2,0.4,0.4c0.5,0.8,1,1.6,1.5,2.5
	c0.5-0.6,0.9-1.3,1.3-2c0.2-0.4,0.5-0.7,0.9-0.9c0.4-0.2,0.8-0.2,1.2-0.1C266.1,111.2,266.1,113.2,266.2,115.1z"/>
<path class="st0" d="M121.3,109.3c0.1,0,0.3-0.1,0.4,0c0.5,0.5,0.9,0.1,1.4,0c0.6-0.2,1.2-0.2,1.7,0c0.6,0.2,1,0.6,1.4,1.1
	c0.3,0.6,0.5,1.2,0.4,1.9c-0.1,0.7-0.4,1.3-0.8,1.8c-0.8,0.8-1.9,1.3-3,1.3v1.5h-1.5L121.3,109.3z M122.8,114c0.3,0,0.6,0,0.9-0.1
	c0.3-0.1,0.5-0.3,0.8-0.5c0.2-0.2,0.4-0.5,0.5-0.7c0.1-0.3,0.2-0.6,0.2-0.9c0-0.2-0.1-0.5-0.2-0.6c-0.1-0.2-0.3-0.4-0.5-0.5
	c-0.2-0.1-0.4-0.2-0.7-0.2c-0.2,0-0.5,0-0.7,0.1c-0.1,0-0.1,0.1-0.2,0.1c0,0.1-0.1,0.1-0.1,0.2C122.8,112,122.8,113,122.8,114
	L122.8,114z"/>
<path class="st0" d="M296.9,116.8v-7.5c0.2,0,0.4-0.1,0.4,0c0.4,0.4,0.8,0.2,1.2,0c0.5-0.2,1.1-0.2,1.6-0.1c0.5,0.1,1,0.4,1.4,0.9
	c0.4,0.5,0.6,1.1,0.6,1.7c0,0.6-0.1,1.2-0.4,1.7c-0.4,0.6-0.9,1.1-1.4,1.4c-0.6,0.3-1.3,0.5-1.9,0.5v1.5L296.9,116.8z M298.5,114
	c1.4-0.2,2.1-0.8,2.3-1.8c0.1-0.3,0-0.5,0-0.8c-0.1-0.2-0.2-0.5-0.4-0.6c-0.2-0.2-0.4-0.3-0.7-0.3s-0.5,0-0.8,0.1
	c-0.2,0.1-0.3,0.3-0.3,0.4C298.4,112,298.5,113,298.5,114z"/>
<path class="st0" d="M208.7,115.4v1.5h-1.5v-7.5c0.1,0,0.3-0.1,0.4,0c0.5,0.5,0.9,0.1,1.4,0c0.6-0.2,1.2-0.2,1.7,0
	c0.6,0.2,1,0.6,1.4,1c0.3,0.6,0.5,1.2,0.4,1.8c0,0.6-0.3,1.2-0.7,1.7c-0.4,0.4-0.9,0.8-1.4,1C209.9,115.2,209.3,115.4,208.7,115.4z
	 M208.7,114c0.3,0,0.6,0,0.9-0.1c0.3-0.1,0.6-0.3,0.8-0.5s0.4-0.5,0.5-0.8c0.1-0.3,0.1-0.6,0.1-0.9c0-0.2-0.1-0.4-0.2-0.6
	c-0.1-0.2-0.3-0.3-0.5-0.4c-0.2-0.1-0.4-0.1-0.6-0.1c-0.2,0-0.4,0.1-0.6,0.2c-0.1,0.1-0.2,0.2-0.2,0.3
	C208.7,112,208.7,113,208.7,114L208.7,114z"/>
<path class="st0" d="M138.7,115.4v1.5h-1.5v-7.5c0.1,0,0.3-0.1,0.3,0c0.5,0.5,0.9,0.1,1.4,0c0.6-0.2,1.2-0.2,1.7,0
	c0.6,0.2,1,0.5,1.4,1c0.3,0.6,0.5,1.2,0.4,1.9c-0.1,0.6-0.3,1.3-0.7,1.8c-0.4,0.4-0.9,0.8-1.4,1
	C139.9,115.2,139.3,115.4,138.7,115.4z M138.7,114c0.3,0,0.6,0,0.9-0.1c0.3-0.1,0.6-0.3,0.8-0.5c0.2-0.2,0.4-0.5,0.5-0.8
	c0.1-0.3,0.1-0.6,0.1-0.9c0-0.2-0.1-0.4-0.2-0.6c-0.1-0.2-0.3-0.3-0.5-0.4c-0.2-0.1-0.4-0.2-0.6-0.2c-0.2,0-0.4,0.1-0.6,0.2
	c-0.1,0-0.1,0.1-0.2,0.2c0,0.1-0.1,0.2-0.1,0.2C138.7,112,138.7,113,138.7,114L138.7,114z"/>
<path class="st0" d="M231.5,109.3h1.5v3.4l0.1,0.1l0.9-1.3c0.3-0.4,0.6-0.8,0.9-1.3c0.5-1,1.3-1,2.1-0.9v5.8h-1.6v-3.4
	c-0.1,0.1-0.3,0.3-0.4,0.4c-0.6,0.9-1.2,1.7-1.8,2.6c-0.3,0.5-0.6,0.7-1.2,0.5c-0.2-0.1-0.4-0.1-0.7-0.2V109.3z"/>
<path class="st0" d="M172.9,109.4h1.5v3.4h0.1c0.6-0.8,1.2-1.7,1.7-2.5c0.2-0.4,0.5-0.7,0.9-0.9c0.4-0.2,0.9-0.2,1.3,0v5.8h-1.5
	v-3.3h-0.2l-1.4,2l-0.3,0.5c-0.8,1.1-0.8,1.1-2.1,0.7V109.4z"/>
<path class="st0" d="M225.4,109.4c1.1-0.1,2.2-0.1,3.3,0c1.5,0.2,1.8,1.3,0.9,2.6c0.6,0.3,1.1,0.7,0.9,1.5c-0.1,0.4-0.2,0.7-0.5,1
	c-0.3,0.3-0.6,0.4-1,0.5c-1.2,0.2-2.3,0.2-3.6,0.3V109.4z M227,114.1c0.5-0.1,1.1-0.1,1.6-0.3c0.1-0.1,0.2-0.1,0.3-0.3
	c0.1-0.1,0.1-0.2,0.1-0.3c0-0.1-0.1-0.2-0.2-0.3c-0.1-0.1-0.2-0.1-0.3-0.2c-0.5,0-1,0-1.5,0V114.1z M227,111.6c0.4,0,0.7,0,1.1,0
	c0.1,0,0.2-0.1,0.3-0.2c0.1-0.1,0.2-0.2,0.2-0.3c0-0.1-0.1-0.2-0.1-0.3c-0.1-0.1-0.2-0.2-0.3-0.2c-0.4-0.1-0.8-0.1-1.2-0.1V111.6z"
	/>
<path class="st0" d="M185.8,112.4c0-0.4,0-0.9,0.2-1.3c0.1-0.4,0.4-0.8,0.7-1.1c0.3-0.3,0.6-0.6,1-0.7c0.4-0.2,0.8-0.2,1.2-0.2
	c0.4,0,0.8,0.1,1.1,0.2c0.4,0.1,0.7,0.4,1,0.6c0.3,0.3,0.5,0.6,0.6,1c0.1,0.4,0.2,0.8,0.2,1.1c0,0.4,0,0.9-0.2,1.3
	c-0.1,0.4-0.4,0.8-0.7,1.1c-0.3,0.3-0.6,0.6-1,0.7c-0.4,0.2-0.8,0.2-1.2,0.2c-0.4,0-0.8,0-1.2-0.2c-0.4-0.1-0.7-0.4-1-0.6
	c-0.3-0.3-0.5-0.6-0.6-1C185.8,113.2,185.8,112.8,185.8,112.4z M190.3,112.2c0-0.2,0-0.4,0-0.6c-0.1-0.2-0.2-0.4-0.3-0.5
	c-0.1-0.2-0.3-0.3-0.5-0.4c-0.2-0.1-0.4-0.1-0.6-0.1c-1,0-1.6,0.7-1.6,1.9c0,0.2,0,0.4,0.1,0.6c0.1,0.2,0.2,0.4,0.3,0.5
	c0.1,0.2,0.3,0.3,0.5,0.4c0.2,0.1,0.4,0.1,0.6,0.1C189.8,114,190.3,113.3,190.3,112.2z"/>
<path class="st0" d="M305.9,115.4c-0.4,0-0.8,0-1.1-0.2c-0.4-0.1-0.7-0.3-1-0.6c-0.3-0.3-0.5-0.6-0.6-1c-0.1-0.4-0.2-0.8-0.2-1.1
	c0-0.4,0-0.9,0.1-1.3c0.1-0.4,0.4-0.8,0.7-1.1c0.3-0.3,0.7-0.6,1-0.7c0.4-0.2,0.8-0.2,1.3-0.2c0.4,0,0.8,0,1.1,0.2
	c0.4,0.1,0.7,0.4,1,0.6c0.3,0.3,0.5,0.6,0.6,1c0.1,0.4,0.2,0.8,0.2,1.1c0,0.4,0,0.9-0.2,1.3c-0.1,0.4-0.4,0.8-0.7,1.1
	c-0.3,0.3-0.6,0.6-1,0.7C306.8,115.3,306.3,115.4,305.9,115.4z M307.5,112.3c0-0.2,0-0.4,0-0.6c-0.1-0.2-0.2-0.4-0.3-0.6
	s-0.3-0.3-0.5-0.4c-0.2-0.1-0.4-0.1-0.6-0.2c-1,0-1.6,0.6-1.6,1.8c0,0.2,0,0.4,0,0.6c0.1,0.2,0.2,0.4,0.3,0.5
	c0.1,0.2,0.3,0.3,0.5,0.4c0.2,0.1,0.4,0.1,0.6,0.2C306.9,114,307.4,113.4,307.5,112.3L307.5,112.3z"/>
<path class="st0" d="M216.2,115.4c-0.4,0-0.8,0-1.1-0.2c-0.4-0.1-0.7-0.3-1-0.6c-0.3-0.3-0.5-0.6-0.6-1c-0.1-0.4-0.2-0.8-0.2-1.1
	c0-0.4,0-0.9,0.2-1.3c0.1-0.4,0.4-0.8,0.7-1.1c0.3-0.3,0.7-0.6,1.1-0.7c0.4-0.2,0.8-0.2,1.3-0.2c0.4,0,0.8,0.1,1.1,0.2
	c0.4,0.1,0.7,0.4,1,0.6c0.3,0.3,0.5,0.6,0.6,1c0.1,0.4,0.2,0.8,0.2,1.1c0,0.4,0,0.9-0.2,1.3c-0.1,0.4-0.4,0.8-0.7,1.1
	s-0.6,0.6-1,0.7C217,115.3,216.6,115.4,216.2,115.4z M214.7,112.3c0,1,0.5,1.7,1.5,1.7c0.9,0,1.6-0.6,1.6-1.8c0-0.2,0-0.4,0-0.6
	c-0.1-0.2-0.2-0.4-0.3-0.6c-0.1-0.2-0.3-0.3-0.5-0.4c-0.2-0.1-0.4-0.1-0.6-0.1C215.3,110.5,214.8,111.2,214.7,112.3z"/>
<path class="st0" d="M199.9,115.4c-0.4,0-0.8,0-1.2-0.2c-0.4-0.1-0.7-0.3-1-0.6c-0.3-0.3-0.5-0.6-0.7-1c-0.1-0.4-0.2-0.8-0.2-1.2
	c0-0.4,0-0.9,0.2-1.3c0.1-0.4,0.4-0.8,0.7-1.1c0.3-0.3,0.6-0.6,1-0.7c0.4-0.2,0.8-0.2,1.2-0.2c0.4,0,0.8,0,1.1,0.2
	c0.4,0.1,0.7,0.4,1,0.6c0.3,0.3,0.5,0.6,0.6,1c0.1,0.4,0.2,0.8,0.2,1.1c0,0.4,0,0.8-0.2,1.2c-0.1,0.4-0.4,0.8-0.6,1.1
	c-0.3,0.3-0.6,0.6-1,0.7C200.7,115.3,200.3,115.4,199.9,115.4z M201.4,112.2c0-0.2,0-0.4,0-0.6c-0.1-0.2-0.2-0.4-0.3-0.6
	c-0.1-0.2-0.3-0.3-0.5-0.4c-0.2-0.1-0.4-0.1-0.6-0.1c-1,0-1.6,0.7-1.6,1.8c0,1.1,0.5,1.7,1.5,1.7S201.4,113.3,201.4,112.2
	L201.4,112.2z"/>
<path class="st0" d="M146.1,115.4c-0.4,0-0.8,0-1.1-0.2s-0.7-0.3-1-0.6c-0.3-0.3-0.5-0.6-0.6-1c-0.1-0.4-0.2-0.8-0.2-1.1
	c0-0.4,0-0.9,0.2-1.3c0.1-0.4,0.4-0.8,0.7-1.1c0.3-0.3,0.7-0.6,1.1-0.7c0.4-0.2,0.8-0.2,1.3-0.2c0.4,0,0.8,0.1,1.1,0.2
	c0.4,0.1,0.7,0.4,1,0.6c0.3,0.3,0.5,0.6,0.6,1c0.1,0.4,0.2,0.8,0.2,1.1c0,0.4,0,0.9-0.2,1.3c-0.1,0.4-0.4,0.8-0.7,1.1
	c-0.3,0.3-0.6,0.6-1,0.7C147,115.3,146.5,115.4,146.1,115.4z M144.7,112.3c0,1.1,0.5,1.7,1.4,1.7c0.9,0,1.6-0.6,1.6-1.7
	c0-0.2,0-0.4,0-0.6c-0.1-0.2-0.2-0.4-0.3-0.6s-0.3-0.3-0.5-0.4c-0.2-0.1-0.4-0.2-0.6-0.2C145.3,110.4,144.7,111.1,144.7,112.3
	L144.7,112.3z"/>
<path class="st0" d="M295.7,109.3v5.8h-1.5v-4.5h-2v4.5h-1.5v-5.8H295.7z"/>
<path class="st0" d="M135.9,115.1h-1.5v-4.5h-2v4.4h-1.5v-5.8h5L135.9,115.1z"/>
<path class="st0" d="M286.3,115.1h-1.5v-2.3h-2.1v2.3h-1.5v-5.8h1.5v2.1h2.1c0-0.5,0-1,0-1.6c0-0.5,0.2-0.6,0.6-0.7
	c0.3,0,0.6,0,0.9,0L286.3,115.1z"/>
<path class="st0" d="M104.9,112.8c0.2,1.2,0.9,1.4,3.2,1.1c0.3,1.1,0.1,1.3-1,1.4c-0.3,0-0.5,0-0.8,0c-0.4,0-0.7,0-1.1-0.1
	c-0.4-0.1-0.7-0.3-1-0.5c-0.3-0.2-0.5-0.5-0.7-0.9c-0.2-0.3-0.3-0.7-0.3-1.1c-0.1-0.8,0.1-1.6,0.6-2.3c0.5-0.7,1.2-1.1,2-1.3
	c0.3-0.1,0.6-0.1,0.9,0c0.3,0.1,0.6,0.2,0.8,0.3c0.2,0.2,0.5,0.4,0.6,0.6c0.2,0.2,0.3,0.5,0.3,0.8c0.1,0.5,0.1,1,0.2,1.5
	L104.9,112.8z M105,111.8l2.1-0.2c0-0.7-0.2-1-0.7-1C105.7,110.3,105.2,110.8,105,111.8L105,111.8z"/>
<path class="st0" d="M159.7,112.8c0.1,1.2,0.8,1.4,3.2,1.1c0.2,1.1,0.1,1.3-1,1.4c-0.3,0-0.5,0-0.8,0c-0.4,0-0.7,0-1.1-0.1
	c-0.4-0.1-0.7-0.3-1-0.5c-0.3-0.2-0.5-0.5-0.7-0.9c-0.2-0.3-0.3-0.7-0.3-1.1c-0.1-0.8,0.1-1.7,0.6-2.4c0.5-0.7,1.2-1.1,2-1.3
	c0.4-0.1,0.8,0,1.2,0.1c0.4,0.1,0.7,0.4,1,0.7s0.5,0.7,0.6,1.1s0.1,0.8,0,1.2c0,0.1-0.3,0.3-0.5,0.3
	C161.9,112.6,160.8,112.7,159.7,112.8z M161.9,111.5c-0.1-0.8-0.3-1-0.9-1.1c-0.6-0.1-1.1,0.4-1.3,1.3L161.9,111.5z"/>
<path class="st0" d="M113.4,112.8h-2.2v2.3h-1.5v-5.7h1.5v2.1h2.1v-2.2l1.5-0.1v5.9h-1.5V112.8z"/>
<path class="st0" d="M181.2,112.8v2.3h-1.5v-5.8h1.5v2.1h2.1v-2.2l1.5-0.2v6h-1.4v-2.3L181.2,112.8z"/>
<path class="st0" d="M246.6,112.1l2.5,3c-0.5,0-1,0-1.6,0c-0.2,0-0.3-0.2-0.5-0.3c-0.7-0.8-1.3-1.5-2.1-2.4v2.7h-1.5
	c0-0.2,0-0.3,0-0.4v-5.3h1.5v2.7l2.6-3l1.1,0.7L246.6,112.1z"/>
<path class="st0" d="M220.1,110.6c-0.1-1.3-0.2-1.2,1.1-1.4c0.4-0.1,0.9-0.1,1.3,0c0.3,0,0.6,0.1,0.9,0.3c0.3,0.2,0.5,0.4,0.6,0.7
	c0.1,0.3,0.1,0.6,0,0.9c-0.1,0.3-0.3,0.6-0.5,0.8c0.3,0.2,0.5,0.4,0.7,0.7c0.2,0.3,0.2,0.6,0.2,1c0,0.3-0.2,0.6-0.4,0.9
	c-0.2,0.3-0.5,0.4-0.8,0.5c-0.9,0.4-2,0.5-3,0.1c-0.1,0-0.1-0.1-0.2-0.1c-0.1-0.1-0.1-0.1-0.1-0.2c0-0.3,0-0.6,0-0.9
	c0.6,0.1,1.2,0.1,1.8,0.2c0.3,0,0.6-0.1,0.8-0.2c0.1-0.1,0.2-0.2,0.2-0.3s0.1-0.2,0.1-0.3c-0.1-0.1-0.1-0.2-0.2-0.3
	c-0.1-0.1-0.2-0.1-0.3-0.2c-0.5,0-1,0-1.6,0l0.1-1.1c0.3,0,0.7,0,1,0c0.2-0.1,0.4-0.3,0.6-0.5c-0.2-0.2-0.3-0.5-0.5-0.5
	C221.4,110.5,220.8,110.5,220.1,110.6z"/>
<path class="st0" d="M168.5,109v1.4c-0.5,0.1-0.9,0.2-1.4,0.3c-0.5,0.2-0.9,0.6-1.2,1c-0.1,0.2-0.2,0.4-0.2,0.7s0,0.5,0.1,0.7
	c0.1,0.2,0.3,0.4,0.5,0.6c0.2,0.2,0.4,0.3,0.7,0.3c0.5,0,1,0,1.6,0c0.2,1.2,0.1,1.3-1.1,1.3c-0.7,0.1-1.4-0.1-2-0.4
	c-0.6-0.4-1-1-1.2-1.6c-0.2-0.7-0.1-1.5,0.2-2.1c0.3-0.7,0.9-1.2,1.6-1.4C166.9,109.4,167.7,109.2,168.5,109z"/>
<path class="st0" d="M239.5,110.6h-1.7v-1.2h5l-0.3,1.2h-1.5v4.5h-1.5L239.5,110.6z"/>
<path class="st0" d="M115.6,110.6v-1.2h5l-0.3,1.2h-1.5v4.5h-1.5v-4.5H115.6z"/>
<path class="st0" d="M192.8,109.4h3.9v1.2h-2.4v4.5h-1.6V109.4z"/>
<path class="st0" d="M289.5,115.1H288v-4.5l-0.8-0.1v-1.1l2.3-0.3V115.1z"/>
<path class="st0" d="M170.2,110.6l-0.8-0.1v-1.1l2.3-0.3v6h-1.4V110.6z"/>
<path class="st0" d="M173.7,107.5l0.9-0.6c0.9,1.1,1.8,0.5,2.8,0.1l0.4,1C176.4,109.2,174.1,109.1,173.7,107.5z"/>
<path class="st0" d="M267.3,115.1v-1.6h1.7v1.6H267.3z"/>
<path class="st0" d="M288,108.4c0.1-0.7,0.1-1.3,0.2-1.9l1.6,0.2c-0.1,0.6-0.2,1.1-0.3,1.6L288,108.4z"/>
<path class="st0" d="M170.4,106.4l1.6,0.2l-0.3,1.6l-1.5,0.2L170.4,106.4z"/>
</svg>
